<?xml version="1.0" encoding="utf-8"?>
<!-- Generator: Adobe Illustrator 16.0.0, SVG Export Plug-In . SVG Version: 6.00 Build 0)  -->
<!DOCTYPE svg PUBLIC "-//W3C//DTD SVG 1.1//EN" "http://www.w3.org/Graphics/SVG/1.1/DTD/svg11.dtd">
<svg version="1.1" id="hp" xmlns="http://www.w3.org/2000/svg" xmlns:xlink="http://www.w3.org/1999/xlink" x="0px" y="0px"
	 width="1200px" height="650px" viewBox="0 0 1200 650" enable-background="new 0 0 1200 650" xml:space="preserve">
<symbol  id="Nouveau_symbole" viewBox="-97.57 -104.191 198.053 213.439">
	<path d="M-94.997-33.891c5.69-4.524,18.976,2.71,29.674,16.161c10.699,13.45,14.76,28.022,9.07,32.548
		c-5.69,4.527-18.977-2.709-29.674-16.159C-96.626-14.792-100.687-29.363-94.997-33.891z"/>
	<path d="M-31.935-80.883c2.83-2.955-0.033-10.293-6.397-16.388c-6.363-6.097-13.816-8.645-16.646-5.689
		c-2.831,2.955,0.033,10.292,6.396,16.388C-42.219-80.476-34.766-77.928-31.935-80.883z"/>
	<path d="M71.863-45.21c1.918,3.615,9.783,3.199,17.566-0.928c7.787-4.13,12.545-10.406,10.629-14.021
		c-1.916-3.616-9.783-3.2-17.566,0.929C74.705-55.102,69.945-48.824,71.863-45.21z"/>
	<path d="M99.342,16.516c3.217,6.52-6.666,17.971-22.074,25.58c-15.414,7.609-30.516,8.493-33.732,1.974
		c-3.221-6.52,6.664-17.972,22.076-25.58C81.021,10.88,96.121,9.997,99.342,16.516z"/>
	<polygon points="-12.539,94.432 -16.036,101.97 -12.539,98.2 -12.539,109.248 -9.702,99.631 -6.558,103.271 -9.144,98.591 
		-6.558,98.071 -8.12,94.432 	"/>
	<path d="M-60.733-51.314c-8.379,36.405,17.141,73.355,56.999,82.529c39.859,9.176,78.965-12.894,87.344-49.3
		c2.305-10.006,2.033-20.05-0.381-29.55c6.174,11.495,9.109,23.835,6.816,36.998c-2.301,13.203-8.92,24.761-18.504,33.916
		c0.377,5.478,0.127,11.072-0.855,16.705C63.861,79.14,25.302,105.122-15.443,98.02c-40.746-7.102-68.244-44.595-61.419-83.751
		c0.981-5.633,2.639-10.979,4.848-16.008c-5.924-11.858-8.242-24.974-5.942-38.177c3.236-18.571,15.019-33.895,31.586-43.834
		c2.332-1.398,5.893-3.062,10.21-4.549C-48.28-79.321-57.217-66.587-60.733-51.314z"/>
	<path fill="#FFFFFF" d="M-6.688-91.889c50.872,4.55,57.401,11.236,68.835,17.243s15.93,17.412,21.082,27.011
		c2.414,9.5,2.686,19.544,0.381,29.55c-8.379,36.406-47.484,58.476-87.344,49.3c-39.858-9.174-65.378-46.124-56.999-82.529
		c3.517-15.272,12.453-28.007,24.572-36.984C-27.99-91.114-17.106-93.304-6.688-91.889z"/>
	<path fill="#FFFFFF" d="M5.636,63.234C10.4,42.531,0.217,22.517-17.112,18.527c-17.328-3.989-35.239,9.559-40.005,30.262
		s5.42,40.72,22.747,44.708C-17.041,97.485,0.869,83.938,5.636,63.234z"/>
	<path fill="#FFFFFF" d="M43.871,76.908c7.238-19.971,0.34-40.787-15.407-46.499c-15.746-5.708-34.383,5.854-41.623,25.825
		c-7.239,19.974-0.343,40.792,15.405,46.5C17.996,108.442,36.631,96.88,43.871,76.908z"/>
	<polygon fill="#FFFFFF" points="32.908,16.179 -20.658,16.179 -20.658,51.435 32.908,51.435 	"/>
	<path fill="#FFFFFF" stroke="#000000" stroke-width="0.25" stroke-miterlimit="10" d="M-10.022,87.251
		c5.978-15.632,2.479-31.497-7.816-35.432c-15.248-4.351-26.57,15.011-26.57,15.011s-1.338,2.147-1.729,4.043
		c-2.277,11.037,1.943,38.154,16.434,37.664C-21.923,106.115-14.207,98.191-10.022,87.251z"/>
	<path d="M-21.192,95.813c0.767-2.44-0.201-4.916-2.158-5.532c-1.961-0.616-4.171,0.859-4.939,3.298
		c-0.766,2.438,0.201,4.914,2.16,5.529C-24.171,99.724-21.959,98.248-21.192,95.813z"/>
	<path fill="#FFFFFF" stroke="#000000" stroke-width="0.25" stroke-miterlimit="10" d="M20.896,82.635
		c2.703-10.369-0.658-20.223-7.508-22.008c-6.852-1.79-14.596,5.168-17.303,15.537c-1.964,7.527-1.232,15.607,2.713,18.876
		C2.742,98.309,18.188,93.009,20.896,82.635z"/>
	<path d="M11.67,89.708c0.53-2.127-0.423-4.197-2.132-4.624c-1.709-0.428-3.526,0.949-4.059,3.076
		c-0.529,2.124,0.424,4.196,2.133,4.623C9.321,93.211,11.138,91.833,11.67,89.708z"/>
	<path d="M3.873,43.498l7.565,6.917c0,0-11.355-1.021-16.117-5.178C-3.604,44.51,3.873,43.498,3.873,43.498z"/>
</symbol>
<g id="fond">
	<rect x="-318" y="-53.088" fill="#2E7D32" width="1851.424" height="825"/>
	<path fill="#7CB342" d="M1889.847,591.328c0,0-329.104-672.906-712.847,0"/>
	<g>
		<path fill="#689F38" d="M1,587.5c76,18,154,10,234,14c88,4,178,14,264,36c22,6,46,18,68,10c-50-80-64-170-142-234
			c-54-42-128-74-188-104c-92-44-228-86-330-74c0,0-446,31.41-548,322.705"/>
	</g>
	<g>
		<path fill="#7CB342" d="M638.863,449.678c14-50,86-78,130-94c72-22,144-24,218-22c76,2,170,20,236,58c42,24,114,102,114,154
			c-34,10-76,2-110-2c-56-6-112-10-170-10c-98,0-202,2-300-6c-28-2-196-38-126-82"/>
	</g>
	<g>
		<path fill="#689F38" d="M627,559.5c62-24,120-60,182-80c114-38,238-52,356-62c104-10,249.091-18.827,322-2s144,124,130,156
			c-26,58-36,96-106,102c-140,10-280-12-420-20c-92-6-186-4-276-22c-38-8-72-30-108-40c-50-16-42-34,2-60"/>
	</g>
	<g>
		<path fill="#558B2F" d="M215,547.5c30-16,52-48,82-66c54-34,120-56,182-70c100-24,222-28,322-6c122,24,302,80,376,188
			c-60,18-136-2-198-8c-66-4-132-2-198-2c-104-2-212-4-316-10c-56-2-110-4-168-10c-22-2-68,2-80-18"/>
	</g>
	<rect x="-318" y="545.5" fill="#FFECB3" width="1851.424" height="304"/>
	<g>
		<path fill="#FFECB3" d="M934.303,512.238c20.908,13.818,115.369,51.818,115.369,51.818l-11.928,26.555
			c0,0-120.939-25.34-141.508-63.559c-9.668-12.357-30.824-26.178-57.654-40.125c-82.896-43.096-219.943-87.422-239.543-93.674
			c-1.545-0.494,215.836,64.117,243.754,75.746C870.711,480.631,913.396,498.422,934.303,512.238z"/>
	</g>
	<g>
		<g>
			<path fill="#FFE082" d="M915.331,556.879c-2.428-3.512-5.983-6.416-9.205-9.183c-0.91-0.78-3.484,0.548-2.252,1.607
				c3.087,2.65,6.47,5.453,8.795,8.817C913.369,559.135,916.147,558.06,915.331,556.879L915.331,556.879z"/>
		</g>
	</g>
	<g>
		<g>
			<path fill="#FFECB3" d="M1032.171,487.261l1.499-1.106l0.98-0.623c0.327-0.2,0.658-0.422,0.985-0.596l0.977-0.488
				c0.33-0.155,0.645-0.337,0.987-0.466l1.024-0.393c0.345-0.12,0.675-0.277,1.033-0.362l1.059-0.286
				c0.355-0.084,0.701-0.208,1.064-0.252l1.08-0.173c0.36-0.046,0.718-0.135,1.08-0.142l1.084-0.06
				c0.36-0.011,0.723-0.051,1.08-0.035l2.144,0.11l-3.232,2.202c1.814-5.31,4.717-9.866,7.83-14.021
				c3.115-4.174,6.499-7.995,9.733-11.839c1.619-1.921,3.213-3.84,4.691-5.809l0.639-0.832l0.605-0.729
				c0.402-0.486,0.792-0.97,1.276-1.481c0.916-1.024,1.861-1.97,2.894-2.859c2.05-1.787,4.469-3.267,7.014-4.228
				c2.55-0.95,5.125-1.48,7.638-1.943l3.754-0.655l1.862-0.323l0.929-0.164l0.232-0.041l0.19-0.033l0.117-0.015l0.471-0.059
				c2.526-0.303,4.998-0.629,7.438-1.076c1.208-0.265,2.452-0.438,3.628-0.799l1.788-0.483c0.601-0.151,1.16-0.405,1.744-0.603
				c0.576-0.214,1.161-0.413,1.733-0.639l1.664-0.797c1.139-0.484,2.17-1.165,3.228-1.808c1.088-0.596,2.026-1.421,3.032-2.15
				c0.506-0.383,0.987-0.728,1.457-1.161c0.486-0.413,0.951-0.832,1.384-1.265c1.789-1.715,3.489-3.652,5.511-5.256
				c2.029-1.589,4.479-2.753,7.074-2.857c2.523-0.147,5.098-0.081,7.428-1.167c-2.265,1.207-4.913,1.283-7.39,1.556
				c-2.495,0.229-4.755,1.456-6.616,3.07c-1.867,1.644-3.422,3.611-5.188,5.489c-0.438,0.484-0.891,0.935-1.348,1.365
				c-0.438,0.448-0.96,0.874-1.443,1.278c-0.999,0.808-1.931,1.709-3.032,2.393c-1.067,0.729-2.116,1.495-3.284,2.068l-1.713,0.929
				c-0.589,0.27-1.191,0.511-1.788,0.768c-0.602,0.239-1.188,0.538-1.806,0.728l-1.846,0.604c-1.226,0.442-2.485,0.686-3.731,1.024
				c-2.509,0.596-5.035,1.06-7.513,1.487l-0.467,0.082l-0.117,0.021c-0.025,0.005,0.121-0.021,0.045-0.007l-0.029,0.007
				l-0.058,0.014l-0.232,0.053l-0.93,0.214l-1.856,0.422l-3.683,0.839c-2.431,0.576-4.802,1.208-6.952,2.142
				c-2.143,0.945-4.036,2.246-5.721,3.866c-0.842,0.805-1.645,1.695-2.369,2.594c-0.368,0.423-0.748,0.943-1.126,1.452l-0.567,0.761
				l-0.479,0.7c-1.452,2.153-2.989,4.209-4.528,6.237c-3.075,4.059-6.204,7.99-8.935,12.075c-2.745,4.063-5.076,8.316-6.314,12.678
				l-0.623,2.196l-2.609,0.006l-1.553,0.003c-0.258-0.001-0.509,0.05-0.764,0.07l-0.759,0.078c-0.256,0.01-0.497,0.099-0.745,0.142
				l-0.739,0.155c-0.251,0.035-0.481,0.147-0.722,0.216l-0.716,0.231c-0.243,0.063-0.463,0.197-0.695,0.289l-0.688,0.303
				c-0.231,0.096-0.442,0.245-0.664,0.362l-0.66,0.37c-0.211,0.126-0.381,0.267-0.575,0.395l-0.569,0.385l-1.417,1.165
				L1032.171,487.261z"/>
		</g>
		<g>
			<path fill="#FFECB3" d="M925.521,590.83c19.646,63.238-39.939,97.02,25.688,23.961c65.625-73.057,14.959-70.295,95.035-129.316
				c-0.818-0.408-1.979-0.891-3.609-1.471C1018,483.393,939.168,548.068,925.521,590.83z"/>
		</g>
	</g>
	<g>
		<g>
			<path fill="#FFECB3" d="M998.646,548.082l1.538-1.2l0.394-0.304l0.485-0.349l0.973-0.691l0.973-0.678l0.938-0.595
				c0.627-0.39,1.244-0.805,1.888-1.154c2.533-1.502,5.157-2.745,7.801-3.852c2.646-1.111,5.326-2.036,8.018-2.822
				c2.69-0.797,5.392-1.462,8.093-2.008c10.813-2.201,21.575-2.838,32.172-2.98c5.302-0.068,10.567,0.016,15.788,0.125l1.955,0.042
				l2.003,0.059l3.9,0.136l7.8,0.271l31.191,1.177l0.446,0.017l0.214,0.041c4.03,0.76,7.9,1.663,11.703,2.385
				c3.8,0.725,7.536,1.267,11.233,1.379c3.696,0.125,7.348-0.204,10.903-1.059c3.56-0.834,7.011-2.21,10.307-3.973
				c1.648-0.884,3.263-1.855,4.827-2.925l4.941-3.349c3.528-2.242,7.08-4.268,10.817-6.022c3.75-1.718,7.646-3.136,11.609-4.208
				c3.964-1.08,7.977-1.817,11.95-2.416l11.823-1.668l2.99-0.456l2.961-0.373c2.016-0.222,4.027-0.42,6.029-0.567
				c8.024-0.582,16.094-0.525,24.082,0.338c3.993,0.431,7.964,1.082,11.876,1.984c1.954,0.459,3.897,0.962,5.816,1.551l0.721,0.212
				c0.342,0.104,0.492,0.189,0.747,0.285c0.462,0.191,0.921,0.363,1.384,0.57c0.931,0.406,1.848,0.828,2.743,1.274
				c3.599,1.78,6.997,3.869,10.43,5.867c3.427,2.007,6.931,3.89,10.643,5.324l0.008,0.004l0.005,0.005
				c0.184,0.185,0.355,0.386,0.563,0.538c0.21,0.161,0.49,0.146,0.747,0.154c-0.256,0.003-0.538,0.032-0.766-0.125
				c-0.222-0.148-0.4-0.341-0.593-0.519l0.013,0.009c-3.776-1.27-7.389-3.008-10.909-4.865c-3.527-1.849-7.007-3.777-10.618-5.368
				c-0.903-0.401-1.812-0.771-2.721-1.12c-0.453-0.18-0.934-0.336-1.398-0.505c-0.213-0.07-0.517-0.195-0.655-0.22l-0.719-0.178
				c-1.909-0.494-3.839-0.902-5.776-1.267c-3.877-0.716-7.797-1.181-11.729-1.429c-7.866-0.497-15.769-0.2-23.581,0.718
				c-1.957,0.231-3.895,0.511-5.822,0.809l-2.94,0.505l-2.887,0.572l-11.729,2.184c-3.862,0.757-7.653,1.632-11.32,2.808
				c-3.669,1.169-7.211,2.64-10.623,4.386c-3.395,1.779-6.673,3.853-9.772,6.01l-4.788,3.561c-1.668,1.247-3.418,2.408-5.23,3.483
				c-3.626,2.146-7.554,3.922-11.698,5.085c-4.135,1.188-8.459,1.761-12.716,1.799c-4.263,0.053-8.447-0.385-12.488-0.977
				c-4.045-0.592-7.961-1.329-11.778-1.879l0.659,0.058l-31.222,0.212l-7.804,0.075l-3.901,0.038l-1.898,0.028l-1.946,0.045
				c-5.182,0.122-10.322,0.27-15.418,0.563c-10.179,0.583-20.253,1.673-29.755,4.061c-2.375,0.59-4.702,1.277-6.967,2.062
				c-2.271,0.773-4.479,1.65-6.587,2.652c-2.11,0.998-4.154,2.079-6.042,3.323c-0.489,0.29-0.935,0.63-1.398,0.946l-0.691,0.479
				l-0.605,0.469l-0.601,0.462l-0.301,0.229l-0.365,0.309l-1.483,1.268L998.646,548.082z"/>
		</g>
		<g>
			<path fill="#FFECB3" d="M1076.5,532.27c0,0-69.5-4.52-86.25,8.23s82.5,15,82.5,15s1.5-12.016,24.75-13.008
				S1076.5,532.27,1076.5,532.27z"/>
		</g>
	</g>
	<g>
		<path fill="#FFECB3" d="M895.984,527.652c86.412,56.842,4.775,159.949-12.086,60.398
			c-16.861-99.549-533.369-134.869-533.369-134.869S809.572,470.811,895.984,527.652z"/>
	</g>
</g>
<g id="deco">
	
		<ellipse transform="matrix(0.9653 -0.261 0.261 0.9653 -132.9934 194.4225)" opacity="0.2" fill="#6D4C41" cx="665.496" cy="597.926" rx="72.803" ry="13.427"/>
	<ellipse opacity="0.1" fill="#8D6E63" cx="131.672" cy="575.142" rx="94.328" ry="3.223"/>
	<ellipse opacity="0.1" fill="#A1887F" cx="927.268" cy="566.598" rx="148.268" ry="7.932"/>
</g>
<g id="Calque_1_-_copie_2">
	<g>
		<path fill="#5D4037" d="M253.559,362.264c-0.277,0.08-59.738-34.834-59.738-34.834l3.346-3.514l59.729,34.826
			c0,0-0.709,2.066-1.871,3.045C254.594,362.148,254.1,362.361,253.559,362.264z"/>
		<path fill="#6D4C41" d="M134.361,378.678c0-1.703-1.791-3.084-4-3.084h-8.5c-2.209,0-4,1.381-4,3.084v195.881
			c0,1.703,1.791,3.084,4,3.084h8.5c2.209,0,4-1.381,4-3.084V378.678z"/>
		<g opacity="0.5">
			<defs>
				<path id="SVGID_1_" opacity="0.5" d="M134.361,378.678c0-1.703-1.791-3.084-4-3.084h-8.5c-2.209,0-4,1.381-4,3.084v195.881
					c0,1.703,1.791,3.084,4,3.084h8.5c2.209,0,4-1.381,4-3.084V378.678z"/>
			</defs>
			<clipPath id="SVGID_2_">
				<use xlink:href="#SVGID_1_"  overflow="visible"/>
			</clipPath>
			<g clip-path="url(#SVGID_2_)">
				<path fill="none" stroke="#5D4037" stroke-miterlimit="10" d="M94.611,371.74c0,0,33,17,63,0.5"/>
				<path fill="none" stroke="#5D4037" stroke-miterlimit="10" d="M94.611,379.66c0,0,33,17,63,0.5"/>
				<path fill="none" stroke="#5D4037" stroke-miterlimit="10" d="M94.611,387.58c0,0,33,16.998,63,0.5"/>
				<path fill="none" stroke="#5D4037" stroke-miterlimit="10" d="M94.611,395.498c0,0,33,17,63,0.5"/>
				<path fill="none" stroke="#5D4037" stroke-miterlimit="10" d="M94.611,403.418c0,0,33,17,63,0.5"/>
				<path fill="none" stroke="#5D4037" stroke-miterlimit="10" d="M94.611,411.338c0,0,33,17,63,0.5"/>
				<path fill="none" stroke="#5D4037" stroke-miterlimit="10" d="M94.611,419.256c0,0,33,17,63,0.5"/>
				<path fill="none" stroke="#5D4037" stroke-miterlimit="10" d="M94.611,427.176c0,0,33,17,63,0.5"/>
				<path fill="none" stroke="#5D4037" stroke-miterlimit="10" d="M94.611,435.096c0,0,33,17,63,0.5"/>
				<path fill="none" stroke="#5D4037" stroke-miterlimit="10" d="M94.611,443.016c0,0,33,16.998,63,0.498"/>
				<path fill="none" stroke="#5D4037" stroke-miterlimit="10" d="M94.611,450.934c0,0,33,17,63,0.5"/>
				<path fill="none" stroke="#5D4037" stroke-miterlimit="10" d="M94.611,458.854c0,0,33,17,63,0.5"/>
				<path fill="none" stroke="#5D4037" stroke-miterlimit="10" d="M94.611,466.771c0,0,33,17,63,0.502"/>
				<path fill="none" stroke="#5D4037" stroke-miterlimit="10" d="M94.611,474.691c0,0,33,17,63,0.5"/>
				<path fill="none" stroke="#5D4037" stroke-miterlimit="10" d="M94.611,482.611c0,0,33,17,63,0.5"/>
				<path fill="none" stroke="#5D4037" stroke-miterlimit="10" d="M94.611,490.531c0,0,33,17,63,0.5"/>
				<path fill="none" stroke="#5D4037" stroke-miterlimit="10" d="M94.611,498.449c0,0,33,17,63,0.5"/>
				<path fill="none" stroke="#5D4037" stroke-miterlimit="10" d="M94.611,506.369c0,0,33,17,63,0.5"/>
				<path fill="none" stroke="#5D4037" stroke-miterlimit="10" d="M94.611,514.289c0,0,33,17,63,0.5"/>
				<path fill="none" stroke="#5D4037" stroke-miterlimit="10" d="M94.611,522.207c0,0,33,17,63,0.5"/>
				<path fill="none" stroke="#5D4037" stroke-miterlimit="10" d="M94.611,530.127c0,0,33,17,63,0.5"/>
				<path fill="none" stroke="#5D4037" stroke-miterlimit="10" d="M94.611,538.047c0,0,33,17,63,0.5"/>
				<path fill="none" stroke="#5D4037" stroke-miterlimit="10" d="M94.611,545.965c0,0,33,17.002,63,0.5"/>
				<path fill="none" stroke="#5D4037" stroke-miterlimit="10" d="M94.611,553.885c0,0,33,17,63,0.5"/>
				<path fill="none" stroke="#5D4037" stroke-miterlimit="10" d="M94.611,561.805c0,0,33,17,63,0.5"/>
				<path fill="none" stroke="#5D4037" stroke-miterlimit="10" d="M94.611,569.725c0,0,33,17,63,0.5"/>
				<path fill="none" stroke="#5D4037" stroke-miterlimit="10" d="M94.611,577.643c0,0,33,17,63,0.5"/>
			</g>
		</g>
		<g>
			<defs>
				<polygon id="SVGID_3_" points="224.904,344.406 194.773,327.01 194.773,327.012 63.865,327.012 63.865,396.594 194.773,396.594 
					194.773,396.596 224.904,379.199 255.037,361.803 				"/>
			</defs>
			<use xlink:href="#SVGID_3_"  overflow="visible" fill="#8D6E63"/>
			<clipPath id="SVGID_4_">
				<use xlink:href="#SVGID_3_"  overflow="visible"/>
			</clipPath>
			<g clip-path="url(#SVGID_4_)">
				<line fill="none" stroke="#6D4C41" stroke-miterlimit="10" x1="17.141" y1="312.965" x2="345.623" y2="312.965"/>
				<line fill="none" stroke="#6D4C41" stroke-miterlimit="10" x1="14.975" y1="322.257" x2="343.456" y2="322.257"/>
				<line fill="none" stroke="#6D4C41" stroke-miterlimit="10" x1="12.808" y1="331.549" x2="341.29" y2="331.549"/>
				<line fill="none" stroke="#6D4C41" stroke-miterlimit="10" x1="10.641" y1="340.842" x2="339.124" y2="340.842"/>
				<line fill="none" stroke="#6D4C41" stroke-miterlimit="10" x1="8.475" y1="350.134" x2="336.957" y2="350.134"/>
				<line fill="none" stroke="#6D4C41" stroke-miterlimit="10" x1="6.309" y1="359.427" x2="334.791" y2="359.427"/>
				<line fill="none" stroke="#6D4C41" stroke-miterlimit="10" x1="4.142" y1="368.719" x2="332.624" y2="368.719"/>
				<line fill="none" stroke="#6D4C41" stroke-miterlimit="10" x1="1.976" y1="378.011" x2="330.458" y2="378.011"/>
				<line fill="none" stroke="#6D4C41" stroke-miterlimit="10" x1="-0.191" y1="387.303" x2="328.291" y2="387.303"/>
				<line fill="none" stroke="#6D4C41" stroke-miterlimit="10" x1="-2.357" y1="396.596" x2="326.125" y2="396.596"/>
			</g>
		</g>
		<text transform="matrix(1 0 0 1 70.75 359.4121)"><tspan x="0" y="0" fill="#3E2723" font-family="'LibraSans'" font-size="26">LICENCES</tspan><tspan x="0" y="21.6" fill="#3E2723" font-family="'LibraSans'" font-size="18">OPEN SOURCE</tspan></text>
		<polygon fill="#5D4037" points="194.773,327.01 63.865,327.01 66.43,323.25 197.625,323.25 		"/>
		<path fill="#5D4037" d="M253.752,362.545"/>
	</g>
	<g>
		<g>
			<g>
				<g enable-background="new    ">
					<g enable-background="new    ">
						<defs>
							<path id="SVGID_5_" enable-background="new    " d="M975.699,549.598l-0.654,19.422c0.148,4.115-19.717,7.453-44.371,7.453
								s-44.76-3.338-44.908-7.453l0.654-19.422c0.148,4.113,20.254,7.453,44.908,7.453S975.848,553.711,975.699,549.598z"/>
						</defs>
						<clipPath id="SVGID_6_">
							<use xlink:href="#SVGID_5_"  overflow="visible"/>
						</clipPath>
						<g clip-path="url(#SVGID_6_)" enable-background="new    ">
							<path fill="#2D1E1B" d="M975.699,549.598l-0.654,19.422c0.002,0.066,0,0.131-0.008,0.193l0.654-19.422
								C975.699,549.727,975.701,549.662,975.699,549.598"/>
							<path fill="#2F1F1C" d="M975.691,549.791l-0.654,19.422c-0.012,0.092-0.031,0.184-0.063,0.273l0.654-19.422
								C975.66,549.975,975.68,549.883,975.691,549.791"/>
							<path fill="#30201D" d="M975.629,550.064l-0.654,19.422c-0.041,0.123-0.098,0.244-0.174,0.363l0.654-19.422
								C975.531,550.307,975.59,550.186,975.629,550.064"/>
							<path fill="#32211D" d="M975.455,550.428l-0.654,19.422c-0.141,0.225-0.344,0.447-0.602,0.666l0.654-19.422
								C975.113,550.875,975.314,550.652,975.455,550.428"/>
							<path fill="#33221E" d="M974.854,551.094l-0.654,19.422c-0.43,0.361-1.016,0.715-1.748,1.057l0.654-19.424
								C973.838,551.809,974.424,551.455,974.854,551.094"/>
							<path fill="#32211D" d="M973.105,552.148l-0.654,19.424c-1.375,0.639-3.262,1.238-5.578,1.783l0.654-19.422
								C969.846,553.389,971.73,552.789,973.105,552.148"/>
							<path fill="#30201D" d="M967.527,553.934l-0.654,19.422c-3.139,0.738-7.07,1.375-11.588,1.877l0.654-19.422
								C960.457,555.309,964.389,554.67,967.527,553.934"/>
							<path fill="#2F1F1C" d="M955.939,555.811l-0.654,19.422c-6.344,0.707-13.846,1.148-21.941,1.227l0.654-19.422
								C942.094,556.957,949.596,556.518,955.939,555.811"/>
							<path fill="#2D1E1B" d="M933.998,557.037l-0.654,19.422c-0.883,0.01-1.773,0.014-2.67,0.014
								c-7.469,0-14.52-0.307-20.725-0.848l0.654-19.422c6.205,0.541,13.256,0.848,20.725,0.848
								C932.225,557.051,933.115,557.047,933.998,557.037"/>
							<path fill="#2C1D1A" d="M910.604,556.203l-0.654,19.422c-5.033-0.439-9.508-1.033-13.201-1.744l0.656-19.422
								C901.096,555.17,905.572,555.764,910.604,556.203"/>
							<path fill="#2A1C19" d="M897.404,554.459l-0.656,19.422c-2.387-0.459-4.445-0.967-6.115-1.514l0.656-19.422
								C892.957,553.492,895.016,554,897.404,554.459"/>
							<path fill="#291B18" d="M891.289,552.945l-0.656,19.422c-3.072-1.006-4.824-2.143-4.867-3.348l0.654-19.422
								C886.463,550.801,888.215,551.939,891.289,552.945"/>
						</g>
					</g>
					<g>
						<path fill="#472F2A" d="M930.789,542.146c24.654,0,44.762,3.338,44.91,7.451s-19.717,7.453-44.371,7.453
							s-44.76-3.34-44.908-7.453S906.135,542.146,930.789,542.146z"/>
					</g>
				</g>
			</g>
		</g>
		<path fill="#3E2723" d="M932.9,125.074c0-1.977-1.604-3.578-3.58-3.578h-3.578c-1.977,0-3.58,1.602-3.58,3.578v422.301
			c0,1.977,1.604,3.58,3.58,3.58h3.578c1.977,0,3.58-1.604,3.58-3.58V125.074z"/>
		<g id="XMLID_8_">
			<g>
				<g enable-background="new    ">
					<g>
						<polygon fill="#A88654" points="1076.933,315.279 1073.743,313.779 1073.783,313.747 1076.973,315.247 						"/>
					</g>
					<g>
						<polygon fill="#AF7F39" points="940.919,334.65 937.73,333.15 1073.783,313.747 1076.973,315.247 						"/>
					</g>
				</g>
				<g enable-background="new    ">
					<g>
						<polygon fill="#A88654" points="1106.533,291.249 1103.344,289.749 1104.379,288.908 1107.568,290.408 						"/>
					</g>
					<g>
						<polygon fill="#A88654" points="1106.164,291.548 1102.975,290.048 1103.344,289.749 1106.533,291.249 						"/>
					</g>
					<g>
						<polygon fill="#A88654" points="1090.861,303.973 1087.672,302.473 1089.078,301.332 1092.267,302.832 						"/>
					</g>
					<g>
						<polygon fill="#826841" points="940.915,334.371 937.726,332.871 937.591,323.568 940.779,325.069 						"/>
					</g>
					<g>
						<polygon fill="#AF8C58" points="940.779,325.069 937.591,323.568 1087.672,302.473 1090.861,303.973 						"/>
					</g>
					<g>
						<polygon fill="#E1A349" points="1092.267,302.832 1090.861,303.973 940.779,325.069 940.766,324.127 						"/>
					</g>
					<g>
						<polygon fill="#825E2A" points="940.779,325.069 937.591,323.568 937.577,322.627 940.766,324.127 						"/>
					</g>
					<g>
						<polygon fill="#AF7F39" points="940.766,324.127 937.577,322.627 1089.078,301.332 1092.267,302.832 						"/>
					</g>
					<g>
						<polygon fill="#E1B471" points="940.631,314.816 1106.164,291.548 1106.533,291.249 1095.639,300.096 1076.973,315.247 
							940.915,334.371 940.779,325.069 1090.861,303.973 1092.267,302.832 940.766,324.127 						"/>
					</g>
					<g>
						<polygon fill="#AF8C58" points="940.631,314.816 937.441,313.316 1102.975,290.048 1106.164,291.548 						"/>
					</g>
					<g>
						<polygon fill="#826841" points="940.766,324.127 937.577,322.627 937.441,313.316 940.631,314.816 						"/>
					</g>
					<g>
						<polygon fill="#AF7F39" points="940.617,313.875 937.428,312.375 1104.379,288.908 1107.568,290.408 						"/>
					</g>
					<g>
						<polygon fill="#825E2A" points="940.631,314.816 937.441,313.316 937.428,312.375 940.617,313.875 						"/>
					</g>
					<g>
						<polygon fill="#E1A349" points="1106.533,291.249 1106.164,291.548 940.631,314.816 940.617,313.875 1107.568,290.408 						
							"/>
					</g>
				</g>
				<g enable-background="new    ">
					<g>
						<polygon fill="#826841" points="940.617,313.875 937.428,312.375 937.292,303.063 940.481,304.563 						"/>
					</g>
					<g>
						<polygon fill="#AF8C58" points="940.481,304.563 937.292,303.063 1104.496,279.561 1107.685,281.061 						"/>
					</g>
					<g>
						<polygon fill="#E1B471" points="1107.685,281.061 1114.686,284.628 1107.568,290.408 940.617,313.875 940.481,304.563 						
							"/>
					</g>
				</g>
				<g enable-background="new    ">
					<g>
						<polygon fill="#825E2A" points="940.481,304.563 937.292,303.063 937.278,302.122 940.468,303.622 						"/>
					</g>
					<g>
						<polygon fill="#AF7F39" points="940.468,303.622 937.278,302.122 1103.045,278.821 1106.234,280.321 						"/>
					</g>
					<g>
						<polygon fill="#E1A349" points="1106.234,280.321 1107.685,281.061 940.481,304.563 940.468,303.622 						"/>
					</g>
				</g>
				<g enable-background="new    ">
					<g>
						<polygon fill="#826841" points="940.468,303.622 937.278,302.122 937.143,292.811 940.332,294.311 						"/>
					</g>
					<g>
						<polygon fill="#AF8C58" points="940.332,294.311 937.143,292.811 1088.695,271.508 1091.885,273.008 						"/>
					</g>
					<g>
						<polygon fill="#E1B471" points="1095.204,274.699 1106.234,280.321 940.468,303.622 940.332,294.311 1091.885,273.008 						
							"/>
					</g>
					<g>
						<polygon fill="#825E2A" points="940.332,294.311 937.143,292.811 937.129,291.869 940.318,293.369 						"/>
					</g>
					<g>
						<polygon fill="#AF7F39" points="940.318,293.369 937.129,291.869 1087.244,270.769 1090.434,272.269 						"/>
					</g>
					<g>
						<polygon fill="#E1A349" points="1090.434,272.269 1091.885,273.008 940.332,294.311 940.318,293.369 						"/>
					</g>
				</g>
				<g enable-background="new    ">
					<g>
						<polygon fill="#826841" points="940.318,293.369 937.129,291.869 936.994,282.567 940.183,284.067 						"/>
					</g>
					<g>
						<polygon fill="#AF8C58" points="940.183,284.067 936.994,282.567 1073.011,263.448 1076.2,264.948 						"/>
					</g>
					<g>
						<polygon fill="#AF7F39" points="940.183,284.067 936.994,282.567 1073.007,263.195 1076.196,264.695 						"/>
					</g>
					<g>
						<polygon fill="#E1B471" points="1076.2,264.948 1090.434,272.269 940.318,293.369 940.183,284.067 						"/>
					</g>
				</g>
			</g>
		</g>
		<g>
			<g>
				<g enable-background="new    ">
					<g>
						<rect x="912.471" y="239.057" fill="#2F201C" width="9.242" height="0.873"/>
					</g>
					<g>
						<rect x="912.471" y="224.443" fill="#513830" width="9.242" height="14.613"/>
					</g>
				</g>
			</g>
		</g>
		<path fill="#5D4037" d="M934.242,235.613c0,1.977-1.604,3.578-3.58,3.578H924.4c-1.977,0-3.58-1.602-3.58-3.578v-8.65
			c0-1.977,1.604-3.58,3.58-3.58h6.262c1.977,0,3.58,1.604,3.58,3.58V235.613z"/>
		<g id="XMLID_9_">
			<g>
				<g>
					<polygon fill="#805D2A" points="912.235,210.638 908.305,212.219 772.274,207.702 776.205,206.121 					"/>
				</g>
				<g enable-background="new    ">
					<g>
						<polygon fill="#806640" points="912.694,219.803 908.765,221.384 758.63,216.136 762.561,214.554 						"/>
					</g>
					<g>
						<polygon fill="#846942" points="762.561,214.554 758.63,216.136 772.278,207.773 776.209,206.192 						"/>
					</g>
					<g>
						<polygon fill="#F8C67D" points="776.209,206.192 912.247,210.877 912.694,219.803 762.561,214.554 						"/>
					</g>
				</g>
				<g enable-background="new    ">
					<g>
						<polygon fill="#84602B" points="761.169,215.407 757.238,216.988 758.631,216.136 762.561,214.554 						"/>
					</g>
					<g>
						<polygon fill="#805D2A" points="912.74,220.706 908.81,222.287 757.238,216.988 761.169,215.407 						"/>
					</g>
					<g>
						<polygon fill="#F8B451" points="761.169,215.407 762.561,214.554 912.694,219.803 912.74,220.706 						"/>
					</g>
				</g>
				<g enable-background="new    ">
					<g>
						<polygon fill="#846942" points="757.975,217.364 754.044,218.946 757.237,216.988 761.168,215.407 						"/>
					</g>
					<g>
						<polygon fill="#806640" points="913.188,229.641 909.257,231.222 743.459,225.426 747.39,223.845 						"/>
					</g>
					<g>
						<polygon fill="#846942" points="747.39,223.845 743.459,225.426 754.044,218.946 757.975,217.364 						"/>
					</g>
					<g>
						<polygon fill="#F8C67D" points="757.975,217.364 761.168,215.407 912.74,220.706 913.188,229.641 747.39,223.845 						"/>
					</g>
				</g>
				<g enable-background="new    ">
					<g>
						<polygon fill="#84602B" points="745.997,224.697 742.067,226.279 743.46,225.426 747.391,223.845 						"/>
					</g>
					<g>
						<polygon fill="#805D2A" points="913.232,230.544 909.303,232.125 742.067,226.279 745.997,224.697 						"/>
					</g>
					<g>
						<polygon fill="#F8B451" points="745.997,224.697 747.391,223.845 913.188,229.641 913.232,230.544 						"/>
					</g>
				</g>
				<g enable-background="new    ">
					<g>
						<polygon fill="#806640" points="913.681,239.479 909.75,241.06 742.769,235.223 746.699,233.641 						"/>
					</g>
					<g>
						<polygon fill="#846942" points="739.277,228.812 735.347,230.393 742.066,226.279 745.996,224.697 						"/>
					</g>
					<g>
						<polygon fill="#806640" points="746.699,233.641 742.769,235.223 735.347,230.393 739.277,228.812 						"/>
					</g>
					<g>
						<polygon fill="#F8C67D" points="739.277,228.812 745.996,224.697 913.232,230.544 913.681,239.479 746.699,233.641 						"/>
					</g>
				</g>
				<g enable-background="new    ">
					<g>
						<polygon fill="#806640" points="914.173,249.308 910.242,250.89 758.703,245.592 762.634,244.011 						"/>
					</g>
					<g>
						<polygon fill="#806640" points="762.634,244.011 758.703,245.592 755.2,243.312 759.131,241.731 						"/>
					</g>
					<g>
						<polygon fill="#805D2A" points="913.726,240.382 909.795,241.963 744.232,236.175 748.163,234.594 						"/>
					</g>
					<g>
						<polygon fill="#806640" points="759.131,241.731 755.2,243.312 744.232,236.175 748.163,234.594 						"/>
					</g>
					<g>
						<polygon fill="#F8C67D" points="762.634,244.011 759.131,241.731 748.163,234.594 913.726,240.382 914.173,249.308 						"/>
					</g>
					<g>
						<polygon fill="#805D2A" points="748.163,234.594 744.232,236.175 742.769,235.223 746.699,233.641 						"/>
					</g>
					<g>
						<polygon fill="#F8B451" points="748.163,234.594 746.699,233.641 913.681,239.479 913.726,240.382 						"/>
					</g>
					<g>
						<polygon fill="#806640" points="748.163,234.594 744.232,236.175 742.769,235.223 746.699,233.641 						"/>
					</g>
				</g>
				<g enable-background="new    ">
					<g>
						<polygon fill="#806640" points="774.694,255.998 774.651,255.97 774.652,255.97 						"/>
					</g>
					<g>
						<polygon fill="#806640" points="914.666,259.146 910.735,260.728 774.652,255.97 778.582,254.389 						"/>
					</g>
					<g>
						<polygon fill="#806640" points="778.625,254.417 774.694,255.998 774.652,255.97 778.582,254.389 						"/>
					</g>
					<g>
						
							<rect x="774.499" y="255.179" transform="matrix(0.9277 -0.3734 0.3734 0.9277 -39.1141 308.4082)" fill="#806640" width="4.236" height="0.001"/>
					</g>
					<g>
						<polygon fill="#805D2A" points="914.666,259.146 910.735,260.728 774.707,256.237 778.637,254.656 						"/>
					</g>
					<g>
						<polygon fill="#805D2A" points="914.218,250.211 910.288,251.792 760.167,246.544 764.098,244.963 						"/>
					</g>
					<g>
						<polygon fill="#806640" points="778.582,254.389 774.652,255.97 760.167,246.544 764.098,244.963 						"/>
					</g>
					<g>
						<polygon fill="#F8C67D" points="914.666,259.146 778.582,254.389 764.098,244.963 914.218,250.211 						"/>
					</g>
					<g>
						<polygon fill="#805D2A" points="764.098,244.963 760.167,246.544 758.703,245.592 762.634,244.011 						"/>
					</g>
					<g>
						<polygon fill="#806640" points="764.097,244.963 760.166,246.544 758.703,245.592 762.634,244.011 						"/>
					</g>
					<g>
						<polygon fill="#F8B451" points="764.098,244.963 762.634,244.011 914.173,249.308 914.218,250.211 						"/>
					</g>
				</g>
			</g>
		</g>
		<g>
			<g>
				<g>
					<polygon fill="#C38D3F" points="794.938,394.478 799.052,393.759 919.295,406.098 915.181,406.816 					"/>
				</g>
				<g enable-background="new    ">
					<g>
						<polygon fill="#EEBE78" points="766.986,369.706 771.101,368.987 772.389,370.117 768.274,370.837 						"/>
					</g>
					<g>
						<polygon fill="#EEBF78" points="780.946,381.949 785.061,381.23 786.336,382.35 782.222,383.068 						"/>
					</g>
					<g>
						<polygon fill="#C39C62" points="782.223,383.069 786.337,382.351 919.029,396.289 914.915,397.008 						"/>
					</g>
					<g>
						<polygon fill="#F0C079" points="914.915,397.008 919.029,396.289 919.295,406.098 915.181,406.816 						"/>
					</g>
					<g>
						<polygon fill="#C29B61" points="794.885,394.18 782.223,383.069 914.915,397.008 915.181,406.816 						"/>
					</g>
					<g>
						<polygon fill="#F0AE4E" points="914.888,396.019 919.002,395.3 919.029,396.289 914.915,397.008 						"/>
					</g>
					<g>
						<polygon fill="#C28C3F" points="782.223,383.069 780.946,381.949 914.888,396.019 914.915,397.008 						"/>
					</g>
					<g>
						<polygon fill="#C38D3F" points="780.946,381.949 785.061,381.23 919.002,395.3 914.888,396.019 						"/>
					</g>
					<g>
						<polygon fill="#C39C62" points="768.275,370.837 772.39,370.118 918.736,385.491 914.623,386.21 						"/>
					</g>
					<g>
						<polygon fill="#C29B61" points="780.946,381.949 777.875,379.254 768.275,370.837 914.623,386.21 914.888,396.019 						"/>
					</g>
					<g>
						<polygon fill="#F0C079" points="914.623,386.21 918.736,385.491 919.002,395.3 914.888,396.019 						"/>
					</g>
					<g>
						<polygon fill="#C28C3F" points="768.275,370.837 766.986,369.706 914.596,385.212 914.623,386.21 						"/>
					</g>
					<g>
						<polygon fill="#C38D3F" points="766.986,369.706 771.101,368.987 918.71,384.493 914.596,385.212 						"/>
					</g>
					<g>
						<polygon fill="#F0AE4E" points="914.596,385.212 918.71,384.493 918.736,385.491 914.623,386.21 						"/>
					</g>
					<g>
						<polygon fill="#C39C62" points="766.517,359.876 770.631,359.157 918.444,374.685 914.33,375.403 						"/>
					</g>
					<g>
						<polygon fill="#C29B61" points="760.505,364.023 766.517,359.876 914.33,375.403 914.596,385.212 766.986,369.706 						"/>
					</g>
					<g>
						<polygon fill="#F0C079" points="914.33,375.403 918.444,374.685 918.71,384.493 914.596,385.212 						"/>
					</g>
				</g>
				<g enable-background="new    ">
					<g>
						<polygon fill="#C38D3F" points="767.757,359.02 771.871,358.301 918.417,373.695 914.303,374.414 						"/>
					</g>
					<g>
						<polygon fill="#F0AE4E" points="914.303,374.414 918.417,373.695 918.444,374.685 914.33,375.403 						"/>
					</g>
					<g>
						<polygon fill="#C28C3F" points="766.517,359.876 767.757,359.02 914.303,374.414 914.33,375.403 						"/>
					</g>
				</g>
				<g enable-background="new    ">
					<g>
						<polygon fill="#C39C62" points="780.058,350.531 784.172,349.812 918.152,363.887 914.038,364.605 						"/>
					</g>
					<g>
						<polygon fill="#F0C079" points="914.038,364.605 918.152,363.887 918.417,373.695 914.303,374.414 						"/>
					</g>
					<g>
						<polygon fill="#C29B61" points="777.209,352.497 780.058,350.531 914.038,364.605 914.303,374.414 767.757,359.02 						"/>
					</g>
				</g>
				<g enable-background="new    ">
					<g>
						<polygon fill="#C28C3F" points="780.587,350.165 781.298,349.675 914.011,363.616 914.038,364.605 780.058,350.531 						"/>
					</g>
					<g>
						<polygon fill="#F0AE4E" points="914.011,363.616 918.125,362.897 918.152,363.887 914.038,364.605 						"/>
					</g>
					<g>
						<polygon fill="#C38D3F" points="781.298,349.675 785.412,348.956 918.125,362.897 914.011,363.616 						"/>
					</g>
					<g>
						<polygon fill="#F0C079" points="913.745,353.807 917.859,353.088 918.125,362.897 914.011,363.616 						"/>
					</g>
					<g>
						<polygon fill="#C39C62" points="793.496,341.255 797.61,340.537 917.859,353.088 913.745,353.807 						"/>
					</g>
					<g>
						<polygon fill="#C29B61" points="793.496,341.255 913.745,353.807 914.011,363.616 781.298,349.675 						"/>
					</g>
					<g>
						<polygon fill="#C38D3F" points="793.494,341.175 797.608,340.456 917.853,352.821 913.738,353.54 						"/>
					</g>
				</g>
			</g>
		</g>
		<path fill="#5D4037" d="M934.242,309.74c0,1.977-1.604,3.578-3.58,3.578H924.4c-1.977,0-3.58-1.602-3.58-3.578v-8.65
			c0-1.977,1.604-3.58,3.58-3.58h6.262c1.977,0,3.58,1.604,3.58,3.58V309.74z"/>
		<g>
			<g>
				<g enable-background="new    ">
					<g>
						<rect x="932.9" y="312.883" fill="#2F201C" width="9.242" height="0.873"/>
					</g>
					<g>
						<rect x="932.9" y="298.27" fill="#513830" width="9.242" height="14.613"/>
					</g>
				</g>
			</g>
		</g>
		<path fill="#5D4037" d="M934.307,383.891c0,1.977-1.602,3.58-3.578,3.58h-6.264c-1.977,0-3.58-1.604-3.58-3.58v-8.648
			c0-1.977,1.604-3.578,3.58-3.578h6.264c1.977,0,3.578,1.602,3.578,3.578V383.891z"/>
		<g>
			<g>
				<g enable-background="new    ">
					<g>
						<rect x="912.912" y="386.432" fill="#2F201C" width="9.252" height="0.873"/>
					</g>
					<g>
						<rect x="912.912" y="371.826" fill="#513830" width="9.252" height="14.605"/>
					</g>
				</g>
			</g>
		</g>
		<text transform="matrix(1.0013 -0.1342 0.0112 0.9999 948.9004 304.3154)"><tspan x="0" y="0" fill="#6D4C41" font-family="'LibraSans'" font-size="21.4749">CREATIVE</tspan><tspan x="0" y="20.58" fill="#6D4C41" font-family="'LibraSans'" font-size="21.4749">COMMONS</tspan></text>
		<text transform="matrix(1 0.1051 0 1 849.8252 385.0967)" fill="#6D4C41" font-family="'LibraSans'" font-size="31.3176">MIT</text>
		<text transform="matrix(1 0.0349 0 1 840.5889 244.189)" fill="#6D4C41" font-family="'LibraSans'" font-size="31.3176">GPL</text>
		<g id="XMLID_2_">
			<g>
				<g>
					<polygon fill="#805D2A" points="1087.179,139.766 1087.483,141.943 939.124,142.188 938.819,140.011 					"/>
				</g>
				<g enable-background="new    ">
					<g>
						<polygon fill="#806640" points="1102.467,148.953 1102.771,151.13 939.047,151.13 938.741,148.953 						"/>
					</g>
					<g>
						<polygon fill="#E5B773" points="1087.176,140.011 1102.467,148.953 938.741,148.953 938.819,140.011 						"/>
					</g>
				</g>
				<g enable-background="new    ">
					<g>
						<polygon fill="#805D2A" points="1104.031,149.861 1104.336,152.039 939.039,152.039 938.733,149.861 						"/>
					</g>
					<g>
						<polygon fill="#E5A64A" points="1102.467,148.953 1104.031,149.861 938.733,149.861 938.741,148.953 						"/>
					</g>
				</g>
				<g enable-background="new    ">
					<g>
						<polygon fill="#E5B773" points="1107.599,151.931 1119.454,158.812 938.656,158.812 938.733,149.861 1104.031,149.861 						
							"/>
					</g>
					<g>
						<polygon fill="#806640" points="1119.454,158.812 1119.759,160.989 938.961,160.989 938.656,158.812 						"/>
					</g>
					<g>
						<polygon fill="#805D2A" points="1121.018,159.721 1121.323,161.897 938.953,161.897 938.648,159.721 						"/>
					</g>
					<g>
						<polygon fill="#E5A64A" points="1119.453,158.812 1121.018,159.721 938.648,159.721 938.656,158.812 						"/>
					</g>
					<g>
						<polygon fill="#E5B773" points="1121.019,159.721 1128.541,164.087 1120.678,168.663 938.571,168.663 938.648,159.721 						
							"/>
					</g>
					<g>
						<polygon fill="#806640" points="1120.678,168.663 1120.982,170.84 938.876,170.84 938.571,168.663 						"/>
					</g>
					<g>
						<polygon fill="#856A43" points="1128.541,164.087 1128.846,166.264 1120.982,170.84 1120.678,168.663 						"/>
					</g>
					<g>
						<polygon fill="#85602B" points="1120.678,168.663 1120.982,170.84 1119.422,171.749 1119.117,169.571 						"/>
					</g>
					<g>
						<polygon fill="#856A43" points="1120.679,168.663 1120.983,170.84 1119.422,171.749 1119.117,169.571 						"/>
					</g>
					<g>
						<polygon fill="#E5A64A" points="1120.678,168.663 1119.117,169.571 938.563,169.571 938.571,168.663 						"/>
					</g>
					<g>
						<polygon fill="#805D2A" points="1119.117,169.571 1119.422,171.749 938.868,171.749 938.563,169.571 						"/>
					</g>
					<g>
						<polygon fill="#856A43" points="1119.117,169.571 1119.422,171.749 1107.764,178.533 1107.459,176.356 						"/>
					</g>
					<g>
						<polygon fill="#E5B773" points="938.485,178.522 938.563,169.571 1119.117,169.571 1107.459,176.356 1103.736,178.522 						
							"/>
					</g>
					<g>
						<polygon fill="#806640" points="1103.736,178.522 1104.041,180.699 938.791,180.699 938.485,178.522 						"/>
					</g>
					<g>
						<polygon fill="#856A43" points="1107.459,176.356 1107.764,178.533 1104.041,180.699 1103.736,178.522 						"/>
					</g>
				</g>
				<g enable-background="new    ">
					<g>
						<polygon fill="#85602B" points="1103.736,178.522 1104.041,180.699 1102.955,181.331 1102.649,179.154 						"/>
					</g>
					<g>
						<polygon fill="#856A43" points="1103.736,178.522 1104.041,180.699 1102.955,181.331 1102.649,179.154 						"/>
					</g>
					<g>
						<polygon fill="#85602B" points="1102.649,179.154 1102.955,181.331 1102.494,181.599 1102.189,179.422 						"/>
					</g>
					<g>
						<polygon fill="#805D2A" points="1102.189,179.422 1102.494,181.599 938.783,181.599 938.478,179.422 						"/>
					</g>
					<g>
						<polygon fill="#E5A64A" points="1102.649,179.154 1102.189,179.422 938.478,179.422 938.485,178.522 1103.736,178.522 						
							"/>
					</g>
					<g>
						<polygon fill="#806640" points="938.705,190.55 938.4,188.373 1073.375,188.396 1073.686,190.573 						"/>
					</g>
					<g>
						<polygon fill="#805D2A" points="1086.801,188.373 1087.106,190.55 938.703,190.812 938.398,188.635 						"/>
					</g>
					<g>
						<polygon fill="#856A43" points="1102.649,179.154 1102.955,181.331 1087.063,190.576 1086.758,188.399 						"/>
					</g>
					<g>
						<polygon fill="#E5B773" points="938.478,179.422 1102.189,179.422 1102.649,179.154 1086.758,188.399 938.4,188.373 						"/>
					</g>
					<g>
						<polygon fill="#806640" points="1086.758,188.399 1087.063,190.576 1073.686,190.573 1073.375,188.396 						"/>
					</g>
				</g>
			</g>
		</g>
		<g>
			<g>
				<g enable-background="new    ">
					<g>
						<rect x="933.404" y="172.395" fill="#2F201C" width="9.242" height="0.871"/>
					</g>
					<g>
						<rect x="933.404" y="157.779" fill="#513830" width="9.242" height="14.615"/>
					</g>
				</g>
			</g>
		</g>
		<path fill="#5D4037" d="M934.242,169.846c0,1.977-1.604,3.58-3.58,3.58H924.4c-1.977,0-3.58-1.604-3.58-3.58v-8.65
			c0-1.977,1.604-3.578,3.58-3.578h6.262c1.977,0,3.58,1.602,3.58,3.578V169.846z"/>
		<text transform="matrix(1 0 0 1 950.667 176.4248)" fill="#6D4C41" font-family="'LibraSans'" font-size="30">APACHE</text>
	</g>
	<text transform="matrix(1 0 0 1 620.9463 434.167)" font-family="'LibraSans'" font-size="25">?!</text>
	
		<use xlink:href="#Nouveau_symbole"  width="198.053" height="213.439" id="XMLID_1_" x="-97.57" y="-104.191" transform="matrix(0.7916 0 0 -0.7916 649.2471 537.2051)" overflow="visible"/>
</g>
</svg>
