<?xml version="1.0" encoding="utf-8"?>
<!-- Generator: Adobe Illustrator 16.0.0, SVG Export Plug-In . SVG Version: 6.00 Build 0)  -->
<!DOCTYPE svg PUBLIC "-//W3C//DTD SVG 1.1//EN" "http://www.w3.org/Graphics/SVG/1.1/DTD/svg11.dtd">
<svg version="1.1" id="Calque_1" xmlns="http://www.w3.org/2000/svg" xmlns:xlink="http://www.w3.org/1999/xlink" x="0px" y="0px"
	 width="360px" height="640px" viewBox="270 163.074 360 640" enable-background="new 270 163.074 360 640" xml:space="preserve">
<symbol  id="Nouveau_symbole" viewBox="-99.027 -106.72 198.054 213.441">
	<path d="M-96.453-36.418c5.69-4.524,18.976,2.71,29.674,16.16c10.699,13.45,14.76,28.021,9.07,32.549S-76.686,9.582-87.382-3.868
		C-98.082-17.319-102.143-31.891-96.453-36.418z"/>
	<path d="M-33.391-83.41c2.83-2.955-0.033-10.293-6.397-16.389c-6.363-6.099-13.816-8.646-16.646-5.688
		c-2.831,2.955,0.033,10.292,6.396,16.39C-43.674-83.003-36.222-80.455-33.391-83.41z"/>
	<path d="M70.408-47.737c1.918,3.615,9.783,3.199,17.566-0.928c7.787-4.13,12.545-10.406,10.629-14.021
		c-1.916-3.616-9.783-3.2-17.566,0.929C73.25-57.629,68.489-51.352,70.408-47.737z"/>
	<path d="M97.887,13.988c3.217,6.521-6.666,17.972-22.074,25.58c-15.414,7.607-30.516,8.491-33.732,1.975
		c-3.221-6.521,6.664-17.973,22.076-25.58C79.565,8.353,94.666,7.47,97.887,13.988z"/>
	<polygon points="-13.995,91.904 -17.492,99.442 -13.995,95.673 -13.995,106.721 -11.158,97.104 -8.014,100.744 -10.6,96.064 
		-8.014,95.544 -9.576,91.904 	"/>
	<path d="M-62.188-53.842c-8.379,36.403,17.141,73.354,56.999,82.528c39.859,9.178,78.965-12.894,87.344-49.3
		c2.305-10.006,2.033-20.05-0.381-29.55c6.174,11.495,9.109,23.835,6.816,36.998c-2.301,13.203-8.92,24.761-18.504,33.916
		c0.377,5.478,0.127,11.071-0.855,16.705c-6.825,39.155-45.384,65.138-86.129,58.035c-40.747-7.101-68.245-44.594-61.419-83.75
		c0.981-5.633,2.639-10.979,4.848-16.008c-5.924-11.857-8.242-24.976-5.942-38.179c3.236-18.569,15.019-33.895,31.586-43.834
		c2.332-1.396,5.893-3.062,10.21-4.549C-49.735-81.849-58.672-69.114-62.188-53.842z"/>
	<path fill="#FFFFFF" d="M-8.144-94.416c50.872,4.55,57.401,11.235,68.835,17.242c11.434,6.008,15.93,17.412,21.082,27.012
		c2.414,9.5,2.686,19.544,0.381,29.55C73.775,15.794,34.67,37.864-5.19,28.688c-39.858-9.174-65.378-46.122-56.999-82.527
		c3.517-15.271,12.453-28.007,24.572-36.983C-29.445-93.642-18.562-95.831-8.144-94.416z"/>
	<path fill="#FFFFFF" d="M4.181,60.707C8.945,40.004-1.238,19.989-18.567,16c-17.328-3.989-35.239,9.559-40.005,30.262
		c-4.766,20.703,5.42,40.722,22.747,44.708C-18.497,94.958-0.586,81.411,4.181,60.707z"/>
	<path fill="#FFFFFF" d="M42.416,74.381c7.238-19.972,0.34-40.787-15.407-46.499c-15.746-5.708-34.383,5.854-41.623,25.825
		c-7.239,19.974-0.343,40.792,15.405,46.5C16.541,105.915,35.175,94.353,42.416,74.381z"/>
	<polygon fill="#FFFFFF" points="31.453,13.651 -22.113,13.651 -22.113,48.907 31.453,48.907 	"/>
	<path fill="#FFFFFF" stroke="#000000" stroke-width="0.25" stroke-miterlimit="10" d="M-11.478,84.724
		c5.978-15.632,2.479-31.497-7.816-35.432c-15.248-4.352-26.57,15.011-26.57,15.011s-1.338,2.146-1.729,4.043
		C-49.87,79.383-45.65,106.5-31.159,106.01C-23.378,103.588-15.663,95.664-11.478,84.724z"/>
	<path d="M-22.647,93.286c0.767-2.44-0.201-4.916-2.158-5.532c-1.961-0.616-4.171,0.858-4.939,3.298
		c-0.766,2.438,0.201,4.914,2.16,5.529C-25.626,97.196-23.415,95.721-22.647,93.286z"/>
	<path fill="#FFFFFF" stroke="#000000" stroke-width="0.25" stroke-miterlimit="10" d="M19.44,80.107
		c2.703-10.369-0.658-20.225-7.508-22.01C5.081,56.31-2.664,63.268-5.371,73.637c-1.964,7.527-1.232,15.607,2.713,18.876
		C1.287,95.781,16.732,90.481,19.44,80.107z"/>
	<path d="M10.214,87.181c0.53-2.127-0.423-4.195-2.132-4.624c-1.709-0.428-3.526,0.949-4.059,3.076
		c-0.529,2.124,0.424,4.196,2.133,4.623C7.866,90.684,9.683,89.306,10.214,87.181z"/>
	<path d="M2.417,40.971l7.565,6.917c0,0-11.355-1.021-16.117-5.178C-5.06,41.982,2.417,40.971,2.417,40.971z"/>
</symbol>
<rect x="-312.281" y="146.361" fill="#2E7D32" width="1300.02" height="841.463"/>
<path fill="#7CB342" d="M1507.38,842.992c0,0-263.949-539.686-571.72,0"/>
<g>
	<path fill="#689F38" d="M-7.518,839.922c60.954,14.438,123.511,8.02,187.673,11.229c70.578,3.209,142.76,11.229,211.734,28.873
		c17.645,4.813,36.893,14.436,54.538,8.02c-40.101-64.162-51.33-136.344-113.887-187.672
		c-43.31-33.686-102.659-59.35-150.781-83.412c-73.786-35.289-182.861-68.973-264.667-59.35c0,0-357.702,25.193-439.508,258.818"/>
</g>
<g>
	<path fill="#7CB342" d="M504.063,729.385c11.229-40.1,68.975-62.557,104.264-75.389c57.745-17.645,115.491-19.25,174.841-17.645
		c60.954,1.604,136.344,16.039,189.277,46.518c33.685,19.248,91.431,81.805,91.431,123.514c-27.269,8.02-60.954,1.604-88.223-1.605
		c-44.913-4.811-89.826-8.02-136.344-8.02c-78.599,0-162.009,1.604-240.607-4.813c-22.456-1.604-157.196-30.477-101.055-65.766"/>
</g>
<g>
	<path fill="#689F38" d="M494.549,817.465c49.725-19.248,96.242-48.121,145.968-64.162c91.431-30.477,190.881-41.705,285.52-49.725
		c83.41-8.02,199.776-15.1,258.251-1.604c58.473,13.496,115.491,99.451,104.263,125.115c-20.853,46.518-28.873,76.994-85.015,81.807
		c-112.283,8.02-224.566-9.625-336.849-16.041c-73.786-4.813-149.177-3.207-221.358-17.645
		c-30.477-6.416-57.746-24.061-86.619-32.08c-40.101-12.834-33.685-27.27,1.604-48.121"/>
</g>
<g>
	<path fill="#558B2F" d="M164.115,807.842c24.061-12.832,41.705-38.498,65.766-52.934c43.309-27.27,96.243-44.914,145.968-56.143
		c80.202-19.248,178.049-22.457,258.251-4.813c97.847,19.25,242.21,64.162,301.56,150.781
		c-48.121,14.436-109.075-1.604-158.801-6.416c-52.934-3.209-105.867-1.604-158.801-1.604c-83.41-1.605-170.028-3.209-253.438-8.021
		c-44.914-1.604-88.222-3.207-134.739-8.02c-17.645-1.604-54.538,1.604-64.162-14.438"/>
</g>
<rect x="-327.669" y="738.512" fill="#FFECB3" width="1300.02" height="126.956"/>
<g>
	<g>
		<path fill="#FFE082" d="M725.795,815.363c-1.948-2.816-4.797-5.146-7.381-7.363c-0.73-0.627-2.795,0.439-1.808,1.287
			c2.477,2.123,5.19,4.371,7.055,7.07C724.223,817.172,726.451,816.313,725.795,815.363L725.795,815.363z"/>
	</g>
</g>
<g>
	<g>
		<g>
			<g enable-background="new    ">
				<g>
					<polygon fill="#2F201C" points="485.24,682.637 485.128,682.543 485.127,680.443 485.239,680.539 					"/>
				</g>
				<g>
					<polygon fill="#392722" points="485.239,680.539 485.127,680.443 486.385,680.42 486.497,680.518 					"/>
				</g>
				<g>
					<polygon fill="#513830" points="486.497,680.518 486.498,682.617 485.24,682.637 485.239,680.539 					"/>
				</g>
			</g>
		</g>
	</g>
	<circle fill="#EF6C00" cx="486.491" cy="681.532" r="0.093"/>
	<text transform="matrix(1 0 0 1 485.4619 681.248)" fill="#FFD54F" font-family="'LibraSans'" font-size="0.4741">MIT</text>
	
		<text transform="matrix(0.9999 0.0126 -0.0126 0.9999 485.5332 681.9092)" fill="#FDD835" font-family="'LibraSans'" font-size="0.1943">Simple</text>
	
		<text transform="matrix(0.9999 0.0126 -0.0126 0.9999 485.3467 682.1396)" fill="#FDD835" font-family="'LibraSans'" font-size="0.1943">&amp; permissif</text>
</g>
<text transform="matrix(1 0 0 1 564.7373 572.6914)" font-family="'LibraSans'" font-size="42.6146">?!</text>
<g opacity="0.2">
</g>
<ellipse transform="matrix(0.9555 0.295 -0.295 0.9555 270.1887 -117.4308)" opacity="0.5" fill="#BCAAA4" cx="524.344" cy="836.883" rx="127.004" ry="24.653"/>
<use xlink:href="#Nouveau_symbole"  width="198.054" height="213.441" id="XMLID_1_" x="-99.027" y="-106.72" transform="matrix(-1.3494 0 0 -1.3494 549.8877 729.4277)" overflow="visible"/>
</svg>
