<?xml version="1.0" encoding="utf-8"?>
<!-- Generator: Adobe Illustrator 16.0.0, SVG Export Plug-In . SVG Version: 6.00 Build 0)  -->
<!DOCTYPE svg PUBLIC "-//W3C//DTD SVG 1.1//EN" "http://www.w3.org/Graphics/SVG/1.1/DTD/svg11.dtd">
<svg version="1.1" id="Calque_1" xmlns="http://www.w3.org/2000/svg" xmlns:xlink="http://www.w3.org/1999/xlink" x="0px" y="0px"
	 width="300px" height="190px" viewBox="0 0 300 190" enable-background="new 0 0 300 190" xml:space="preserve">
<g>
	<path opacity="0.3" fill="#D7CCC8" enable-background="new    " d="M58.598,79.759c0,0-52.354,19.753-52.502,26.777
		s8.075,9.131,13.595-3.835c0,0,4.834,0.395,5.566-1.702c0.733-2.097,117.728,29.658,141.946,61.646
		c1.781,18.525,11.466,14.76,14.251,10.81c2.785-3.949-13.04-11.136-13.04-11.136s43.646-40.08,111.584-89.074
		c4.157,2.926,7.577,9.516,12.6,1.733c5.021-7.783-22.5-3.084-22.5-3.084L58.598,79.759z"/>
	<g>
		<path fill="#B71C1C" d="M165.749,159.739c0,0,6.258,20.884,13.274,16.427C186.042,171.71,177.667,166.21,165.749,159.739z"/>
		<path fill="#E53935" d="M22.499,92.625c0,0,65.028-73.173,137.699-61.283c72.671,11.892,120.675,41.16,120.675,41.16
			s-111.385,51.219-113.079,81.404C122.196,91.709,22.499,92.625,22.499,92.625z"/>
		<path fill="#E53935" d="M22.499,96.814c0,0,65.028-73.173,137.699-61.282c41.489,6.789,74.938,19.242,96.007,28.679
			c15.831,7.091-86.717,63.701-88.411,93.885C122.196,95.898,22.499,96.814,22.499,96.814z"/>
		<path fill="#C62828" d="M22.499,99.316v-7.301c0,0,99.786,0.617,145.295,61.279c14.408-34.463,69.914-59.314,113.079-81.402
			c-41.348,31.083-80.377,54.256-113.919,85.592C122.442,114.563,22.499,99.316,22.499,99.316z"/>
		<path fill="#B71C1C" d="M25.258,97.943c0,1.349-1.091,2.438-2.438,2.438h-0.69c-1.347,0-2.439-1.09-2.439-2.438v-3.534
			c0-1.347,1.092-2.438,2.439-2.438h0.689c1.347,0,2.438,1.092,2.438,2.438L25.258,97.943L25.258,97.943z"/>
		<path fill="#B71C1C" d="M22.499,94.438c0,0-20.506,7.396-15.669,14.16C11.666,115.359,16.696,106.695,22.499,94.438z"/>
		<path fill="#B71C1C" d="M170.854,159.879c0,1.348-1.09,2.439-2.438,2.439h-0.689c-1.347,0-2.438-1.094-2.438-2.439v-3.533
			c0-1.347,1.092-2.438,2.438-2.438h0.689c1.348,0,2.438,1.093,2.438,2.438V159.879z"/>
		<path fill="#B71C1C" d="M280.059,70.58c0.646,0.016,1.154,0.549,1.141,1.195l-0.008,0.328c-0.015,0.646-0.549,1.155-1.191,1.14
			l-1.689-0.039c-0.646-0.014-1.156-0.549-1.143-1.194l0.008-0.33c0.016-0.644,0.551-1.154,1.194-1.138L280.059,70.58z"/>
		<path fill="#B71C1C" d="M279.184,72.035c0,0,12.533,7.288,13.91,1.934C294.475,68.614,287.909,69.754,279.184,72.035z"/>
	</g>
	<path fill="none" stroke="#C62828" stroke-miterlimit="10" d="M104.697,99.139c33.406-8.758,80.351,5.051,80.351,5.051"/>
	<path fill="none" stroke="#C62828" stroke-miterlimit="10" d="M89.642,67.114c0,0,9.729-0.22,15.668,9.952"/>
	<path fill="none" stroke="#C62828" stroke-miterlimit="10" d="M87.018,74.954c11.368-5.667,19.744,2.112,19.744,2.112"/>
	<path fill="none" stroke="#C62828" stroke-miterlimit="10" d="M199.498,46.225c0,0-11.553-3.319-17.743,7.356"/>
	<path fill="none" stroke="#C62828" stroke-miterlimit="10" d="M206.221,68.776c-15.046-3.498-19.586,6.178-19.586,6.178"/>
	<path fill="none" stroke="#C62828" stroke-miterlimit="10" d="M206.221,86.897c-12.576-8.878-25.607-5.108-25.607-5.108"/>
	<path fill="none" stroke="#C62828" stroke-miterlimit="10" d="M102.536,43.86c5.721-0.299,7.566,5.025,7.566,5.025"/>
	<path opacity="0.9" fill="#B71C1C" enable-background="new    " d="M111.542,34.226c0,0-7.61,6.333-5.222,16.285
		c2.386,9.952-15.408,17.502-15.408,17.502s4.406,5.504,10.315,2.118c-2.392,4.916,0,10.183,0,10.183l-5.824,4.977
		c1.188,2.77,6.286,6.393,10.917,5.142c6.649,5.479,41.425,27.02,77.772-0.802c27.82-23.782,2.543-43.894,2.543-43.894
		L111.542,34.226z"/>
	<g id="pingoui">
		<path d="M187.448,54.929c0.704-2.415,1.087-4.929,1.087-7.518c0-17.994-18.003-32.581-40.212-32.581
			c-22.209,0-40.212,14.587-40.212,32.581c0,2.589,0.383,5.103,1.087,7.518c-4.226,4.827-6.662,10.497-6.662,16.564
			c0,8.535,4.819,16.286,12.667,22.007c3.194,2.329,11.62,6.441,20.245,6.713c27.33,1.928,33.062-0.012,38.001-2.339
			c4.938-2.327,20.658-15.28,20.658-26.381C194.107,65.425,191.673,59.756,187.448,54.929z"/>
		<ellipse transform="matrix(0.5398 0.8418 -0.8418 0.5398 97.0358 -59.0608)" cx="102.535" cy="59.219" rx="6.251" ry="14.779"/>
		<ellipse transform="matrix(-0.064 -0.998 0.998 -0.064 23.9718 193.0807)" cx="102.537" cy="85.298" rx="3.519" ry="7.578"/>
		<ellipse transform="matrix(-0.1138 0.9935 -0.9935 -0.1138 297.1695 -91.2801)" cx="189.295" cy="86.895" rx="3.518" ry="7.579"/>
		<ellipse transform="matrix(0.4427 -0.8967 0.8967 0.4427 55.8215 204.8185)" cx="192.688" cy="57.501" rx="6.251" ry="14.779"/>
		<ellipse fill="#FFFFFF" cx="148.643" cy="67.114" rx="43.333" ry="23.386"/>
		<ellipse fill="#FFFFFF" cx="134.638" cy="39.234" rx="16.678" ry="18.268"/>
		<ellipse fill="#FFFFFF" cx="160.213" cy="39.234" rx="16.68" ry="18.268"/>
		<path stroke="#FFFFFF" stroke-width="0.5" stroke-miterlimit="10" d="M140.724,37.653C129.575,35.732,123.9,38,123.9,38
			s-0.936,0.216-0.032-1.513c7.671-3.446,16.824-0.349,16.824-0.349S141.508,37.636,140.724,37.653z"/>
		<path stroke="#FFFFFF" stroke-width="0.5" stroke-miterlimit="10" d="M169.452,37.653C158.305,35.732,152.629,38,152.629,38
			s-0.936,0.216-0.031-1.513c7.672-3.446,16.823-0.349,16.823-0.349S170.236,37.636,169.452,37.653z"/>
		<path d="M147.059,44.674l3.968-1.812c0,0-4.733-1.072-7.206-0.012C144.164,43.287,147.059,44.674,147.059,44.674z"/>
		<polygon points="148.086,16.176 146.518,12.793 148.086,14.485 148.086,9.527 149.358,13.842 150.77,12.21 149.61,14.31 
			150.77,14.543 150.069,16.176 		"/>
	</g>
</g>
</svg>
