<?xml version="1.0" encoding="utf-8"?>
<!-- Generator: Adobe Illustrator 16.0.0, SVG Export Plug-In . SVG Version: 6.00 Build 0)  -->
<!DOCTYPE svg PUBLIC "-//W3C//DTD SVG 1.1//EN" "http://www.w3.org/Graphics/SVG/1.1/DTD/svg11.dtd">
<svg version="1.1" id="Calque_1" xmlns="http://www.w3.org/2000/svg" xmlns:xlink="http://www.w3.org/1999/xlink" x="0px" y="0px"
	 width="300px" height="190px" viewBox="0 0 300 190" enable-background="new 0 0 300 190" xml:space="preserve">
<g>
	<rect x="51.82" y="20.376" fill="#AED581" width="187.68" height="105.567"/>
	<ellipse stroke="#AED581" stroke-width="5" stroke-miterlimit="10" cx="153.703" cy="89.588" rx="32.871" ry="10.648"/>
	<path fill="#E3F2FD" d="M52.706,92.959c0,0,118.024-52.401,186.795-6.543c0.354,5.038,0,39.527,0,39.527H52.706V92.959z"/>
	<g opacity="0.1">
		
			<image overflow="visible" enable-background="new    " width="133" height="118" xlink:href="911832C2.png"  transform="matrix(1 0 0 0.9915 96 31.7178)">
		</image>
	</g>
	<line fill="none" stroke="#AD1457" stroke-miterlimit="10" x1="150.838" y1="83.614" x2="126.399" y2="66.178"/>
	<line fill="none" stroke="#AD1457" stroke-miterlimit="10" x1="170.448" y1="77.444" x2="156.225" y2="52.074"/>
	<path d="M172.313,81.186c0.22-0.902,0.338-1.845,0.338-2.813c0-6.735-5.575-12.195-12.455-12.195
		c-6.879,0-12.455,5.46-12.455,12.195c0,0.968,0.118,1.91,0.336,2.813c-1.309,1.81-2.063,3.929-2.063,6.199
		c0,3.195,1.493,6.097,3.923,8.237c0.99,0.873,3.601,2.41,6.272,2.514c8.464,0.72,11.589-0.75,11.771-0.876
		c3.596-2.538,6.398-5.721,6.398-9.875C174.379,85.115,173.623,82.996,172.313,81.186z"/>
	<ellipse transform="matrix(0.0411 0.9992 -0.9992 0.0411 223.6017 -68.4866)" cx="147.483" cy="82.257" rx="2.041" ry="4.825"/>
	<ellipse transform="matrix(-0.6916 -0.7223 0.7223 -0.6916 189.926 277.7642)" cx="154.26" cy="98.337" rx="1.148" ry="2.475"/>
	<ellipse transform="matrix(-0.4624 0.8866 -0.8866 -0.4624 335.0746 -20.3014)" cx="173.691" cy="91.423" rx="1.149" ry="2.474"/>
	<ellipse transform="matrix(-0.5732 -0.8194 0.8194 -0.5732 206.6342 264.1277)" cx="172.102" cy="78.252" rx="2.041" ry="4.827"/>
	<ellipse fill="#FFFFFF" cx="159.536" cy="78.25" rx="5.446" ry="5.965"/>
	<ellipse fill="#FFFFFF" cx="166.703" cy="77.154" rx="5.445" ry="5.964"/>
	<path d="M164.949,82.11l1.313-1.033c0,0-1.738-0.329-2.563,0.282C163.846,81.555,164.949,82.11,164.949,82.11z"/>
	<path fill="#FFFFFF" d="M170.891,80.207h0.221c0,0,3.672,2.845,3.205,8.229c0.021,2.476-1.526,4.207-1.946,4.711
		c-0.419,0.501-2.478,3.699-6.108,4.707c-3.634,1.01-10.697,0.68-13.947-0.746c-3.25-1.426-0.768-14.106,3.912-14.238l0.131-0.054
		l7.642-3.215l5.965,0.606l-0.663,1.903"/>
	
		<ellipse transform="matrix(-0.121 -0.9927 0.9927 -0.121 102.0544 246.5834)" fill="#FFFFFF" stroke="#000000" stroke-width="0.25" stroke-miterlimit="10" cx="160.204" cy="78.106" rx="3.418" ry="2.534"/>
	
		<ellipse transform="matrix(-0.3029 -0.953 0.953 -0.3029 134.3878 256.1924)" stroke="#FFFFFF" stroke-width="0.5" stroke-miterlimit="10" cx="160.893" cy="78.946" rx="0.853" ry="0.685"/>
	
		<ellipse transform="matrix(0.1142 -0.9935 0.9935 0.1142 72.1198 235.1859)" fill="#FFFFFF" stroke="#000000" stroke-width="0.25" stroke-miterlimit="10" cx="167.941" cy="77.152" rx="3.417" ry="2.535"/>
	
		<ellipse transform="matrix(-0.071 -0.9975 0.9975 -0.071 102.1402 251.4078)" stroke="#FFFFFF" stroke-width="0.5" stroke-miterlimit="10" cx="168.146" cy="78.139" rx="0.853" ry="0.685"/>
	<path d="M164.584,82.044l1.313-1.032c0,0-1.738-0.329-2.561,0.279C163.48,81.49,164.584,82.044,164.584,82.044z"/>
	<g>
		<g>
			<g enable-background="new    ">
				<g>
					<path fill="#A31352" d="M161.361,39.09c0.209-0.022,0.4-0.023,0.554,0l20.001,2.877c0.439,0.062,0.373,0.301-0.15,0.538
						l-59.039,26.588c-0.347,0.153-0.805,0.268-1.201,0.309c-0.204,0.021-0.392,0.023-0.539,0.002l-20.009-2.876
						c-0.432-0.063-0.366-0.307,0.158-0.544L160.175,39.4C160.52,39.245,160.969,39.131,161.361,39.09z"/>
				</g>
				<g enable-background="new    ">
					<g>
						<defs>
							<path id="SVGID_1_" d="M182.206,42.135c0.015,0.561,0.028,1.122,0.044,1.682c0.002,0.103-0.148,0.236-0.441,0.37
								l-0.043-1.682C182.059,42.372,182.209,42.238,182.206,42.135z"/>
						</defs>
						<clipPath id="SVGID_2_">
							<use xlink:href="#SVGID_1_"  overflow="visible"/>
						</clipPath>
						<g clip-path="url(#SVGID_2_)" enable-background="new    ">
							<path fill="#530A2A" d="M182.206,42.135l0.044,1.682c0.002,0.103-0.148,0.236-0.441,0.37l-0.043-1.682
								C182.059,42.372,182.209,42.238,182.206,42.135"/>
						</g>
					</g>
				</g>
				<g enable-background="new    ">
					<g>
						<defs>
							<path id="SVGID_3_" d="M100.738,68.04l-0.043-1.682c0.002,0.081,0.096,0.143,0.284,0.17l0.043,1.682
								C100.833,68.183,100.74,68.121,100.738,68.04z"/>
						</defs>
						<clipPath id="SVGID_4_">
							<use xlink:href="#SVGID_3_"  overflow="visible"/>
						</clipPath>
						<g clip-path="url(#SVGID_4_)" enable-background="new    ">
							<path fill="#530A2A" d="M100.979,66.528l0.043,1.682c-0.023-0.003-0.044-0.007-0.065-0.012l-0.043-1.682
								C100.934,66.521,100.956,66.525,100.979,66.528"/>
							<path fill="#570A2C" d="M100.914,66.517l0.043,1.682c-0.059-0.013-0.106-0.03-0.142-0.05l-0.043-1.682
								C100.808,66.487,100.854,66.504,100.914,66.517"/>
							<path fill="#5B0A2E" d="M100.772,66.466l0.043,1.682c-0.051-0.03-0.077-0.067-0.078-0.109l-0.043-1.682
								C100.695,66.4,100.721,66.437,100.772,66.466"/>
						</g>
					</g>
				</g>
				<g>
					<polygon fill="#500928" points="181.766,42.505 181.809,44.187 122.771,70.775 122.727,69.093 					"/>
				</g>
				<g>
					<polygon fill="#580A2C" points="120.987,69.404 121.03,71.086 101.022,68.21 100.979,66.528 					"/>
				</g>
				<g enable-background="new    ">
					<g>
						<defs>
							<path id="SVGID_5_" d="M122.727,69.093l0.043,1.682c-0.347,0.153-0.806,0.267-1.201,0.309
								c-0.205,0.021-0.392,0.023-0.54,0.002l-0.043-1.682c0.147,0.021,0.335,0.02,0.539-0.002
								C121.922,69.361,122.38,69.247,122.727,69.093z"/>
						</defs>
						<clipPath id="SVGID_6_">
							<use xlink:href="#SVGID_5_"  overflow="visible"/>
						</clipPath>
						<g clip-path="url(#SVGID_6_)" enable-background="new    ">
							<path fill="#530A2A" d="M122.727,69.093l0.043,1.682c-0.347,0.153-0.806,0.267-1.201,0.309
								c-0.205,0.021-0.392,0.023-0.54,0.002l-0.043-1.682c0.147,0.021,0.335,0.02,0.539-0.002
								C121.922,69.361,122.38,69.247,122.727,69.093"/>
						</g>
					</g>
				</g>
			</g>
		</g>
	</g>
</g>
<g>
	<g>
		<g>
			<path d="M51.174,18.77h189.686v107.568H51.174V18.77z M238.852,124.331V20.768H53.172v103.563H238.852"/>
		</g>
	</g>
</g>
<line fill="none" stroke="#000000" stroke-miterlimit="10" x1="99.626" y1="20.376" x2="99.626" y2="0"/>
<line fill="none" stroke="#000000" stroke-miterlimit="10" x1="199.032" y1="20.376" x2="199.032" y2="0"/>
<ellipse opacity="0.3" fill="#BDBDBD" cx="135.095" cy="176.435" rx="32.789" ry="3.416"/>
<g>
	<polygon points="135.817,109.521 134.095,105.813 135.817,107.667 135.817,102.23 137.212,106.964 138.759,105.172 
		137.486,107.475 138.759,107.73 137.992,109.521 	"/>
	<path d="M169.715,136c-1.721-0.85-3.426-1.443-4.982-1.789c0-0.027,0.002-0.054,0.002-0.081c0-14.632-13.021-26.495-29.084-26.495
		s-29.086,11.863-29.086,26.495c0,0.409,0.02,0.815,0.041,1.222c-1.936,0.414-4.214,1.367-6.466,2.813
		c-4.875,3.125-7.753,7.33-6.431,9.393c1.233,1.922,5.685,1.301,10.232-1.326c-0.913,2.369-1.407,4.881-1.407,7.483
		c0,6.94,3.485,13.243,9.163,17.896c0.049,0.041,0.108,0.084,0.16,0.125c-0.121,0.105,3.945,3.045,4.286,2.591
		c2.841,1.378,6.49,2.612,10.196,2.745c19.768,1.564,27.064-1.625,27.486-1.904c0.466-0.305,0.928-0.615,1.382-0.932
		c0.331,0.469,4.137-2.676,3.844-2.918c5.736-4.808,9.718-10.563,9.718-17.603c0-3.325-0.804-6.504-2.261-9.425
		c4.935,2.244,9.611,2.426,10.646,0.33C178.234,142.419,174.906,138.563,169.715,136z"/>
</g>
<g>
	<path fill-rule="evenodd" clip-rule="evenodd" d="M224.635,114.68c4.107,0,8.216,0,12.324,0c0.189,0,0.163-0.021,0.163,0.153
		c0.001,2.58,0.001,5.161,0,7.742c0,0.159,0.025,0.144-0.162,0.144c-8.225,0-16.449,0-24.674,0.003
		c-0.119,0-0.142-0.034-0.142-0.135c0.003-2.592,0.004-5.185-0.001-7.776c0-0.115,0.039-0.133,0.153-0.133
		C216.409,114.68,220.521,114.68,224.635,114.68z"/>
	<path fill-rule="evenodd" clip-rule="evenodd" fill="#ADADAD" d="M224.627,114.872c3.95,0,7.899,0,11.85,0
		c0.054,0,0.108-0.002,0.162,0.002c0.172,0.01,0.255,0.084,0.271,0.243c0.003,0.037,0.003,0.076,0.003,0.113
		c0,1.645,0,3.289,0,4.934c0,0.159,0,0.159-0.178,0.159c-5.598,0-11.196,0-16.794-0.003c-0.148,0-0.231,0.037-0.316,0.155
		c-0.76,1.068-1.839,1.632-3.236,1.599c-1.33-0.032-2.345-0.609-3.053-1.635c-0.062-0.089-0.122-0.124-0.236-0.119
		c-0.203,0.009-0.408-0.001-0.611,0.005c-0.095,0.002-0.133-0.021-0.133-0.115c0.003-1.682,0.002-3.364,0.003-5.047
		c0-0.218,0.095-0.291,0.357-0.291C216.686,114.872,220.656,114.872,224.627,114.872z"/>
	<path fill-rule="evenodd" clip-rule="evenodd" fill="#FDFDFD" d="M224.909,121.521c0.197,0.114,0.265,0.238,0.222,0.41
		c-0.042,0.166-0.174,0.245-0.348,0.27c-0.243,0.035-0.49,0.008-0.734,0.016c-0.051,0.002-0.064-0.022-0.064-0.063
		c0.001-0.381,0.001-0.762,0-1.142c-0.001-0.052,0.025-0.065,0.076-0.064c0.208,0.002,0.416-0.002,0.624,0.004
		c0.154,0.005,0.309,0.031,0.367,0.187C225.108,121.287,225.071,121.422,224.909,121.521z"/>
	<path fill-rule="evenodd" clip-rule="evenodd" fill="#FDFDFD" d="M230.398,122.241c-0.339-0.003-0.542-0.123-0.604-0.333
		c-0.027-0.091-0.002-0.124,0.103-0.118c0.093,0.005,0.171-0.012,0.213,0.109c0.051,0.146,0.388,0.174,0.5,0.057
		c0.063-0.066,0.046-0.15-0.045-0.201c-0.072-0.041-0.156-0.051-0.235-0.074c-0.095-0.026-0.194-0.046-0.283-0.085
		c-0.258-0.112-0.296-0.393-0.083-0.563c0.193-0.156,0.611-0.154,0.8,0.006c0.027,0.023,0.052,0.051,0.071,0.079
		c0.04,0.059,0.091,0.143,0.042,0.188c-0.059,0.055-0.165,0.02-0.251,0.017c-0.025,0-0.024-0.027-0.033-0.043
		c-0.069-0.126-0.222-0.181-0.363-0.129c-0.058,0.021-0.097,0.056-0.103,0.117c-0.005,0.065,0.032,0.102,0.093,0.119
		c0.111,0.031,0.224,0.061,0.336,0.088c0.272,0.066,0.396,0.187,0.385,0.379c-0.012,0.208-0.168,0.347-0.436,0.383
		C230.46,122.241,230.414,122.241,230.398,122.241z"/>
	<path fill-rule="evenodd" clip-rule="evenodd" fill="#FDFDFD" d="M231.657,120.948c0.121-0.026,0.168,0.025,0.206,0.125
		c0.133,0.347,0.275,0.691,0.42,1.035c0.038,0.091,0.014,0.104-0.085,0.111c-0.143,0.01-0.229-0.025-0.247-0.163
		c-0.014-0.101-0.075-0.145-0.188-0.125c-0.024,0.004-0.05,0.003-0.075,0c-0.198-0.024-0.358,0.001-0.389,0.226
		c-0.007,0.052-0.264,0.088-0.297,0.047c-0.02-0.025-0.002-0.053,0.008-0.076c0.152-0.369,0.309-0.737,0.455-1.108
		C231.507,120.915,231.591,120.958,231.657,120.948z"/>
	<path fill-rule="evenodd" clip-rule="evenodd" fill="#FCFCFC" d="M225.395,120.946c0.106-0.032,0.17,0.03,0.223,0.124
		c0.06,0.104,0.131,0.203,0.194,0.306c0.035,0.056,0.061,0.05,0.093-0.002c0.072-0.115,0.146-0.229,0.221-0.344
		c0.045-0.069,0.266-0.122,0.34-0.079c0.051,0.03,0.007,0.061-0.009,0.086c-0.122,0.189-0.238,0.384-0.373,0.565
		c-0.083,0.111-0.077,0.228-0.077,0.348c0,0.038,0,0.076,0,0.114c0,0.152,0,0.145-0.168,0.153c-0.112,0.006-0.151-0.028-0.135-0.127
		c0.042-0.259-0.043-0.482-0.21-0.69c-0.088-0.109-0.151-0.236-0.232-0.351c-0.059-0.082-0.047-0.114,0.063-0.104
		C225.341,120.948,225.357,120.946,225.395,120.946z"/>
	<path fill-rule="evenodd" clip-rule="evenodd" d="M219.742,118.412c0.049,1.77-1.605,3.011-3.25,3.014
		c-1.747,0.002-3.267-1.401-3.256-3.017c0.011-1.515,1.387-3.004,3.283-2.98C218.326,115.451,219.74,116.742,219.742,118.412z"/>
	<path fill-rule="evenodd" clip-rule="evenodd" d="M227.746,117.548c0.015,1.338-1.232,2.254-2.475,2.22
		c-1.329-0.037-2.389-1.06-2.354-2.28c0.035-1.238,1.143-2.195,2.501-2.161C226.725,115.36,227.776,116.363,227.746,117.548z"/>
	<path fill-rule="evenodd" clip-rule="evenodd" d="M233.655,117.55c0.031,1.26-1.141,2.224-2.423,2.219
		c-1.314-0.005-2.405-1.014-2.401-2.236c0.003-1.226,1.085-2.209,2.426-2.206C232.608,115.329,233.656,116.301,233.655,117.55z"/>
	<path fill-rule="evenodd" clip-rule="evenodd" fill="#030303" d="M224.502,121.996c-0.215,0.001-0.215,0.001-0.216-0.199
		c0-0.147,0-0.147,0.16-0.147c0.063,0,0.124-0.002,0.187,0.001c0.134,0.008,0.2,0.065,0.202,0.171
		c0.001,0.109-0.061,0.165-0.196,0.174C224.593,121.998,224.547,121.996,224.502,121.996z"/>
	<path fill-rule="evenodd" clip-rule="evenodd" fill="#040404" d="M224.476,121.462c-0.037,0-0.074-0.003-0.111,0
		c-0.061,0.005-0.075-0.021-0.079-0.073c-0.015-0.226-0.017-0.226,0.225-0.223c0.046,0,0.092-0.001,0.137,0.006
		c0.079,0.011,0.128,0.053,0.134,0.128c0.006,0.078-0.035,0.134-0.119,0.15c-0.061,0.012-0.123,0.011-0.185,0.016
		C224.477,121.464,224.476,121.463,224.476,121.462z"/>
	<path fill-rule="evenodd" clip-rule="evenodd" fill="#060606" d="M231.664,121.293c0.046,0.12,0.091,0.24,0.137,0.36
		c0.019,0.048,0.002,0.065-0.056,0.07c-0.277,0.025-0.284,0.019-0.191-0.221c0.027-0.07,0.056-0.141,0.083-0.212
		C231.646,121.292,231.655,121.292,231.664,121.293z"/>
	<path fill-rule="evenodd" clip-rule="evenodd" fill="#FEFEFE" d="M213.827,118.416c-0.013-1.26,1.183-2.467,2.681-2.447
		c1.494,0.02,2.65,1.091,2.658,2.47c0.008,1.457-1.384,2.455-2.671,2.438C215.029,120.857,213.821,119.758,213.827,118.416z"/>
	<path fill-rule="evenodd" clip-rule="evenodd" fill="#FEFEFE" d="M223.356,117.542c-0.037-0.89,0.849-1.837,1.995-1.817
		c1.089,0.018,1.944,0.81,1.96,1.824c0.016,1.039-0.976,1.819-1.974,1.813C224.247,119.357,223.357,118.545,223.356,117.542z"/>
	<path fill-rule="evenodd" clip-rule="evenodd" fill="#FEFEFE" d="M229.267,117.541c-0.017-0.943,0.897-1.853,2.038-1.816
		c1.085,0.035,1.938,0.851,1.919,1.873c-0.02,0.998-0.927,1.782-2.037,1.764C230.142,119.344,229.249,118.497,229.267,117.541z"/>
	<path fill-rule="evenodd" clip-rule="evenodd" d="M215.233,118.437c0.009,0.07,0.006,0.15,0.028,0.229
		c0.046,0.153,0.14,0.261,0.318,0.284c0.183,0.023,0.343-0.021,0.438-0.176c0.043-0.069,0.079-0.07,0.144-0.034
		c0.074,0.043,0.151,0.081,0.23,0.114c0.063,0.027,0.063,0.054,0.028,0.104c-0.207,0.311-0.606,0.456-1.045,0.377
		c-0.374-0.067-0.646-0.33-0.708-0.683c-0.052-0.3-0.025-0.586,0.186-0.835c0.376-0.444,1.19-0.43,1.542,0.022
		c0.057,0.072,0.053,0.11-0.04,0.141c-0.035,0.011-0.066,0.032-0.1,0.047c-0.066,0.031-0.132,0.081-0.202,0.086
		c-0.076,0.007-0.087-0.088-0.137-0.131c-0.184-0.158-0.507-0.107-0.616,0.1C215.242,118.191,215.237,118.31,215.233,118.437z"/>
	<path fill-rule="evenodd" clip-rule="evenodd" d="M216.529,118.443c-0.008-0.47,0.256-0.814,0.69-0.918
		c0.399-0.096,0.825,0.029,1.045,0.3c0.06,0.073,0.075,0.124-0.038,0.158c-0.035,0.01-0.066,0.03-0.1,0.045
		c-0.067,0.03-0.133,0.081-0.202,0.086c-0.077,0.006-0.086-0.089-0.137-0.132c-0.191-0.161-0.519-0.109-0.619,0.112
		c-0.097,0.211-0.094,0.431-0.006,0.645c0.055,0.134,0.171,0.201,0.326,0.213c0.166,0.013,0.313-0.029,0.394-0.167
		c0.053-0.09,0.1-0.076,0.172-0.035c0.057,0.031,0.115,0.063,0.177,0.084c0.101,0.035,0.112,0.074,0.047,0.156
		c-0.249,0.313-0.653,0.438-1.087,0.329c-0.379-0.096-0.619-0.376-0.653-0.764C216.534,118.515,216.531,118.473,216.529,118.443z"/>
	<path fill-rule="evenodd" clip-rule="evenodd" d="M224.958,118.438c0-0.145-0.004-0.289,0.002-0.434
		c0.003-0.077-0.02-0.106-0.11-0.104c-0.166,0.005-0.167,0-0.167-0.147c0-0.239,0-0.479,0.001-0.719
		c0.001-0.132,0.052-0.181,0.194-0.182c0.303-0.002,0.606-0.001,0.91,0.001c0.14,0,0.192,0.051,0.193,0.183
		c0.002,0.259-0.003,0.517,0.002,0.775c0.002,0.079-0.031,0.094-0.108,0.093c-0.168-0.002-0.168,0.001-0.168,0.159
		c0,0.271-0.003,0.54,0.002,0.81c0.001,0.076-0.019,0.108-0.11,0.105c-0.183-0.005-0.365-0.003-0.548,0
		c-0.069,0.001-0.096-0.019-0.094-0.084C224.961,118.742,224.958,118.59,224.958,118.438z"/>
	<path fill-rule="evenodd" clip-rule="evenodd" fill="#010101" d="M225.665,116.424c-0.001,0.169-0.146,0.307-0.328,0.31
		c-0.183,0.003-0.344-0.144-0.343-0.312c0.001-0.172,0.153-0.307,0.345-0.306C225.523,116.118,225.665,116.252,225.665,116.424z"/>
	<path fill-rule="evenodd" clip-rule="evenodd" d="M230.933,117.25c-0.157,0.139-0.294,0.261-0.431,0.382
		c-0.022,0.021-0.043,0.038-0.073,0.011c-0.142-0.125-0.284-0.251-0.423-0.394c0.154,0.012,0.176-0.07,0.204-0.169
		c0.164-0.562,0.783-0.84,1.43-0.648c0.529,0.157,0.851,0.61,0.832,1.174c-0.02,0.579-0.389,1.012-0.965,1.131
		c-0.644,0.133-1.213-0.188-1.336-0.749c-0.018-0.077,0.004-0.093,0.08-0.091c0.142,0.004,0.283,0.002,0.425,0.001
		c0.051-0.001,0.088,0.007,0.097,0.063c0.026,0.181,0.143,0.287,0.335,0.322c0.216,0.039,0.415,0.019,0.566-0.151
		c0.229-0.257,0.248-0.844,0.036-1.114c-0.209-0.266-0.753-0.228-0.9,0.063C230.746,117.205,230.757,117.225,230.933,117.25z"/>
</g>
</svg>
