<?xml version="1.0" encoding="utf-8"?>
<!-- Generator: Adobe Illustrator 16.0.0, SVG Export Plug-In . SVG Version: 6.00 Build 0)  -->
<!DOCTYPE svg PUBLIC "-//W3C//DTD SVG 1.1//EN" "http://www.w3.org/Graphics/SVG/1.1/DTD/svg11.dtd">
<svg version="1.1" id="Calque_1" xmlns="http://www.w3.org/2000/svg" xmlns:xlink="http://www.w3.org/1999/xlink" x="0px" y="0px"
	 width="300px" height="190px" viewBox="0 0 300 190" enable-background="new 0 0 300 190" xml:space="preserve">
<g id="ombre">
	<ellipse opacity="0.3" fill="#D7CCC8" cx="148.135" cy="166.376" rx="54.125" ry="5.124"/>
	<ellipse opacity="0.2" fill="#D7CCC8" cx="90.595" cy="166.457" rx="26.761" ry="1.624"/>
	<ellipse opacity="0.2" fill="#D7CCC8" cx="207.548" cy="166.457" rx="21.952" ry="1.624"/>
</g>
<g id="pingouin">
	<path d="M188.384,115.695c0.705-2.721,1.089-5.551,1.089-8.467c0-20.267-18.035-36.694-40.283-36.694
		c-22.249,0-40.285,16.429-40.285,36.694c0,2.916,0.385,5.746,1.09,8.467c-4.234,5.437-6.673,11.822-6.673,18.654
		c0,9.612,4.827,18.342,12.689,24.786c3.201,2.623,11.641,7.257,20.28,7.563c27.378,2.169,37.484-2.25,38.068-2.636
		c11.633-7.638,20.699-17.211,20.699-29.713C195.059,127.518,192.616,121.131,188.384,115.695z"/>
	
		<ellipse transform="matrix(-0.7778 0.6285 -0.6285 -0.7778 251.6766 127.4382)" cx="103.313" cy="108.205" rx="6.141" ry="14.521"/>
	<ellipse transform="matrix(-0.6918 -0.7221 0.7221 -0.6918 82.6879 359.7981)" cx="118.129" cy="162.252" rx="3.456" ry="7.445"/>
	<ellipse transform="matrix(-0.7098 0.7044 -0.7044 -0.7098 422.6613 150.389)" cx="180.351" cy="162.261" rx="3.458" ry="7.445"/>
	
		<ellipse transform="matrix(-0.5983 -0.8013 0.8013 -0.5983 220.0007 328.3091)" cx="192.296" cy="109.008" rx="6.141" ry="14.521"/>
	<ellipse fill="#FFFFFF" cx="138.572" cy="96.265" rx="16.387" ry="17.948"/>
	<ellipse fill="#FFFFFF" cx="163.7" cy="96.265" rx="16.387" ry="17.948"/>
	<path fill="#FFFFFF" d="M183.594,115.695c-22.039-25.305-56.341-18.922-67.439,0c-2.501,4.394-5.741,11.822-5.741,18.654
		c0,9.612,4.153,18.342,10.917,24.786c2.753,2.623,10.014,7.257,17.447,7.563c23.555,2.169,32.248-2.25,32.751-2.636
		c10.007-7.638,17.806-17.211,17.806-29.713C189.334,127.518,189.282,123.251,183.594,115.695z"/>
	<polygon points="148.242,70.916 146.609,67.398 148.242,69.158 148.242,64.003 149.565,68.489 151.029,66.792 149.825,68.975 
		151.029,69.218 150.303,70.916 	"/>
	
		<ellipse transform="matrix(-0.0803 -0.9968 0.9968 -0.0803 56.3937 239.2512)" fill="#FFFFFF" stroke="#000000" stroke-width="0.25" stroke-miterlimit="10" cx="138.572" cy="93.609" rx="10.43" ry="7.736"/>
	<path d="M148.56,110.395l5.303-2.42c0,0-6.324-1.432-9.627-0.017C144.691,108.541,148.56,110.395,148.56,110.395z"/>
	<ellipse stroke="#FFFFFF" stroke-width="0.5" stroke-miterlimit="10" cx="138.573" cy="93.52" rx="1.635" ry="2.034"/>
	<path fill="#FFFFFF" stroke="#000000" stroke-width="0.25" stroke-miterlimit="10" d="M169.994,95.836
		c-0.711,5.719-4.727,9.924-8.965,9.396c-4.239-0.524-7.102-5.588-6.389-11.306c0.711-5.716,4.725-9.922,8.965-9.396
		C167.846,85.059,170.706,90.12,169.994,95.836z"/>
	
		<ellipse transform="matrix(0.203 -0.9792 0.9792 0.203 36.7386 234.7871)" stroke="#FFFFFF" stroke-width="0.5" stroke-miterlimit="10" cx="162.595" cy="94.826" rx="2.035" ry="1.635"/>
</g>
<g>
	<g>
		<g enable-background="new    ">
			<g enable-background="new    ">
				<g>
					<defs>
						<path id="SVGID_1_" d="M101.144,115.048c-0.643-0.312-1.285-0.621-1.927-0.931c-0.375-0.182-0.666-0.503-0.78-0.919
							l1.927,0.931C100.479,114.545,100.769,114.868,101.144,115.048z"/>
					</defs>
					<clipPath id="SVGID_2_">
						<use xlink:href="#SVGID_1_"  overflow="visible"/>
					</clipPath>
					<g clip-path="url(#SVGID_2_)" enable-background="new    ">
						<path fill="#291B18" d="M101.144,115.048l-1.927-0.931c-0.375-0.182-0.666-0.503-0.78-0.919l1.927,0.931
							C100.479,114.545,100.769,114.868,101.144,115.048"/>
					</g>
				</g>
			</g>
			<g>
				<polygon fill="#610C2E" points="123.676,52.768 121.749,51.837 111.037,13.558 112.964,14.489 				"/>
			</g>
			<g>
				<polygon fill="#271A17" points="100.364,114.129 98.437,113.199 85.175,65.809 87.102,66.74 				"/>
			</g>
			<g>
				<polygon fill="#2C1D1A" points="87.102,66.74 85.175,65.809 88.435,64.841 90.362,65.772 				"/>
			</g>
			<g>
				<path fill="#452E29" d="M90.362,65.772l13.261,47.393c0.227,0.826-0.318,1.705-1.216,1.97c-0.121,0.037-0.243,0.061-0.363,0.071
					c-0.77,0.071-1.484-0.362-1.68-1.076L87.102,66.74L90.362,65.772z"/>
			</g>
			<g>
				<polygon fill="#6E0E33" points="54.079,73.446 52.152,72.515 121.749,51.837 123.676,52.768 				"/>
			</g>
			<g>
				<polygon fill="#909090" points="43.368,35.167 41.441,34.236 111.037,13.558 112.964,14.489 				"/>
			</g>
			<g>
				<polygon fill="#E1E1E1" points="112.964,14.489 123.676,52.768 54.079,73.446 43.368,35.167 				"/>
			</g>
			<g>
				<polygon fill="#808080" points="54.079,73.446 52.152,72.515 41.441,34.236 43.368,35.167 				"/>
			</g>
			<g>
				<polygon fill="#6E0E33" points="39.718,33.145 37.791,32.214 113.086,9.846 115.014,10.777 				"/>
			</g>
			<g>
				<polygon fill="#610C2E" points="52.03,77.159 50.104,76.228 37.791,32.214 39.718,33.145 				"/>
			</g>
			<g>
				<path fill="#AB1550" d="M115.014,10.777l12.313,44.014L90.362,65.772l-3.26,0.968L52.03,77.159L39.718,33.145L115.014,10.777z
					 M54.079,73.446l69.597-20.678l-10.711-38.279L43.368,35.167L54.079,73.446"/>
			</g>
		</g>
	</g>
</g>
<text transform="matrix(0.9616 -0.2743 0.2743 0.9616 60.8701 46.2305)" font-family="'Roboto-Medium'" font-size="10.9995">PLUS DE</text>
<text transform="matrix(0.9616 -0.2743 0.2743 0.9616 58.5 60.6328)" font-family="'Roboto-Medium'" font-size="10.9995">LICENCES !</text>
<ellipse cx="97.357" cy="101.788" rx="3.755" ry="4.203"/>
<g>
	<g>
		<g enable-background="new    ">
			<g>
				<polygon fill="#7B3E00" points="243.512,75.756 241.584,74.826 250.232,35.773 252.16,36.705 				"/>
			</g>
			<g enable-background="new    ">
				<g>
					<defs>
						<path id="SVGID_3_" d="M195.172,120.665c-0.643-0.312-1.285-0.62-1.927-0.931c-0.667-0.322-1.054-1.024-0.899-1.731
							l1.928,0.931C194.12,119.641,194.505,120.342,195.172,120.665z"/>
					</defs>
					<clipPath id="SVGID_4_">
						<use xlink:href="#SVGID_3_"  overflow="visible"/>
					</clipPath>
					<g clip-path="url(#SVGID_4_)" enable-background="new    ">
						<path fill="#291B18" d="M195.172,120.665l-1.927-0.931c-0.667-0.322-1.054-1.024-0.899-1.731l1.928,0.931
							C194.12,119.641,194.505,120.342,195.172,120.665"/>
					</g>
				</g>
			</g>
			<g>
				<polygon fill="#271A17" points="194.271,118.934 192.346,118.002 203.048,69.655 204.977,70.586 				"/>
			</g>
			<g>
				<polygon fill="#2F201C" points="204.977,70.586 203.048,69.655 206.352,70.361 208.277,71.292 				"/>
			</g>
			<g>
				<path fill="#452E29" d="M204.977,70.586l3.303,0.706l-10.702,48.347c-0.146,0.672-0.739,1.137-1.433,1.201
					c-0.18,0.018-0.367,0.008-0.553-0.033c-0.917-0.19-1.502-1.027-1.318-1.873L204.977,70.586z"/>
			</g>
			<g>
				<polygon fill="#954B00" points="172.971,60.683 171.043,59.751 241.584,74.826 243.512,75.756 				"/>
			</g>
			<g>
				<polygon fill="#808080" points="172.971,60.683 171.043,59.751 179.682,20.7 181.609,21.631 				"/>
			</g>
			<g>
				<polygon fill="#E1E1E1" points="181.609,21.631 252.16,36.705 243.512,75.756 172.971,60.683 				"/>
			</g>
			<g>
				<polygon fill="#9B9B9B" points="181.609,21.631 179.682,20.7 250.232,35.773 252.16,36.705 				"/>
			</g>
			<g>
				<polygon fill="#7B3E00" points="169.436,62.987 167.507,62.056 177.443,17.158 179.371,18.089 				"/>
			</g>
			<g>
				<polygon fill="#954B00" points="179.371,18.089 177.443,17.158 253.77,33.469 255.695,34.4 				"/>
			</g>
			<g>
				<path fill="#D96E00" d="M179.371,18.089L255.695,34.4l-9.938,44.907l-37.48-8.015l-3.303-0.706l-35.541-7.6L179.371,18.089z
					 M243.512,75.756l8.648-39.052l-70.551-15.073l-8.641,39.051L243.512,75.756"/>
			</g>
		</g>
	</g>
</g>
<text transform="matrix(0.9765 0.2155 -0.2155 0.9765 191.5029 39.5693)" font-family="'Roboto-Medium'" font-size="11">PLUS DE</text>
<text transform="matrix(0.9765 0.2155 -0.2155 0.9765 182.5742 51.1162)" font-family="'Roboto-Medium'" font-size="11">LICENCES !</text>
<ellipse cx="199.398" cy="104.015" rx="4.342" ry="3.523"/>
</svg>
