<?xml version="1.0" encoding="utf-8"?>
<!-- Generator: Adobe Illustrator 16.0.0, SVG Export Plug-In . SVG Version: 6.00 Build 0)  -->
<!DOCTYPE svg PUBLIC "-//W3C//DTD SVG 1.1//EN" "http://www.w3.org/Graphics/SVG/1.1/DTD/svg11.dtd">
<svg version="1.1" id="Calque_1" xmlns="http://www.w3.org/2000/svg" xmlns:xlink="http://www.w3.org/1999/xlink" x="0px" y="0px"
	 width="300px" height="190px" viewBox="0 0 300 190" enable-background="new 0 0 300 190" xml:space="preserve">
<g id="ombre">
	<ellipse opacity="0.2" fill="#BCAAA4" enable-background="new    " cx="147.889" cy="95.824" rx="59.62" ry="7.404"/>
	<ellipse opacity="0.2" fill="#BCAAA4" enable-background="new    " cx="73.695" cy="97.162" rx="18.752" ry="0.301"/>
	<ellipse opacity="0.2" fill="#BCAAA4" enable-background="new    " cx="217.12" cy="95.824" rx="18.751" ry="0.302"/>
	
		<rect x="76.531" y="113.497" transform="matrix(-0.9148 -0.4039 0.4039 -0.9148 122.896 294.6491)" opacity="0.2" fill="#BCAAA4" enable-background="new    " width="31.989" height="41.73"/>
	
		<rect x="79.091" y="117.387" transform="matrix(-0.9148 -0.4039 0.4039 -0.9148 126.2327 303.1291)" opacity="0.2" fill="#BCAAA4" enable-background="new    " width="31.989" height="41.728"/>
	
		<rect x="81.032" y="119.312" transform="matrix(-0.9149 -0.4038 0.4038 -0.9149 129.1878 307.5939)" opacity="0.2" fill="#BCAAA4" enable-background="new    " width="31.987" height="41.727"/>
	
		<rect x="81.408" y="122.829" transform="matrix(-0.9695 -0.2452 0.2452 -0.9695 158.6221 307.1363)" opacity="0.2" fill="#BCAAA4" enable-background="new    " width="34.044" height="41.73"/>
	
		<rect x="90.77" y="123.162" transform="matrix(-0.9986 -0.0533 0.0533 -0.9986 207.7546 293.592)" opacity="0.2" fill="#BCAAA4" enable-background="new    " width="34.044" height="41.728"/>
	
		<rect x="135.546" y="123.184" transform="matrix(-0.9969 -0.0788 0.0788 -0.9969 298.9426 307.3187)" opacity="0.2" fill="#BCAAA4" enable-background="new    " width="39.978" height="49.153"/>
	
		<rect x="138.681" y="121.486" transform="matrix(-0.9869 0.1614 -0.1614 -0.9869 338.8256 264.5489)" opacity="0.2" fill="#BCAAA4" enable-background="new    " width="39.976" height="49.097"/>
	
		<rect x="192.723" y="117.619" transform="matrix(-0.9391 0.3436 -0.3436 -0.9391 453.9842 197.7529)" opacity="0.2" fill="#BCAAA4" enable-background="new    " width="33.496" height="42.964"/>
	
		<rect x="200.978" y="106.986" transform="matrix(-0.8153 0.579 -0.579 -0.8153 469.6238 107.1373)" opacity="0.2" fill="#BCAAA4" enable-background="new    " width="33.495" height="42.962"/>
	
		<rect x="192.737" y="107.502" transform="matrix(-0.8153 0.5791 -0.5791 -0.8153 454.9649 112.8263)" opacity="0.2" fill="#BCAAA4" enable-background="new    " width="33.497" height="42.966"/>
	
		<rect x="193.251" y="113.738" transform="matrix(-0.784 0.6208 -0.6208 -0.784 458.5772 110.8689)" opacity="0.2" fill="#BCAAA4" enable-background="new    " width="33.495" height="42.964"/>
	
		<rect x="138.249" y="121.629" transform="matrix(-0.9838 0.1793 -0.1793 -0.9838 340.1216 261.6758)" opacity="0.2" fill="#BCAAA4" enable-background="new    " width="39.974" height="49.156"/>
	
		<rect x="141.93" y="122.352" transform="matrix(-0.9995 0.0325 -0.0325 -0.9995 324.8613 288.5839)" opacity="0.2" fill="#BCAAA4" enable-background="new    " width="36.312" height="49.158"/>
</g>
<g id="brevet2_2_">
	<path fill="#FFFFFF" stroke="#000000" stroke-width="0.25" stroke-miterlimit="10" d="M97.426,75.991L72.898,42.54l-19.95,29.784
		c0,0,35.321,25.486,35.321,24.506S97.426,75.991,97.426,75.991z"/>
	<line fill="none" stroke="#000000" stroke-width="0.25" stroke-miterlimit="10" x1="61.672" y1="74.924" x2="75.734" y2="53.992"/>
	<line fill="none" stroke="#000000" stroke-width="0.25" stroke-miterlimit="10" x1="66.145" y1="78.557" x2="79.571" y2="56.271"/>
	<line fill="none" stroke="#000000" stroke-width="0.25" stroke-miterlimit="10" x1="67.565" y1="79.406" x2="80.805" y2="57.968"/>
	<line fill="none" stroke="#000000" stroke-width="0.25" stroke-miterlimit="10" x1="68.96" y1="80.494" x2="82.048" y2="60.061"/>
	<line fill="none" stroke="#000000" stroke-width="0.25" stroke-miterlimit="10" x1="70.608" y1="81.675" x2="83.617" y2="61.826"/>
	<line fill="none" stroke="#000000" stroke-width="0.25" stroke-miterlimit="10" x1="72.177" y1="82.717" x2="84.671" y2="63.244"/>
	<line fill="none" stroke="#000000" stroke-width="0.25" stroke-miterlimit="10" x1="73.824" y1="83.899" x2="86.188" y2="65.285"/>
	<line fill="none" stroke="#000000" stroke-width="0.25" stroke-miterlimit="10" x1="75.505" y1="85.095" x2="87.657" y2="67.262"/>
	<line fill="none" stroke="#000000" stroke-width="0.25" stroke-miterlimit="10" x1="77.152" y1="86.276" x2="88.593" y2="68.726"/>
	<line fill="none" stroke="#000000" stroke-width="0.25" stroke-miterlimit="10" x1="78.308" y1="87.327" x2="89.754" y2="70.083"/>
	<line fill="none" stroke="#000000" stroke-width="0.25" stroke-miterlimit="10" x1="79.895" y1="88.42" x2="91.344" y2="72.223"/>
</g>
<g id="brevet1_2_">
	<polygon fill="#FFFFFF" stroke="#000000" stroke-width="0.25" stroke-miterlimit="10" points="202.039,71.814 215.027,32.42 
		243.207,54.582 221.003,84.338 	"/>
	
		<line fill="none" stroke="#000000" stroke-width="0.25" stroke-miterlimit="10" x1="235.715" y1="58.479" x2="215.871" y2="44.654"/>
	
		<line fill="none" stroke="#000000" stroke-width="0.25" stroke-miterlimit="10" x1="232.582" y1="63.591" x2="212.925" y2="48.265"/>
	
		<line fill="none" stroke="#000000" stroke-width="0.25" stroke-miterlimit="10" x1="231.493" y1="64.934" x2="212.277" y2="50.317"/>
	
		<line fill="none" stroke="#000000" stroke-width="0.25" stroke-miterlimit="10" x1="230.503" y1="66.486" x2="211.741" y2="52.738"/>
	
		<line fill="none" stroke="#000000" stroke-width="0.25" stroke-miterlimit="10" x1="229.302" y1="68.223" x2="210.794" y2="54.985"/>
	
		<line fill="none" stroke="#000000" stroke-width="0.25" stroke-miterlimit="10" x1="228.132" y1="69.802" x2="210.23" y2="56.708"/>
	
		<line fill="none" stroke="#000000" stroke-width="0.25" stroke-miterlimit="10" x1="226.932" y1="71.54" x2="209.418" y2="59.188"/>
	
		<line fill="none" stroke="#000000" stroke-width="0.25" stroke-miterlimit="10" x1="225.701" y1="73.304" x2="208.632" y2="61.592"/>
	<line fill="none" stroke="#000000" stroke-width="0.25" stroke-miterlimit="10" x1="224.5" y1="75.042" x2="208.195" y2="63.311"/>
	
		<line fill="none" stroke="#000000" stroke-width="0.25" stroke-miterlimit="10" x1="223.725" y1="76.466" x2="207.509" y2="65.021"/>
	
		<line fill="none" stroke="#000000" stroke-width="0.25" stroke-miterlimit="10" x1="222.552" y1="78.097" x2="206.659" y2="67.623"/>
</g>
<g>
	<ellipse transform="matrix(0.8059 0.5921 -0.5921 0.8059 52.4683 -43.9228)" cx="93.218" cy="58.055" rx="8.243" ry="19.49"/>
	<ellipse transform="matrix(-0.4991 -0.8665 0.8665 -0.4991 68.4887 221.7534)" cx="98.333" cy="91.083" rx="4.64" ry="9.993"/>
	<path d="M188.184,89.656c0.367-2.536,5.09-3.954,10.553-3.168c5.463,0.787,9.596,3.482,9.228,6.016
		c-0.364,2.54-5.086,3.956-10.549,3.169S187.818,92.192,188.184,89.656z"/>
	<ellipse transform="matrix(0.6712 -0.7413 0.7413 0.6712 24.1755 167.0408)" cx="200.391" cy="56.268" rx="7.125" ry="16.848"/>
	<ellipse cx="146.088" cy="47.521" rx="47.421" ry="38.162"/>
	<path d="M198.964,64.563c2.164,28.571-10.263,31.781-22.163,33.291c-16.312,1.652-1.92-1.178-30.448-0.648
		s-32.247,1.451-32.247,1.451s-24.859,3.294-23.65-34.093c0-22.798,24.291-41.281,54.254-41.281S198.623,43.468,198.964,64.563z"/>
	<ellipse fill="#FFFFFF" cx="129.643" cy="50.197" rx="21.994" ry="24.089"/>
	<ellipse fill="#FFFFFF" cx="163.367" cy="50.197" rx="21.992" ry="24.089"/>
	<path fill="#FFFFFF" d="M177.552,98.468c-15.659,1.15-1.842-0.819-29.229-0.45c-27.386,0.367-30.956,1.008-30.956,1.008
		s-26.909-1.264-16.729-28.318c1.618-4.299,2.563-7.67,7.92-14.95c5.356-7.281,23.1-9.195,38.188-9.195
		c13.71,0,30.214,3.884,35.369,8.125c5.152,4.239,7.488,11.906,9.215,16.73C197.925,89.862,186.605,97.636,177.552,98.468z"/>
	
		<ellipse transform="matrix(-0.1434 -0.9897 0.9897 -0.1434 102.4665 183.0494)" fill="#FFFFFF" stroke="#000000" stroke-width="0.25" stroke-miterlimit="10" cx="130.452" cy="47.18" rx="12.217" ry="9.062"/>
	
		<ellipse transform="matrix(-0.2287 -0.9735 0.9735 -0.2287 111.8538 191.5473)" stroke="#FFFFFF" stroke-width="0.5" stroke-miterlimit="10" cx="131.804" cy="51.465" rx="2.934" ry="2.359"/>
	<path d="M146.688,61.222l4.146-1.892c0,0-4.944-1.121-7.526-0.013C143.663,59.771,146.688,61.222,146.688,61.222z"/>
	<ellipse transform="matrix(0.7359 -0.6771 0.6771 0.7359 -18.2902 74.8295)" cx="86.781" cy="60.861" rx="3.166" ry="4.612"/>
	<path d="M201.527,65.902c-1.877-1.115-1.817-4.671,0.123-7.938c1.947-3.267,5.041-5.012,6.918-3.897
		c1.875,1.115,1.818,4.671-0.127,7.938C206.499,65.272,203.402,67.018,201.527,65.902z"/>
	<polygon points="145.551,10.508 144.035,7.242 145.551,8.875 145.551,4.088 146.779,8.256 148.142,6.678 147.022,8.706 
		148.142,8.932 147.466,10.508 	"/>
	
		<ellipse transform="matrix(0.1669 -0.986 0.986 0.1669 88.3556 201.2022)" fill="#FFFFFF" stroke="#000000" stroke-width="0.25" stroke-miterlimit="10" cx="163.235" cy="48.318" rx="9.744" ry="7.356"/>
	
		<ellipse transform="matrix(0.0805 -0.9968 0.9968 0.0805 98.4011 209.9616)" stroke="#FFFFFF" stroke-width="0.5" stroke-miterlimit="10" cx="163.006" cy="51.645" rx="2.304" ry="1.919"/>
	
		<path id="ventre_2_" opacity="0.1" fill="none" stroke="#000000" stroke-width="0.25" stroke-miterlimit="10" enable-background="new    " d="
		M109.357,77.691c0,0,31.878-16.993,75.905,0.651"/>
</g>
<g id="brevet_2_">
	<g>
		
			<rect x="193.399" y="118.719" transform="matrix(0.9162 -0.4008 0.4008 0.9162 -38.3295 95.8556)" fill="#FFFFFF" stroke="#000000" stroke-width="0.25" stroke-miterlimit="10" width="33.175" height="41.678"/>
		
			<line fill="none" stroke="#000000" stroke-width="0.25" stroke-miterlimit="10" x1="204.309" y1="161.764" x2="215.566" y2="156.702"/>
		
			<line fill="none" stroke="#000000" stroke-width="0.25" stroke-miterlimit="10" x1="202.909" y1="159.396" x2="214.172" y2="154.336"/>
		
			<line fill="none" stroke="#000000" stroke-width="0.25" stroke-miterlimit="10" x1="202.391" y1="158.419" x2="213.65" y2="153.357"/>
	</g>
	<polygon fill="#FFFFFF" stroke="#000000" stroke-width="0.25" stroke-miterlimit="10" points="209.096,160.016 237.191,135.966 
		211.4,103.227 183.305,127.273 	"/>
	<polygon fill="#FFFFFF" stroke="#000000" stroke-width="0.25" stroke-miterlimit="10" points="182.305,166.068 143.181,171.625 
		134.879,124.001 174.002,118.445 	"/>
	<polygon fill="#FFFFFF" stroke="#000000" stroke-width="0.25" stroke-miterlimit="10" points="173.852,172.457 134.35,169.874 
		138.207,121.792 177.708,124.374 	"/>
	
		<rect x="137.849" y="121.541" fill="#FFFFFF" stroke="#000000" stroke-width="0.25" stroke-miterlimit="10" width="39.606" height="48.209"/>
	
		<rect x="91.195" y="121.909" transform="matrix(-0.9952 -0.0981 0.0981 -0.9952 201.0381 295.3806)" fill="#FFFFFF" stroke="#000000" stroke-width="0.25" stroke-miterlimit="10" width="33.174" height="41.677"/>
	
		<line fill="none" stroke="#000000" stroke-width="0.25" stroke-miterlimit="10" x1="120.059" y1="162.104" x2="107.785" y2="160.773"/>
	
		<line fill="none" stroke="#000000" stroke-width="0.25" stroke-miterlimit="10" x1="120.655" y1="159.424" x2="108.383" y2="158.092"/>
	<line fill="none" stroke="#000000" stroke-width="0.25" stroke-miterlimit="10" x1="120.848" y1="158.333" x2="108.575" y2="157"/>
	
		<line fill="none" stroke="#000000" stroke-width="0.25" stroke-miterlimit="10" x1="121.198" y1="157.213" x2="108.924" y2="155.881"/>
	
		<line fill="none" stroke="#000000" stroke-width="0.25" stroke-miterlimit="10" x1="121.419" y1="154.896" x2="109.147" y2="153.563"/>
	
		<line fill="none" stroke="#000000" stroke-width="0.25" stroke-miterlimit="10" x1="121.473" y1="153.807" x2="109.201" y2="152.475"/>
	
		<line fill="none" stroke="#000000" stroke-width="0.25" stroke-miterlimit="10" x1="121.406" y1="151.838" x2="109.133" y2="150.505"/>
	
		<line fill="none" stroke="#000000" stroke-width="0.25" stroke-miterlimit="10" x1="121.469" y1="150.543" x2="109.196" y2="149.21"/>
	
		<line fill="none" stroke="#000000" stroke-width="0.25" stroke-miterlimit="10" x1="122.042" y1="147.313" x2="109.77" y2="145.98"/>
	
		<line fill="none" stroke="#000000" stroke-width="0.25" stroke-miterlimit="10" x1="122.079" y1="146.2" x2="109.806" y2="144.867"/>
	
		<line fill="none" stroke="#000000" stroke-width="0.25" stroke-miterlimit="10" x1="122.177" y1="142.588" x2="109.904" y2="141.255"/>
	
		<line fill="none" stroke="#000000" stroke-width="0.25" stroke-miterlimit="10" x1="122.378" y1="139.313" x2="110.105" y2="137.982"/>
	
		<rect x="81.202" y="122.026" transform="matrix(-0.9654 -0.2608 0.2608 -0.9654 154.9382 306.2889)" fill="#FFFFFF" stroke="#000000" stroke-width="0.25" stroke-miterlimit="10" width="33.172" height="41.68"/>
	
		<line fill="none" stroke="#000000" stroke-width="0.25" stroke-miterlimit="10" x1="82.175" y1="155.881" x2="101.825" y2="160.773"/>
	
		<rect x="80.708" y="117.621" transform="matrix(-0.9383 -0.3458 0.3458 -0.9383 140.7053 302.0212)" fill="#FFFFFF" stroke="#000000" stroke-width="0.25" stroke-miterlimit="10" width="33.173" height="41.676"/>
	
		<rect x="79.255" y="115.978" transform="matrix(-0.9383 -0.3458 0.3458 -0.9383 138.4582 298.3351)" fill="#FFFFFF" stroke="#000000" stroke-width="0.25" stroke-miterlimit="10" width="33.173" height="41.678"/>
	
		<rect x="77.436" y="112.632" transform="matrix(-0.9169 -0.399 0.399 -0.9169 126.9753 293.3687)" fill="#FFFFFF" stroke="#000000" stroke-width="0.25" stroke-miterlimit="10" width="33.171" height="41.674"/>
	
		<line fill="none" stroke="#000000" stroke-width="0.25" stroke-miterlimit="10" x1="74.853" y1="142.753" x2="101.021" y2="154.659"/>
	
		<line fill="none" stroke="#000000" stroke-width="0.25" stroke-miterlimit="10" x1="76.085" y1="137.285" x2="104.105" y2="150.393"/>
	
		<line fill="none" stroke="#000000" stroke-width="0.25" stroke-miterlimit="10" x1="76.728" y1="134.805" x2="104.749" y2="147.911"/>
	
		<line fill="none" stroke="#000000" stroke-width="0.25" stroke-miterlimit="10" x1="77.787" y1="133.367" x2="105.808" y2="146.475"/>
	
		<line fill="none" stroke="#000000" stroke-width="0.25" stroke-miterlimit="10" x1="78.436" y1="130.798" x2="106.457" y2="143.904"/>
	
		<line fill="none" stroke="#000000" stroke-width="0.25" stroke-miterlimit="10" x1="79.131" y1="129.375" x2="107.151" y2="142.479"/>
	
		<line fill="none" stroke="#000000" stroke-width="0.25" stroke-miterlimit="10" x1="79.94" y1="127.372" x2="107.961" y2="140.479"/>
	
		<line fill="none" stroke="#000000" stroke-width="0.25" stroke-miterlimit="10" x1="81.167" y1="125.223" x2="109.188" y2="138.326"/>
	
		<line fill="none" stroke="#000000" stroke-width="0.25" stroke-miterlimit="10" x1="81.84" y1="123.71" x2="109.861" y2="136.814"/>
	
		<line fill="none" stroke="#000000" stroke-width="0.25" stroke-miterlimit="10" x1="82.222" y1="122.492" x2="110.242" y2="135.598"/>
	
		<line fill="none" stroke="#000000" stroke-width="0.25" stroke-miterlimit="10" x1="83.604" y1="119.492" x2="111.626" y2="132.6"/>
	
		<line fill="none" stroke="#000000" stroke-width="0.25" stroke-miterlimit="10" x1="83.779" y1="118.42" x2="111.799" y2="131.525"/>
	
		<rect x="191.78" y="106.984" transform="matrix(0.8375 -0.5464 0.5464 0.8375 -35.9889 134.6126)" fill="#FFFFFF" stroke="#000000" stroke-width="0.25" stroke-miterlimit="10" width="33.177" height="41.682"/>
	<g>
		
			<rect x="138.687" y="121.957" fill="#FFFFFF" stroke="#000000" stroke-width="0.25" stroke-miterlimit="10" width="39.604" height="48.209"/>
		<g>
			
				<line fill="none" stroke="#000000" stroke-width="0.25" stroke-miterlimit="10" x1="142.918" y1="164.891" x2="173.563" y2="165.307"/>
			
				<line fill="none" stroke="#000000" stroke-width="0.25" stroke-miterlimit="10" x1="142.951" y1="162.468" x2="173.596" y2="162.883"/>
			
				<line fill="none" stroke="#000000" stroke-width="0.25" stroke-miterlimit="10" x1="142.983" y1="160.044" x2="173.628" y2="160.459"/>
			
				<line fill="none" stroke="#000000" stroke-width="0.25" stroke-miterlimit="10" x1="143.017" y1="157.621" x2="173.66" y2="158.036"/>
			
				<line fill="none" stroke="#000000" stroke-width="0.25" stroke-miterlimit="10" x1="143.049" y1="155.197" x2="173.693" y2="155.611"/>
			
				<line fill="none" stroke="#000000" stroke-width="0.25" stroke-miterlimit="10" x1="143.082" y1="152.773" x2="173.727" y2="153.188"/>
			
				<line fill="none" stroke="#000000" stroke-width="0.25" stroke-miterlimit="10" x1="143.114" y1="150.352" x2="173.759" y2="150.766"/>
			
				<line fill="none" stroke="#000000" stroke-width="0.25" stroke-miterlimit="10" x1="143.147" y1="147.928" x2="173.791" y2="148.342"/>
			
				<line fill="none" stroke="#000000" stroke-width="0.25" stroke-miterlimit="10" x1="143.18" y1="145.504" x2="173.824" y2="145.919"/>
			
				<line fill="none" stroke="#000000" stroke-width="0.25" stroke-miterlimit="10" x1="143.213" y1="143.081" x2="173.857" y2="143.496"/>
			
				<line fill="none" stroke="#000000" stroke-width="0.25" stroke-miterlimit="10" x1="143.246" y1="140.658" x2="173.891" y2="141.072"/>
			
				<line fill="none" stroke="#000000" stroke-width="0.25" stroke-miterlimit="10" x1="143.278" y1="138.234" x2="173.922" y2="138.648"/>
			
				<line fill="none" stroke="#000000" stroke-width="0.25" stroke-miterlimit="10" x1="143.311" y1="135.813" x2="173.955" y2="136.227"/>
			
				<line fill="none" stroke="#000000" stroke-width="0.25" stroke-miterlimit="10" x1="143.344" y1="133.389" x2="173.988" y2="133.803"/>
			
				<line fill="none" stroke="#000000" stroke-width="0.25" stroke-miterlimit="10" x1="143.376" y1="130.965" x2="174.021" y2="131.379"/>
			
				<line fill="none" stroke="#000000" stroke-width="0.25" stroke-miterlimit="10" x1="143.409" y1="128.541" x2="174.053" y2="128.956"/>
			
				<line fill="none" stroke="#000000" stroke-width="0.25" stroke-miterlimit="10" x1="143.442" y1="126.118" x2="174.086" y2="126.532"/>
		</g>
	</g>
	
		<line fill="none" stroke="#000000" stroke-width="0.25" stroke-miterlimit="10" x1="229.753" y1="143.439" x2="212.576" y2="154.165"/>
	
		<rect x="201.922" y="106.985" transform="matrix(0.7855 -0.6188 0.6188 0.7855 -32.2366 162.6367)" fill="#FFFFFF" stroke="#000000" stroke-width="0.25" stroke-miterlimit="10" width="33.172" height="41.678"/>
	
		<rect x="194.982" y="104.965" transform="matrix(0.7487 -0.6629 0.6629 0.7487 -30.2297 171.8611)" fill="#FFFFFF" stroke="#000000" stroke-width="0.25" stroke-miterlimit="10" width="33.173" height="41.677"/>
	
		<line fill="none" stroke="#000000" stroke-width="0.25" stroke-miterlimit="10" x1="232.66" y1="128.693" x2="211.452" y2="148.104"/>
	
		<line fill="none" stroke="#000000" stroke-width="0.25" stroke-miterlimit="10" x1="229.796" y1="123.871" x2="207.199" y2="144.996"/>
	
		<line fill="none" stroke="#000000" stroke-width="0.25" stroke-miterlimit="10" x1="228.42" y1="121.711" x2="205.82" y2="142.834"/>
	
		<line fill="none" stroke="#000000" stroke-width="0.25" stroke-miterlimit="10" x1="226.968" y1="120.671" x2="204.369" y2="141.795"/>
	
		<line fill="none" stroke="#000000" stroke-width="0.25" stroke-miterlimit="10" x1="225.559" y1="118.428" x2="202.959" y2="139.552"/>
	
		<line fill="none" stroke="#000000" stroke-width="0.25" stroke-miterlimit="10" x1="224.457" y1="117.289" x2="201.855" y2="138.414"/>
	
		<line fill="none" stroke="#000000" stroke-width="0.25" stroke-miterlimit="10" x1="223.066" y1="115.636" x2="200.469" y2="136.758"/>
	
		<line fill="none" stroke="#000000" stroke-width="0.25" stroke-miterlimit="10" x1="221.236" y1="113.971" x2="198.639" y2="135.092"/>
	
		<line fill="none" stroke="#000000" stroke-width="0.25" stroke-miterlimit="10" x1="220.128" y1="112.741" x2="197.529" y2="133.863"/>
	
		<line fill="none" stroke="#000000" stroke-width="0.25" stroke-miterlimit="10" x1="219.393" y1="111.701" x2="196.791" y2="132.823"/>
	
		<line fill="none" stroke="#000000" stroke-width="0.25" stroke-miterlimit="10" x1="217.148" y1="109.273" x2="194.549" y2="130.396"/>
</g>
</svg>
