<?xml version="1.0" encoding="utf-8"?>
<!-- Generator: Adobe Illustrator 16.0.0, SVG Export Plug-In . SVG Version: 6.00 Build 0)  -->
<!DOCTYPE svg PUBLIC "-//W3C//DTD SVG 1.1//EN" "http://www.w3.org/Graphics/SVG/1.1/DTD/svg11.dtd">
<svg version="1.1" id="Calque_1" xmlns="http://www.w3.org/2000/svg" xmlns:xlink="http://www.w3.org/1999/xlink" x="0px" y="0px"
	 width="300px" height="190px" viewBox="0 0 300 190" enable-background="new 0 0 300 190" xml:space="preserve">
<ellipse opacity="0.2" fill="#E0E0E0" cx="143.044" cy="132.025" rx="51.107" ry="44.229"/>
<ellipse opacity="0.2" fill="#E0E0E0" cx="147.974" cy="100.629" rx="101.37" ry="44.892"/>
<g>
	<path d="M141.654,46.632c-2.206-1.089-4.394-1.852-6.389-2.292c0-0.036,0.003-0.069,0.003-0.105
		c0-18.764-16.699-33.975-37.298-33.975c-20.6,0-37.299,15.211-37.299,33.975c0,0.526,0.024,1.047,0.051,1.568
		c-2.482,0.53-5.404,1.752-8.291,3.604c-6.25,4.008-9.943,9.4-8.248,12.045c1.581,2.465,7.289,1.667,13.122-1.702
		c-1.17,3.039-1.804,6.26-1.804,9.597c0,8.9,4.47,16.984,11.75,22.948c0.062,0.053,0.139,0.107,0.205,0.161
		c-0.155,0.138-0.309,0.276-0.461,0.422c-2.749,2.633-3.987,5.804-2.764,7.08s4.443,0.176,7.192-2.458
		c0.582-0.557,1.091-1.139,1.529-1.723c3.644,1.768,8.322,3.351,13.075,3.521c25.349,2.007,34.706-2.085,35.248-2.44
		c0.598-0.393,1.188-0.791,1.771-1.195c0.427,0.604,0.926,1.203,1.501,1.781c2.681,2.703,5.873,3.886,7.127,2.641
		c1.254-1.245,0.098-4.443-2.583-7.148c-0.365-0.367-0.74-0.703-1.117-1.014c7.357-6.166,12.465-13.545,12.465-22.574
		c0-4.264-1.03-8.339-2.9-12.086c6.329,2.88,12.326,3.111,13.652,0.423C152.58,54.868,148.313,49.92,141.654,46.632z"/>
	<path fill="#FFFFFF" d="M120.645,53.528c2.432-2.948,3.914-6.853,3.914-11.139c0-9.179-6.793-16.618-15.173-16.618
		c-4.672,0-8.849,2.313-11.633,5.952c-2.783-3.638-6.96-5.952-11.632-5.952c-8.379,0-15.173,7.439-15.173,16.618
		c0,4.056,1.33,7.772,3.534,10.659c-10.18,4.759-16.844,12.646-16.844,21.574c0,14.539,17.649,26.325,39.42,26.325
		s39.421-11.786,39.421-26.325C136.479,65.989,130.257,58.328,120.645,53.528z"/>
	
		<ellipse transform="matrix(-0.9932 0.1164 -0.1164 -0.9932 175.8894 78.38)" fill="#FFFFFF" stroke="#000000" stroke-width="0.25" stroke-miterlimit="10" cx="85.656" cy="44.326" rx="7.062" ry="9.521"/>
	
		<ellipse transform="matrix(-0.9962 -0.0868 0.0868 -0.9962 214.4139 97.9739)" fill="#FFFFFF" stroke="#000000" stroke-width="0.25" stroke-miterlimit="10" cx="109.336" cy="44.327" rx="7.062" ry="9.521"/>
	<ellipse stroke="#FFFFFF" stroke-width="0.5" stroke-miterlimit="10" cx="87.603" cy="44.328" rx="1.909" ry="2.376"/>
	<ellipse stroke="#FFFFFF" stroke-width="0.5" stroke-miterlimit="10" cx="110.853" cy="44.328" rx="1.909" ry="2.376"/>
	<path d="M97.011,58.767l6.533-2.98c0,0-7.791-1.765-11.859-0.02C92.246,56.483,97.011,58.767,97.011,58.767z"/>
</g>
<polygon points="94.499,12.738 92.846,9.174 94.499,10.956 94.499,5.732 95.84,10.279 97.326,8.559 96.104,10.771 97.326,11.017 
	96.588,12.738 "/>
<g>
	<g>
		<ellipse transform="matrix(0.9259 -0.3777 0.3777 0.9259 -7.1581 67.7979)" cx="169.266" cy="52.148" rx="13.235" ry="5.6"/>
		<path d="M172.407,93.059c1.204,1.404-0.015,4.375-2.722,6.636c-2.707,2.261-5.877,2.957-7.08,1.551
			c-1.205-1.404,0.014-4.375,2.721-6.636C168.032,92.349,171.202,91.655,172.407,93.059z"/>
		<path d="M221.29,102.313c1.233-1.071,4.377,0.478,7.017,3.461c2.643,2.985,3.78,6.274,2.545,7.351
			c-1.234,1.071-4.379-0.476-7.019-3.459C221.193,106.678,220.055,103.387,221.29,102.313z"/>
		<path d="M257.302,69.637c1.368-2.606-2.836-7.993-9.391-12.035c-6.556-4.042-12.979-5.205-14.349-2.601
			c-1.371,2.604,2.836,7.992,9.391,12.032C249.509,71.076,255.934,72.241,257.302,69.637z"/>
		<ellipse cx="208.271" cy="50.552" rx="35.399" ry="30.918"/>
		<path d="M248.085,75.782c0,11.804-8.499,24.946-17.942,28.646c-9.442,3.697-16.813,1.051-32.193-1.268
			c-14.243-2.145-30.387-4.501-32.159-14.126c-2.267-4.061-3.647-8.386-3.647-13.252c0-19.458,19.239-35.234,42.974-35.234
			C228.85,40.548,248.085,56.324,248.085,75.782z"/>
		<path fill="#FFFFFF" d="M242.885,78.233c0.137,10.543-7.178,22.38-15.432,25.789c-8.252,3.408-14.756,1.125-28.29-0.771
			c-12.532-1.758-26.736-3.685-28.405-12.26c-2.033-3.604-3.298-7.451-3.354-11.797c-0.221-17.384,16.496-31.692,37.342-31.957
			C225.587,46.971,242.665,60.849,242.885,78.233z"/>
		<ellipse fill="#FFFFFF" cx="197.148" cy="46.266" rx="14.313" ry="17.53"/>
		
			<ellipse transform="matrix(-0.9548 -0.2973 0.2973 -0.9548 418.5635 163.4797)" fill="#FFFFFF" cx="221.713" cy="49.912" rx="14.313" ry="17.531"/>
		<path d="M226.536,28.916c0.03-0.024,0.228,0.279,0.228,0.279c-4.459-0.399-9.031-3.883-11.541-7.133
			c0.25,2.71,2.7,5.282,5.951,7.331c6.303,3.794,12.622,4.125,17.156,1.741c6.74-4.258,5.384-13.297-0.038-20.399
			c2.901,5.584,5.326,13.351,0.388,16.862c0.276-2.482,1.553-5.186-0.761-8.132c1.11,4.596-1.373,8.951-6.976,9.527
			C228.482,29.189,226.536,28.916,226.536,28.916z"/>
	</g>
	
		<ellipse transform="matrix(-0.9888 -0.1493 0.1493 -0.9888 384.7755 119.0526)" fill="#FFFFFF" stroke="#000000" stroke-width="0.25" stroke-miterlimit="10" cx="196.856" cy="45.085" rx="6.252" ry="8.55"/>
	
		<ellipse transform="matrix(-0.9886 -0.1505 0.1505 -0.9886 383.0638 118.9937)" stroke="#FFFFFF" stroke-width="0.5" stroke-miterlimit="10" cx="196.035" cy="45" rx="1.69" ry="2.102"/>
	<path fill="#FFFFFF" stroke="#000000" stroke-width="0.25" stroke-miterlimit="10" d="M226.973,49.987
		c-0.705,4.67-4.045,8.037-7.455,7.522c-3.416-0.515-5.613-4.719-4.906-9.388c0.705-4.67,4.043-8.037,7.457-7.522
		C225.48,41.114,227.678,45.317,226.973,49.987z"/>
	
		<ellipse transform="matrix(-0.9886 -0.1506 0.1506 -0.9886 430.0756 130.5288)" stroke="#FFFFFF" stroke-width="0.5" stroke-miterlimit="10" cx="219.98" cy="48.979" rx="1.689" ry="2.101"/>
	<ellipse opacity="0.2" fill="#C5CAE9" enable-background="new    " cx="194.848" cy="43.911" rx="11.799" ry="11.292"/>
	<path d="M205.339,58.923l3.927-1.246c0,0-3.918-2.07-6.349-1.37C203.116,56.852,205.339,58.923,205.339,58.923z"/>
	
		<ellipse opacity="0.2" fill="#C5CAE9" stroke="#FDD835" stroke-miterlimit="10" enable-background="new    " cx="222.208" cy="49.054" rx="11.797" ry="11.292"/>
	<ellipse fill="none" stroke="#FB8C00" stroke-width="3" stroke-miterlimit="10" cx="222.195" cy="48.96" rx="11.785" ry="11.279"/>
	<ellipse fill="none" stroke="#FB8C00" stroke-width="3" stroke-miterlimit="10" cx="194.85" cy="44.041" rx="11.784" ry="11.279"/>
	<path fill="none" stroke="#FB8C00" stroke-width="3" stroke-miterlimit="10" d="M205.668,48.285
		c2.977-1.629,4.743,0.833,4.743,0.833"/>
	<g>
		<path fill="#FB8C00" d="M183.843,42.911c0,0-0.06-0.013-0.172-0.037c-0.106-0.029-0.289-0.054-0.474-0.125
			c-0.393-0.125-0.912-0.345-1.475-0.677c-1.117-0.663-2.322-1.847-3.104-3.387c-0.389-0.767-0.658-1.628-0.762-2.507
			c-0.058-0.434-0.053-0.885-0.008-1.313c0.047-0.429,0.156-0.847,0.299-1.212c0.154-0.374,0.369-0.687,0.58-0.932
			c0.217-0.249,0.447-0.411,0.649-0.517c0.179-0.122,0.382-0.144,0.485-0.177c0.111-0.024,0.172-0.037,0.172-0.037
			s-0.025,0.268,0.02,0.632c0.01,0.175,0.078,0.388,0.127,0.58c0.072,0.206,0.178,0.412,0.279,0.617
			c0.454,0.817,1.114,1.841,1.732,3.075c0.608,1.222,1.137,2.61,1.388,3.813c0.123,0.602,0.198,1.143,0.229,1.545
			c0.024,0.192,0.015,0.372,0.021,0.482C183.841,42.85,183.843,42.911,183.843,42.911z"/>
	</g>
</g>
<g>
	<path fill="#FB8C00" d="M243.035,44.928c0,0-0.002,0.062-0.008,0.174c-0.01,0.109-0.002,0.29-0.039,0.481
		c-0.055,0.402-0.18,0.944-0.408,1.544c-0.456,1.195-1.4,2.559-2.787,3.558c-0.691,0.495-1.488,0.899-2.357,1.123
		c-0.435,0.11-0.873,0.178-1.324,0.177c-0.438,0.006-0.889-0.068-1.276-0.188c-0.196-0.076-0.384-0.148-0.548-0.24
		c-0.165-0.109-0.313-0.209-0.438-0.313c-0.257-0.215-0.412-0.454-0.514-0.657c-0.117-0.179-0.127-0.385-0.158-0.487
		c-0.02-0.11-0.029-0.169-0.029-0.169s0.268,0.029,0.623-0.01c0.174-0.009,0.379-0.076,0.556-0.131
		c0.188-0.079,0.368-0.194,0.538-0.311c0.178-0.131,0.346-0.259,0.535-0.42c0.189-0.157,0.394-0.323,0.604-0.494
		c0.217-0.174,0.443-0.369,0.693-0.55c0.242-0.197,0.503-0.385,0.771-0.581c1.076-0.767,2.337-1.494,3.466-1.92
		c0.565-0.212,1.08-0.367,1.467-0.458c0.186-0.055,0.361-0.07,0.47-0.095C242.977,44.939,243.035,44.928,243.035,44.928z"/>
</g>
<ellipse transform="matrix(-0.8712 0.4909 -0.4909 -0.8712 240.8455 145.8034)" cx="101.296" cy="104.496" rx="14.417" ry="6.097"/>
<ellipse transform="matrix(-1 0.0048 -0.0048 -1 363.4125 208.9406)" cx="181.455" cy="104.907" rx="14.418" ry="6.099"/>
<ellipse cx="143.579" cy="94.963" rx="37.877" ry="32.646"/>
<path d="M188.316,119.76c0,15.281-18.078,34.063-28.393,33.746c-10.313-0.316-26.497-0.581-38.263-1.627
	c-11.765-1.046-24.048-18.205-24.048-32.119c0-20.088,20.306-36.373,45.353-36.373C168.014,83.387,188.316,99.672,188.316,119.76z"
	/>
</svg>
