<?xml version="1.0" encoding="utf-8"?>
<!-- Generator: Adobe Illustrator 16.0.0, SVG Export Plug-In . SVG Version: 6.00 Build 0)  -->
<!DOCTYPE svg PUBLIC "-//W3C//DTD SVG 1.1//EN" "http://www.w3.org/Graphics/SVG/1.1/DTD/svg11.dtd">
<svg version="1.1" id="hp" xmlns="http://www.w3.org/2000/svg" xmlns:xlink="http://www.w3.org/1999/xlink" x="0px" y="0px"
	 width="1200px" height="650px" viewBox="0 0 1200 650" enable-background="new 0 0 1200 650" xml:space="preserve">
<g>
	<rect x="-120.753" y="-119.725" fill="#5D4037" width="1401.141" height="841.061"/>
	<rect x="-120.753" y="473.158" fill="#FFEBEE" width="1401.141" height="278.985"/>
</g>
<ellipse opacity="0.2" fill="#A1887F" cx="578.85" cy="491.229" rx="135.333" ry="25.837"/>
<path d="M725.942,325.491c-7.205-3.558-14.35-6.05-20.865-7.489c0-0.115,0.014-0.225,0.014-0.342
	c0-61.277-54.535-110.953-121.809-110.953c-67.271,0-121.807,49.676-121.807,110.953c0,1.721,0.08,3.422,0.168,5.121
	c-8.105,1.729-17.648,5.721-27.078,11.77c-20.412,13.089-32.473,30.699-26.935,39.336c5.164,8.051,23.806,5.445,42.853-5.56
	c-3.822,9.925-5.893,20.444-5.893,31.343c0,29.064,14.598,55.462,38.371,74.945c0.203,0.167,0.453,0.35,0.672,0.522
	c-0.508,0.444-1.01,0.903-1.508,1.377c-8.979,8.601-13.02,18.952-9.025,23.122s14.508,0.574,23.488-8.027
	c1.9-1.82,3.564-3.721,4.992-5.623c11.898,5.77,27.178,10.942,42.699,11.492c82.783,6.56,113.34-6.801,115.111-7.965
	c1.955-1.285,3.881-2.587,5.785-3.908c1.389,1.963,3.021,3.928,4.898,5.819c8.756,8.826,19.18,12.686,23.277,8.617
	c4.098-4.066,0.318-14.515-8.439-23.343c-1.193-1.201-2.414-2.299-3.646-3.311c24.029-20.135,40.707-44.232,40.707-73.719
	c0-13.926-3.365-27.234-9.471-39.469c20.668,9.402,40.256,10.154,44.59,1.381C761.63,352.383,747.687,336.227,725.942,325.491z"/>
<path fill="#FFFFFF" d="M657.335,348.006c7.941-9.624,12.781-22.38,12.781-36.375c0-29.975-22.184-54.271-49.551-54.271
	c-15.258,0-28.9,7.56-37.99,19.439c-9.09-11.88-22.73-19.439-37.988-19.439c-27.365,0-49.551,24.297-49.551,54.271
	c0,13.25,4.342,25.384,11.541,34.809c-33.248,15.544-55.008,41.297-55.008,70.458c0,47.48,57.637,85.971,128.738,85.971
	c71.1,0,128.736-38.49,128.736-85.971C709.044,388.705,688.726,363.684,657.335,348.006z"/>
<path fill="#FFFFFF" stroke="#000000" stroke-width="0.25" stroke-miterlimit="10" d="M565.978,315.284
	c1.996,17.056-6.639,32.085-19.289,33.565c-12.65,1.483-24.525-11.142-26.525-28.201c-1.998-17.057,6.637-32.086,19.289-33.566
	C552.101,285.598,563.978,298.223,565.978,315.284z"/>
<path fill="#FFFFFF" stroke="#000000" stroke-width="0.25" stroke-miterlimit="10" d="M643.384,319.974
	c-1.494,17.107-12.988,30.08-25.678,28.973c-12.689-1.106-21.768-15.871-20.273-32.979c1.492-17.113,12.986-30.086,25.676-28.979
	S644.876,302.86,643.384,319.974z"/>
<ellipse stroke="#FFFFFF" stroke-width="0.5" stroke-miterlimit="10" cx="544.479" cy="317.965" rx="6.234" ry="7.756"/>
<ellipse stroke="#FFFFFF" stroke-width="0.5" stroke-miterlimit="10" cx="620.409" cy="317.965" rx="6.234" ry="7.756"/>
<path d="M580.521,362.998l14.439-6.586c0,0-17.217-3.904-26.209-0.047C569.989,357.95,580.521,362.998,580.521,362.998z"/>
<polygon points="584.782,214.537 577.802,199.502 584.782,207.021 584.782,184.982 590.437,204.167 596.704,196.906 
	591.548,206.242 596.704,207.277 593.593,214.537 "/>
<ellipse fill="none" stroke="#24582E" stroke-miterlimit="10" cx="583.481" cy="409.691" rx="4.631" ry="5.488"/>
<g>
	<path fill-rule="evenodd" clip-rule="evenodd" fill="#FDFDFD" d="M613.36,441.684c0,8.413-0.004,16.827,0.01,25.24
		c0.002,0.518-0.025,0.727-0.67,0.725c-19.457-0.023-38.916-0.023-58.373,0c-0.645,0.002-0.672-0.206-0.672-0.725
		c0.016-8.349,0.012-16.696,0.012-25.045c0.385,0.415,0.27,0.961,0.346,1.444c1.803,11.427,8.039,19.382,18.668,23.923
		c0.709,0.304,1,0.157,1.273-0.568c2.066-5.492,4.178-10.965,6.275-16.443c0.518-1.354,0.52-1.354-0.756-1.936
		c-4.463-2.041-6.707-7.238-5.113-11.84c1.658-4.782,6.553-7.484,11.414-6.303c3.949,0.96,7.02,4.434,7.316,8.285
		c0.355,4.573-1.861,8.335-5.984,10.029c-0.686,0.281-0.818,0.506-0.541,1.219c2.201,5.646,4.367,11.308,6.506,16.979
		c0.268,0.713,0.543,0.891,1.266,0.582c10.104-4.301,16.297-11.783,18.469-22.575C613.003,443.679,612.907,442.629,613.36,441.684z"
		/>
	<path fill-rule="evenodd" clip-rule="evenodd" fill="#24582E" d="M613.36,441.684c-0.453,0.945-0.357,1.995-0.555,2.991
		c-2.172,10.792-8.365,18.274-18.469,22.575c-0.723,0.309-0.998,0.131-1.266-0.582c-2.139-5.671-4.305-11.333-6.506-16.979
		c-0.277-0.713-0.145-0.938,0.541-1.219c4.123-1.694,6.34-5.456,5.984-10.029c-0.297-3.852-3.367-7.325-7.316-8.285
		c-4.861-1.182-9.756,1.521-11.414,6.303c-1.594,4.602,0.65,9.799,5.113,11.84c1.275,0.582,1.273,0.582,0.756,1.936
		c-2.098,5.479-4.209,10.951-6.275,16.443c-0.273,0.726-0.564,0.872-1.273,0.568c-10.629-4.541-16.865-12.496-18.668-23.923
		c-0.076-0.483,0.039-1.029-0.346-1.444c0-1.496,0-2.992,0-4.487c0.398-0.521,0.281-1.163,0.355-1.743
		c1.539-12.329,11.059-22.66,23.203-25.199c1.313-0.273,2.678-0.268,3.947-0.758c0.324,0,0.648,0,0.975,0
		c0.846,0.321,1.691,0.295,2.535,0c0.262,0,0.521,0,0.781,0c1.061,0.39,2.193,0.365,3.287,0.555
		c11.818,2.035,21.5,11.45,23.869,23.195c0.277,1.379,0.297,2.799,0.74,4.145C613.36,438.953,613.36,440.318,613.36,441.684z
		 M583.522,411.412c-1.506-0.037-3,0.003-4.473,0.27c-6.74,1.226-12.482,4.259-16.932,9.543c-5.852,6.945-7.947,14.986-6.203,23.811
		c1.809,9.158,7.154,15.822,15.553,19.977c1.193,0.59,1.197,0.578,1.676-0.666c1.734-4.51,3.449-9.027,5.225-13.521
		c0.334-0.846,0.121-1.236-0.602-1.693c-3.934-2.493-5.771-6.059-5.387-10.742c0.205-2.496,1.176-4.676,2.879-6.445
		c3.164-3.285,7.02-4.395,11.447-3.143c5.666,1.604,8.902,7.328,7.824,12.848c-0.654,3.343-2.502,5.859-5.416,7.604
		c-0.449,0.27-0.861,0.469-0.576,1.195c1.885,4.799,3.73,9.613,5.564,14.434c0.203,0.537,0.41,0.572,0.908,0.352
		c3.67-1.633,6.84-3.939,9.492-6.959c5.611-6.382,7.914-13.811,6.914-22.225c-0.85-7.168-4.059-13.129-9.527-17.844
		C596.618,413.658,590.478,411.412,583.522,411.412z"/>
	<path fill-rule="evenodd" clip-rule="evenodd" fill="#88A48D" d="M584.683,409.691c-0.844,0.295-1.689,0.321-2.535,0
		C582.993,409.691,583.839,409.691,584.683,409.691z"/>
	<path fill-rule="evenodd" clip-rule="evenodd" fill="#40A954" d="M583.522,411.412c6.955,0,13.096,2.246,18.367,6.793
		c5.469,4.715,8.678,10.676,9.527,17.844c1,8.414-1.303,15.843-6.914,22.225c-2.652,3.02-5.822,5.326-9.492,6.959
		c-0.498,0.221-0.705,0.186-0.908-0.352c-1.834-4.82-3.68-9.635-5.564-14.434c-0.285-0.727,0.127-0.926,0.576-1.195
		c2.914-1.744,4.762-4.261,5.416-7.604c1.078-5.52-2.158-11.244-7.824-12.848c-4.428-1.252-8.283-0.143-11.447,3.143
		c-1.703,1.77-2.674,3.949-2.879,6.445c-0.385,4.684,1.453,8.249,5.387,10.742c0.723,0.457,0.936,0.848,0.602,1.693
		c-1.775,4.494-3.49,9.012-5.225,13.521c-0.479,1.244-0.482,1.256-1.676,0.666c-8.398-4.154-13.744-10.818-15.553-19.977
		c-1.744-8.824,0.352-16.865,6.203-23.811c4.449-5.284,10.191-8.317,16.932-9.543C580.522,411.415,582.017,411.375,583.522,411.412z
		"/>
</g>
<path fill="none" stroke="#24582E" stroke-miterlimit="10" d="M461.476,317.66c3.082,8.767,110.111,195.383,243.615,0"/>
</svg>
