<?xml version="1.0" encoding="utf-8"?>
<!-- Generator: Adobe Illustrator 16.0.0, SVG Export Plug-In . SVG Version: 6.00 Build 0)  -->
<!DOCTYPE svg PUBLIC "-//W3C//DTD SVG 1.1//EN" "http://www.w3.org/Graphics/SVG/1.1/DTD/svg11.dtd">
<svg version="1.1" id="Calque_1" xmlns="http://www.w3.org/2000/svg" xmlns:xlink="http://www.w3.org/1999/xlink" x="0px" y="0px"
	 width="360px" height="640px" viewBox="0 0 360 640" enable-background="new 0 0 360 640" xml:space="preserve">
<g>
	<rect x="-520.57" y="-25.054" fill="#5D4037" width="1401.141" height="841.061"/>
	<rect x="-520.57" y="567.829" fill="#FFEBEE" width="1401.141" height="278.985"/>
</g>
<g>
	<ellipse opacity="0.2" fill="#A1887F" cx="171.976" cy="593.442" rx="90.587" ry="17.294"/>
	<path d="M270.434,482.504c-4.822-2.381-9.604-4.05-13.966-5.013c0-0.077,0.009-0.15,0.009-0.229
		c0-41.017-36.504-74.268-81.534-74.268c-45.029,0-81.533,33.251-81.533,74.268c0,1.152,0.054,2.291,0.112,3.429
		c-5.425,1.156-11.813,3.829-18.125,7.878c-13.663,8.761-21.736,20.549-18.029,26.33c3.457,5.389,15.935,3.645,28.684-3.722
		c-2.558,6.644-3.944,13.685-3.944,20.979c0,19.455,9.771,37.124,25.684,50.166c0.136,0.111,0.303,0.233,0.45,0.35
		c-0.34,0.297-0.676,0.604-1.009,0.921c-6.01,5.757-8.715,12.687-6.042,15.478c2.674,2.791,9.711,0.384,15.722-5.373
		c1.272-1.219,2.386-2.491,3.342-3.764c7.964,3.861,18.191,7.324,28.581,7.692c55.412,4.391,75.865-4.553,77.051-5.332
		c1.309-0.86,2.598-1.731,3.872-2.615c0.93,1.313,2.022,2.629,3.279,3.895c5.86,5.908,12.838,8.491,15.581,5.769
		c2.742-2.723,0.213-9.716-5.649-15.625c-0.799-0.804-1.616-1.539-2.44-2.216c16.084-13.478,27.247-29.607,27.247-49.345
		c0-9.321-2.252-18.229-6.339-26.419c13.834,6.294,26.945,6.797,29.847,0.925C294.322,500.504,284.988,489.689,270.434,482.504z"/>
	<path fill="#FFFFFF" d="M224.511,497.574c5.315-6.441,8.556-14.98,8.556-24.348c0-20.064-14.85-36.327-33.168-36.327
		c-10.213,0-19.344,5.06-25.429,13.012c-6.084-7.952-15.215-13.012-25.428-13.012c-18.317,0-33.167,16.263-33.167,36.327
		c0,8.869,2.906,16.99,7.725,23.3c-22.255,10.404-36.82,27.642-36.82,47.161c0,31.782,38.58,57.546,86.172,57.546
		c47.591,0,86.171-25.764,86.171-57.546C259.123,524.816,245.522,508.068,224.511,497.574z"/>
	
		<ellipse transform="matrix(0.9932 -0.1163 0.1163 0.9932 -54.524 20.4551)" fill="#FFFFFF" stroke="#000000" stroke-width="0.25" stroke-miterlimit="10" cx="148.027" cy="477.467" rx="15.438" ry="20.813"/>
	<path fill="#FFFFFF" stroke="#000000" stroke-width="0.25" stroke-miterlimit="10" d="M215.172,478.811
		c-1,11.451-8.693,20.135-17.188,19.394c-8.493-0.741-14.57-10.624-13.57-22.075c1-11.454,8.693-20.138,17.188-19.396
		C210.095,457.474,216.172,467.355,215.172,478.811z"/>
	<ellipse stroke="#FFFFFF" stroke-width="0.5" stroke-miterlimit="10" cx="148.97" cy="477.466" rx="4.173" ry="5.191"/>
	<ellipse stroke="#FFFFFF" stroke-width="0.5" stroke-miterlimit="10" cx="199.794" cy="477.466" rx="4.173" ry="5.191"/>
	<path d="M173.094,507.609l9.666-4.408c0,0-11.524-2.613-17.543-0.031C166.045,504.23,173.094,507.609,173.094,507.609z"/>
	<polygon points="175.947,408.235 171.274,398.172 175.947,403.205 175.947,388.453 179.731,401.294 183.927,396.435 
		180.476,402.684 183.927,403.376 181.844,408.235 	"/>
	<ellipse fill="none" stroke="#24582E" stroke-miterlimit="10" cx="175.076" cy="538.864" rx="3.1" ry="3.674"/>
	<g>
		<path fill-rule="evenodd" clip-rule="evenodd" fill="#FDFDFD" d="M195.076,560.278c0,5.632-0.003,11.264,0.006,16.896
			c0.002,0.346-0.017,0.486-0.447,0.484c-13.024-0.016-26.049-0.016-39.073,0c-0.432,0.002-0.45-0.138-0.45-0.484
			c0.01-5.589,0.008-11.176,0.008-16.765c0.257,0.278,0.18,0.644,0.231,0.967c1.207,7.648,5.381,12.974,12.496,16.014
			c0.475,0.203,0.669,0.104,0.853-0.381c1.383-3.677,2.796-7.34,4.2-11.007c0.347-0.905,0.348-0.905-0.506-1.295
			c-2.987-1.366-4.489-4.846-3.423-7.926c1.11-3.201,4.386-5.01,7.64-4.219c2.644,0.643,4.699,2.968,4.897,5.546
			c0.238,3.062-1.245,5.579-4.005,6.713c-0.458,0.188-0.547,0.339-0.362,0.816c1.473,3.778,2.923,7.568,4.354,11.364
			c0.179,0.478,0.364,0.597,0.847,0.39c6.764-2.879,10.909-7.887,12.363-15.11C194.837,561.614,194.773,560.911,195.076,560.278z"/>
		<path fill-rule="evenodd" clip-rule="evenodd" fill="#24582E" d="M195.076,560.278c-0.303,0.633-0.239,1.336-0.371,2.003
			c-1.454,7.224-5.6,12.231-12.363,15.11c-0.482,0.207-0.668,0.088-0.847-0.39c-1.431-3.796-2.881-7.586-4.354-11.364
			c-0.186-0.478-0.097-0.628,0.362-0.816c2.76-1.134,4.244-3.651,4.005-6.713c-0.198-2.578-2.253-4.903-4.897-5.546
			c-3.254-0.791-6.53,1.018-7.64,4.219c-1.066,3.08,0.436,6.56,3.423,7.926c0.854,0.39,0.853,0.39,0.506,1.295
			c-1.404,3.667-2.817,7.33-4.2,11.007c-0.183,0.485-0.378,0.584-0.853,0.381c-7.115-3.04-11.289-8.365-12.496-16.014
			c-0.051-0.323,0.026-0.688-0.231-0.967c0-1.001,0-2.003,0-3.004c0.267-0.349,0.188-0.778,0.238-1.166
			c1.03-8.253,7.402-15.168,15.531-16.868c0.879-0.183,1.792-0.179,2.642-0.507c0.217,0,0.434,0,0.652,0
			c0.566,0.215,1.132,0.197,1.697,0c0.175,0,0.349,0,0.523,0c0.71,0.261,1.468,0.244,2.2,0.371
			c7.91,1.362,14.391,7.665,15.977,15.526c0.186,0.923,0.199,1.873,0.496,2.774C195.076,558.451,195.076,559.365,195.076,560.278z
			 M175.104,540.016c-1.008-0.024-2.008,0.002-2.994,0.181c-4.512,0.82-8.355,2.851-11.333,6.388
			c-3.917,4.649-5.319,10.031-4.152,15.938c1.21,6.13,4.789,10.591,10.41,13.371c0.799,0.395,0.801,0.387,1.122-0.445
			c1.161-3.02,2.309-6.043,3.498-9.051c0.223-0.566,0.081-0.828-0.403-1.134c-2.633-1.669-3.863-4.056-3.605-7.19
			c0.137-1.671,0.787-3.13,1.927-4.314c2.118-2.199,4.699-2.941,7.663-2.104c3.792,1.073,5.958,4.905,5.237,8.6
			c-0.438,2.237-1.675,3.922-3.625,5.09c-0.301,0.181-0.577,0.313-0.386,0.8c1.262,3.212,2.497,6.435,3.725,9.661
			c0.137,0.359,0.274,0.384,0.607,0.235c2.457-1.093,4.579-2.637,6.354-4.658c3.757-4.271,5.298-9.244,4.629-14.876
			c-0.568-4.798-2.717-8.788-6.377-11.943C183.869,541.52,179.759,540.016,175.104,540.016z"/>
		<path fill-rule="evenodd" clip-rule="evenodd" fill="#88A48D" d="M175.88,538.864c-0.565,0.197-1.131,0.215-1.697,0
			C174.75,538.864,175.315,538.864,175.88,538.864z"/>
		<path fill-rule="evenodd" clip-rule="evenodd" fill="#40A954" d="M175.104,540.016c4.656,0,8.766,1.504,12.295,4.548
			c3.66,3.155,5.809,7.146,6.377,11.943c0.669,5.632-0.872,10.604-4.629,14.876c-1.774,2.021-3.896,3.565-6.354,4.658
			c-0.333,0.148-0.471,0.124-0.607-0.235c-1.228-3.227-2.463-6.449-3.725-9.661c-0.191-0.486,0.085-0.619,0.386-0.8
			c1.95-1.168,3.188-2.853,3.625-5.09c0.722-3.694-1.444-7.526-5.237-8.6c-2.964-0.838-5.544-0.096-7.663,2.104
			c-1.14,1.185-1.79,2.644-1.927,4.314c-0.258,3.135,0.973,5.521,3.605,7.19c0.484,0.306,0.626,0.567,0.403,1.134
			c-1.188,3.008-2.336,6.031-3.498,9.051c-0.32,0.832-0.323,0.84-1.122,0.445c-5.622-2.78-9.2-7.241-10.41-13.371
			c-1.167-5.907,0.235-11.289,4.152-15.938c2.978-3.537,6.822-5.567,11.333-6.388C173.096,540.018,174.096,539.991,175.104,540.016z
			"/>
	</g>
	<path fill="none" stroke="#24582E" stroke-miterlimit="10" d="M93.41,477.262c2.063,5.868,73.704,130.782,163.066,0"/>
</g>
</svg>
