<?xml version="1.0" encoding="utf-8"?>
<!-- Generator: Adobe Illustrator 16.0.0, SVG Export Plug-In . SVG Version: 6.00 Build 0)  -->
<!DOCTYPE svg PUBLIC "-//W3C//DTD SVG 1.1//EN" "http://www.w3.org/Graphics/SVG/1.1/DTD/svg11.dtd">
<svg version="1.1" id="hp" xmlns="http://www.w3.org/2000/svg" xmlns:xlink="http://www.w3.org/1999/xlink" x="0px" y="0px"
	 width="1200px" height="650px" viewBox="0 0 1200 650" enable-background="new 0 0 1200 650" xml:space="preserve">
<g id="fond">
	<rect x="-279.075" y="-159.417" fill="#FFFDE7" width="1763.206" height="883.38"/>
	<rect x="-307.499" y="608.468" fill="#5D4037" width="1784.813" height="168.489"/>
</g>
<g id="pingouin">
	<g>
		<rect x="472.185" y="46.64" fill="#AED581" width="700.165" height="393.831"/>
		<ellipse stroke="#AED581" stroke-width="5" stroke-miterlimit="10" cx="852.274" cy="304.843" rx="122.627" ry="39.724"/>
		<path fill="#E3F2FD" d="M475.49,317.415c0,0,440.306-195.487,696.861-24.401c1.321,18.79,0,147.457,0,147.457H475.49V317.415z"/>
		<g opacity="0.1">
			<image overflow="visible" width="299" height="237" xlink:href="5D37219C.png"  transform="matrix(1 0 0 1 736.5 187.6143)">
			</image>
		</g>
		<line fill="none" stroke="#AD1457" stroke-miterlimit="10" x1="841.586" y1="282.552" x2="750.413" y2="217.512"/>
		<line fill="none" stroke="#AD1457" stroke-miterlimit="10" x1="914.742" y1="259.538" x2="861.683" y2="164.891"/>
		<path d="M921.705,273.5c0.813-3.373,1.258-6.882,1.258-10.498c0-25.123-20.804-45.49-46.467-45.49s-46.467,20.367-46.467,45.49
			c0,3.616,0.443,7.125,1.256,10.498c-4.882,6.739-7.697,14.656-7.697,23.125c0,11.917,5.569,22.739,14.639,30.729
			c3.689,3.25,13.425,8.993,23.393,9.373c31.579,2.689,43.236-2.789,43.912-3.266c13.416-9.469,23.873-21.336,23.873-36.836
			C929.404,288.157,926.588,280.239,921.705,273.5z"/>
		<ellipse transform="matrix(-0.9992 0.041 -0.041 -0.9992 1668.8867 520.7201)" cx="829.099" cy="277.49" rx="18.001" ry="7.614"/>
		<ellipse transform="matrix(0.7221 -0.6918 0.6918 0.7221 3.9773 684.8364)" cx="854.384" cy="337.468" rx="9.231" ry="4.285"/>
		<ellipse transform="matrix(-0.8868 -0.4621 0.4621 -0.8868 1604.6625 1016.4264)" cx="926.807" cy="311.7" rx="9.23" ry="4.284"/>
		<ellipse transform="matrix(0.8194 -0.5732 0.5732 0.8194 15.8146 575.2867)" cx="920.877" cy="262.546" rx="18.002" ry="7.615"/>
		<ellipse fill="#FFFFFF" cx="874.03" cy="262.547" rx="20.315" ry="22.251"/>
		<ellipse fill="#FFFFFF" cx="900.768" cy="258.456" rx="20.315" ry="22.251"/>
		<path d="M894.224,276.942l4.896-3.854c0,0-6.485-1.225-9.551,1.051C890.107,274.874,894.224,276.942,894.224,276.942z"/>
		<path fill="#FFFFFF" d="M916.39,269.846h0.823c0,0,13.7,10.606,11.96,30.705c0.073,9.225-5.7,15.689-7.263,17.567
			c-1.564,1.875-9.236,13.799-22.79,17.561c-13.554,3.763-39.911,2.534-52.033-2.784c-12.12-5.32-2.864-52.624,14.596-53.119
			l0.489-0.205l28.506-11.993l22.251,2.268l-2.473,7.096"/>
		
			<ellipse transform="matrix(0.9926 -0.1211 0.1211 0.9926 -25.2792 108.0873)" fill="#FFFFFF" stroke="#000000" stroke-width="0.25" stroke-miterlimit="10" cx="876.496" cy="261.992" rx="9.456" ry="12.749"/>
		
			<ellipse transform="matrix(0.9532 -0.3022 0.3022 0.9532 -39.0153 278.1045)" stroke="#FFFFFF" stroke-width="0.5" stroke-miterlimit="10" cx="879.115" cy="265.12" rx="2.557" ry="3.181"/>
		
			<ellipse transform="matrix(0.9934 0.1144 -0.1144 0.9934 35.5044 -101.8585)" fill="#FFFFFF" stroke="#000000" stroke-width="0.25" stroke-miterlimit="10" cx="905.349" cy="258.456" rx="9.456" ry="12.749"/>
		
			<ellipse transform="matrix(0.9975 -0.0706 0.0706 0.9975 -16.2537 64.6762)" stroke="#FFFFFF" stroke-width="0.5" stroke-miterlimit="10" cx="906.175" cy="262.109" rx="2.557" ry="3.18"/>
		<path d="M892.864,276.699l4.898-3.854c0,0-6.488-1.225-9.551,1.051C888.751,274.63,892.864,276.699,892.864,276.699z"/>
		<g>
			<g>
				<g enable-background="new    ">
					<g enable-background="new    ">
						<defs>
							<path id="SVGID_1_" enable-background="new    " d="M958.678,130.107l0.044,1.682c0.01,0.388-0.554,0.891-1.655,1.387
								l-0.043-1.682C958.124,130.998,958.688,130.495,958.678,130.107z"/>
						</defs>
						<clipPath id="SVGID_2_">
							<use xlink:href="#SVGID_1_"  overflow="visible"/>
						</clipPath>
						<g clip-path="url(#SVGID_2_)" enable-background="new    ">
							<path fill="#530A2A" d="M958.678,130.107l0.044,1.682c0.01,0.388-0.554,0.891-1.655,1.387l-0.043-1.682
								C958.124,130.998,958.688,130.495,958.678,130.107"/>
						</g>
					</g>
					<g enable-background="new    ">
						<defs>
							<path id="SVGID_3_" enable-background="new    " d="M654.612,222.158l-0.043-1.682c0.008,0.301,0.362,0.531,1.079,0.633
								l0.043,1.682C654.975,222.69,654.62,222.459,654.612,222.158z"/>
						</defs>
						<clipPath id="SVGID_4_">
							<use xlink:href="#SVGID_3_"  overflow="visible"/>
						</clipPath>
						<g clip-path="url(#SVGID_4_)" enable-background="new    ">
							<path fill="#530A2A" d="M655.648,221.109l0.043,1.682c-0.094-0.013-0.181-0.029-0.262-0.046l-0.044-1.682
								C655.467,221.081,655.555,221.096,655.648,221.109"/>
							<path fill="#570A2C" d="M655.386,221.063l0.044,1.682c-0.223-0.048-0.398-0.111-0.53-0.188l-0.043-1.682
								C654.987,220.952,655.164,221.016,655.386,221.063"/>
							<path fill="#5B0A2E" d="M654.856,220.876l0.043,1.682c-0.188-0.109-0.283-0.245-0.287-0.399l-0.043-1.682
								C654.573,220.631,654.668,220.767,654.856,220.876"/>
						</g>
					</g>
					<g>
						<polygon fill="#500928" points="957.023,131.494 957.066,133.176 736.816,232.358 736.773,230.677 						"/>
					</g>
					<g>
						<polygon fill="#580A2C" points="730.268,231.843 730.311,233.525 655.691,222.792 655.648,221.109 						"/>
					</g>
					<g enable-background="new    ">
						<defs>
							<path id="SVGID_5_" enable-background="new    " d="M736.773,230.677l0.043,1.682c-1.285,0.579-2.985,1.003-4.464,1.159
								c-0.771,0.081-1.48,0.088-2.042,0.007l-0.043-1.682c0.561,0.081,1.271,0.073,2.041-0.007
								C733.788,231.68,735.487,231.255,736.773,230.677z"/>
						</defs>
						<clipPath id="SVGID_6_">
							<use xlink:href="#SVGID_5_"  overflow="visible"/>
						</clipPath>
						<g clip-path="url(#SVGID_6_)" enable-background="new    ">
							<path fill="#530A2A" d="M736.773,230.677l0.043,1.682c-1.285,0.579-2.985,1.003-4.464,1.159
								c-0.771,0.081-1.48,0.088-2.042,0.007l-0.043-1.682c0.561,0.081,1.271,0.073,2.041-0.007
								C733.788,231.68,735.487,231.255,736.773,230.677"/>
						</g>
					</g>
					<g>
						<path fill="#A31352" d="M880.944,118.749c0.769-0.081,1.477-0.089,2.038-0.011l74.619,10.733
							c1.638,0.237,1.377,1.142-0.578,2.022l-220.25,99.183c-1.286,0.579-2.985,1.003-4.465,1.159
							c-0.77,0.081-1.48,0.088-2.041,0.007l-74.619-10.733c-1.637-0.232-1.385-1.136,0.569-2.016l220.25-99.188
							C877.756,119.329,879.461,118.905,880.944,118.749z"/>
					</g>
				</g>
			</g>
		</g>
	</g>
	<g>
		<g>
			<g>
				<path d="M471.009,41.87h705.158v398.834H471.009V41.87z M1171.173,435.7V46.873H476.003V435.7H1171.173"/>
			</g>
		</g>
	</g>
	<line fill="none" stroke="#000000" stroke-miterlimit="10" x1="650.531" y1="46.64" x2="650.531" y2="-29.378"/>
	<line fill="none" stroke="#000000" stroke-miterlimit="10" x1="1021.381" y1="46.64" x2="1021.381" y2="-29.378"/>
	<g>
		<path fill-rule="evenodd" clip-rule="evenodd" d="M1108.992,394.836c18.027,0,36.056,0,54.085,0c0.832,0,0.716-0.096,0.716,0.672
			c0.004,11.322,0.004,22.648,0,33.977c0,0.698,0.112,0.63-0.71,0.63c-36.095,0-72.189,0-108.281,0.014
			c-0.523,0-0.622-0.15-0.622-0.593c0.014-11.372,0.018-22.752-0.004-34.127c0-0.505,0.172-0.583,0.673-0.583
			C1072.896,394.836,1090.943,394.836,1108.992,394.836z"/>
		<path fill-rule="evenodd" clip-rule="evenodd" fill="#ADADAD" d="M1108.959,395.68c17.336,0,34.666,0,52.001,0
			c0.235,0,0.478-0.008,0.713,0.008c0.753,0.044,1.118,0.369,1.186,1.067c0.014,0.162,0.014,0.334,0.014,0.497
			c0,7.218,0,14.435,0,21.651c0,0.698,0,0.698-0.78,0.698c-24.564,0-49.134,0-73.698-0.013c-0.653,0-1.017,0.163-1.39,0.681
			c-3.334,4.689-8.069,7.162-14.203,7.015c-5.836-0.141-10.29-2.673-13.396-7.173c-0.271-0.39-0.537-0.545-1.037-0.522
			c-0.893,0.039-1.792-0.005-2.683,0.021c-0.415,0.009-0.583-0.094-0.583-0.506c0.013-7.381,0.009-14.764,0.013-22.148
			c0-0.956,0.415-1.276,1.569-1.276C1074.107,395.68,1091.533,395.68,1108.959,395.68z"/>
		<path fill-rule="evenodd" clip-rule="evenodd" fill="#FDFDFD" d="M1110.197,424.854c0.866,0.502,1.161,1.048,0.972,1.801
			c-0.184,0.73-0.763,1.076-1.524,1.186c-1.067,0.152-2.15,0.03-3.224,0.065c-0.222,0.011-0.281-0.099-0.281-0.277
			c0.004-1.671,0.004-3.344,0-5.011c-0.006-0.227,0.11-0.285,0.334-0.281c0.912,0.007,1.825-0.011,2.737,0.018
			c0.678,0.021,1.355,0.136,1.612,0.816C1111.07,423.831,1110.908,424.422,1110.197,424.854z"/>
		<path fill-rule="evenodd" clip-rule="evenodd" fill="#FDFDFD" d="M1134.288,428.02c-1.488-0.014-2.38-0.542-2.65-1.463
			c-0.12-0.397-0.008-0.543,0.45-0.518c0.407,0.021,0.751-0.052,0.935,0.479c0.222,0.64,1.702,0.764,2.193,0.249
			c0.279-0.291,0.201-0.66-0.196-0.882c-0.316-0.18-0.686-0.223-1.033-0.327c-0.416-0.116-0.853-0.201-1.242-0.372
			c-1.132-0.493-1.298-1.724-0.365-2.473c0.851-0.686,2.683-0.678,3.51,0.025c0.122,0.104,0.229,0.224,0.313,0.348
			c0.175,0.257,0.399,0.626,0.186,0.823c-0.257,0.239-0.725,0.085-1.102,0.072c-0.112,0-0.107-0.119-0.146-0.188
			c-0.304-0.553-0.972-0.792-1.594-0.566c-0.253,0.091-0.425,0.245-0.45,0.517c-0.021,0.285,0.141,0.443,0.407,0.521
			c0.488,0.136,0.981,0.266,1.475,0.386c1.194,0.291,1.733,0.819,1.688,1.662c-0.052,0.912-0.737,1.521-1.91,1.681
			C1134.557,428.02,1134.355,428.02,1134.288,428.02z"/>
		<path fill-rule="evenodd" clip-rule="evenodd" fill="#FDFDFD" d="M1139.812,422.344c0.531-0.115,0.735,0.112,0.903,0.549
			c0.584,1.522,1.21,3.034,1.843,4.543c0.167,0.398,0.061,0.46-0.372,0.488c-0.626,0.043-1.003-0.111-1.084-0.714
			c-0.062-0.443-0.33-0.636-0.823-0.549c-0.107,0.016-0.22,0.012-0.33,0c-0.871-0.108-1.573,0.003-1.705,0.989
			c-0.03,0.228-1.156,0.386-1.304,0.206c-0.085-0.112-0.008-0.231,0.034-0.334c0.669-1.62,1.354-3.237,1.997-4.866
			C1139.151,422.199,1139.521,422.387,1139.812,422.344z"/>
		<path fill-rule="evenodd" clip-rule="evenodd" fill="#FCFCFC" d="M1112.328,422.337c0.465-0.142,0.746,0.133,0.976,0.544
			c0.262,0.458,0.575,0.891,0.854,1.341c0.154,0.245,0.265,0.218,0.408-0.008c0.316-0.506,0.642-1.004,0.967-1.508
			c0.197-0.304,1.167-0.537,1.491-0.349c0.225,0.133,0.03,0.266-0.038,0.377c-0.536,0.832-1.045,1.684-1.637,2.481
			c-0.364,0.489-0.34,0.999-0.34,1.526c0,0.166,0,0.334,0,0.5c0,0.668,0,0.636-0.736,0.675c-0.491,0.024-0.663-0.126-0.59-0.559
			c0.184-1.136-0.189-2.117-0.922-3.028c-0.386-0.481-0.664-1.037-1.021-1.539c-0.258-0.36-0.205-0.504,0.279-0.454
			C1112.09,422.344,1112.164,422.337,1112.328,422.337z"/>
		<path fill-rule="evenodd" clip-rule="evenodd" d="M1087.522,411.215c0.214,7.765-7.045,13.214-14.263,13.225
			c-7.667,0.011-14.336-6.149-14.288-13.238c0.046-6.646,6.084-13.183,14.407-13.078
			C1081.308,398.222,1087.514,403.887,1087.522,411.215z"/>
		<path fill-rule="evenodd" clip-rule="evenodd" d="M1122.646,407.421c0.065,5.872-5.409,9.892-10.859,9.743
			c-5.833-0.164-10.481-4.652-10.333-10.008c0.154-5.435,5.014-9.635,10.977-9.483
			C1118.163,397.822,1122.779,402.224,1122.646,407.421z"/>
		<path fill-rule="evenodd" clip-rule="evenodd" d="M1148.578,407.432c0.138,5.527-5.004,9.758-10.633,9.736
			c-5.768-0.021-10.553-4.449-10.536-9.814c0.012-5.379,4.762-9.694,10.645-9.681
			C1143.985,397.685,1148.584,401.949,1148.578,407.432z"/>
		<path fill-rule="evenodd" clip-rule="evenodd" fill="#030303" d="M1108.411,426.943c-0.944,0.004-0.944,0.004-0.949-0.875
			c0-0.647,0-0.647,0.703-0.647c0.274,0,0.546-0.008,0.82,0.006c0.587,0.032,0.878,0.285,0.886,0.75
			c0.005,0.479-0.264,0.724-0.861,0.762C1108.809,426.95,1108.608,426.943,1108.411,426.943z"/>
		<path fill-rule="evenodd" clip-rule="evenodd" fill="#040404" d="M1108.295,424.599c-0.163,0-0.326-0.013-0.488,0
			c-0.267,0.021-0.33-0.094-0.348-0.321c-0.064-0.99-0.073-0.99,0.985-0.978c0.202,0,0.403-0.004,0.601,0.025
			c0.347,0.049,0.563,0.232,0.587,0.562c0.025,0.343-0.155,0.588-0.523,0.661c-0.265,0.051-0.539,0.047-0.81,0.068
			C1108.299,424.607,1108.295,424.604,1108.295,424.599z"/>
		<path fill-rule="evenodd" clip-rule="evenodd" fill="#060606" d="M1139.841,423.856c0.201,0.527,0.399,1.055,0.601,1.582
			c0.081,0.21,0.008,0.287-0.246,0.309c-1.216,0.113-1.245,0.081-0.84-0.968c0.122-0.309,0.246-0.617,0.365-0.931
			C1139.759,423.853,1139.802,423.853,1139.841,423.856z"/>
		<path fill-rule="evenodd" clip-rule="evenodd" fill="#FEFEFE" d="M1061.564,411.232c-0.057-5.529,5.189-10.827,11.765-10.74
			c6.556,0.085,11.629,4.787,11.664,10.839c0.035,6.394-6.073,10.773-11.721,10.7
			C1066.839,421.946,1061.539,417.122,1061.564,411.232z"/>
		<path fill-rule="evenodd" clip-rule="evenodd" fill="#FEFEFE" d="M1103.384,407.396c-0.163-3.904,3.724-8.061,8.756-7.976
			c4.778,0.078,8.531,3.552,8.601,8.006c0.067,4.559-4.282,7.983-8.661,7.958C1107.291,415.363,1103.387,411.798,1103.384,407.396z"
			/>
		<path fill-rule="evenodd" clip-rule="evenodd" fill="#FEFEFE" d="M1129.319,407.393c-0.073-4.14,3.938-8.13,8.945-7.972
			c4.762,0.154,8.506,3.734,8.421,8.221c-0.087,4.379-4.067,7.821-8.941,7.739C1133.159,415.304,1129.243,411.588,1129.319,407.393z
			"/>
		<path fill-rule="evenodd" clip-rule="evenodd" d="M1067.736,411.322c0.037,0.308,0.024,0.659,0.122,1.003
			c0.203,0.673,0.615,1.144,1.399,1.245c0.801,0.104,1.504-0.092,1.923-0.771c0.19-0.305,0.348-0.309,0.631-0.15
			c0.325,0.189,0.664,0.357,1.012,0.502c0.278,0.12,0.274,0.236,0.124,0.458c-0.908,1.364-2.662,2.004-4.586,1.655
			c-1.643-0.295-2.838-1.448-3.107-2.995c-0.227-1.316-0.11-2.571,0.814-3.665c1.65-1.95,5.225-1.885,6.767,0.1
			c0.249,0.316,0.231,0.484-0.176,0.616c-0.153,0.048-0.29,0.143-0.437,0.207c-0.292,0.136-0.578,0.354-0.887,0.376
			c-0.334,0.03-0.383-0.387-0.601-0.574c-0.806-0.694-2.224-0.472-2.704,0.437C1067.773,410.247,1067.753,410.765,1067.736,411.322z
			"/>
		<path fill-rule="evenodd" clip-rule="evenodd" d="M1073.421,411.353c-0.032-2.062,1.125-3.574,3.031-4.03
			c1.754-0.419,3.622,0.13,4.585,1.317c0.264,0.32,0.331,0.543-0.166,0.693c-0.154,0.043-0.291,0.134-0.438,0.197
			c-0.295,0.133-0.581,0.355-0.887,0.377c-0.338,0.026-0.376-0.391-0.6-0.578c-0.839-0.707-2.275-0.48-2.716,0.493
			c-0.426,0.925-0.411,1.889-0.027,2.827c0.241,0.587,0.752,0.884,1.431,0.936c0.731,0.056,1.378-0.13,1.729-0.732
			c0.229-0.394,0.437-0.334,0.753-0.155c0.249,0.138,0.506,0.279,0.776,0.369c0.441,0.153,0.493,0.325,0.205,0.687
			c-1.094,1.371-2.866,1.924-4.77,1.442c-1.663-0.419-2.717-1.649-2.868-3.352C1073.445,411.665,1073.432,411.481,1073.421,411.353z
			"/>
		<path fill-rule="evenodd" clip-rule="evenodd" d="M1110.411,411.331c0-0.634-0.016-1.27,0.009-1.903
			c0.014-0.337-0.085-0.468-0.484-0.459c-0.729,0.022-0.732,0-0.732-0.647c0-1.049,0-2.104,0.003-3.153
			c0.005-0.578,0.229-0.793,0.855-0.797c1.328-0.009,2.661-0.006,3.993,0.004c0.612,0,0.845,0.222,0.849,0.802
			c0.007,1.136-0.014,2.268,0.007,3.403c0.011,0.346-0.137,0.411-0.475,0.406c-0.736-0.009-0.736,0.005-0.736,0.698
			c0,1.188-0.014,2.37,0.008,3.552c0.004,0.334-0.081,0.478-0.484,0.465c-0.802-0.021-1.604-0.015-2.405,0
			c-0.304,0.003-0.419-0.082-0.411-0.369C1110.424,412.663,1110.411,411.995,1110.411,411.331z"/>
		<path fill-rule="evenodd" clip-rule="evenodd" fill="#010101" d="M1113.515,402.49c-0.004,0.739-0.644,1.344-1.439,1.357
			c-0.802,0.014-1.509-0.629-1.505-1.367c0.004-0.753,0.672-1.347,1.513-1.34C1112.893,401.147,1113.515,401.734,1113.515,402.49z"
			/>
		<path fill-rule="evenodd" clip-rule="evenodd" d="M1136.631,406.115c-0.69,0.609-1.291,1.144-1.889,1.675
			c-0.099,0.091-0.19,0.168-0.323,0.048c-0.62-0.548-1.246-1.103-1.854-1.727c0.676,0.051,0.771-0.309,0.895-0.742
			c0.721-2.464,3.438-3.685,6.275-2.847c2.321,0.692,3.731,2.679,3.65,5.151c-0.085,2.542-1.705,4.44-4.233,4.965
			c-2.824,0.581-5.323-0.829-5.862-3.288c-0.077-0.338,0.017-0.407,0.352-0.397c0.619,0.016,1.241,0.007,1.863,0.004
			c0.223-0.004,0.385,0.029,0.424,0.273c0.115,0.793,0.626,1.26,1.469,1.415c0.949,0.172,1.822,0.08,2.486-0.666
			c1.005-1.125,1.09-3.702,0.159-4.89c-0.916-1.164-3.304-0.998-3.95,0.274C1135.813,405.919,1135.859,406.004,1136.631,406.115z"/>
	</g>
	<ellipse fill="#3E2723" cx="785.807" cy="645.909" rx="135.276" ry="14.091"/>
	<g>
		<polygon points="785.546,399.21 779.121,385.368 785.546,392.289 785.546,372.002 790.753,389.662 796.525,382.979 
			791.775,391.572 796.525,392.526 793.66,399.21 		"/>
		<path d="M912.006,497.983c-6.419-3.168-12.783-5.39-18.588-6.672c0-0.103,0.01-0.2,0.01-0.303
			c0-54.589-48.578-98.84-108.506-98.84c-59.93,0-108.51,44.251-108.51,98.84c0,1.531,0.07,3.045,0.15,4.562
			c-7.223,1.54-15.721,5.096-24.121,10.482c-18.185,11.66-28.928,27.349-23.995,35.042c4.602,7.171,21.208,4.852,38.174-4.953
			c-3.403,8.843-5.249,18.212-5.249,27.922c0,25.89,13.005,49.406,34.182,66.761c0.182,0.151,0.404,0.313,0.599,0.468
			c-0.452,0.396,14.717,11.359,15.987,9.664c10.601,5.139,24.211,9.747,38.038,10.238c73.746,5.841,100.965-6.061,102.543-7.097
			c1.74-1.143,3.457-2.304,5.151-3.482c1.24,1.748,15.433-9.98,14.336-10.882c21.405-17.936,36.263-39.402,36.263-65.67
			c0-12.406-2.999-24.262-8.438-35.159c18.411,8.376,35.86,9.046,39.72,1.229C943.797,521.939,931.375,507.548,912.006,497.983z"/>
	</g>
</g>
</svg>
