<?xml version="1.0" encoding="utf-8"?>
<!-- Generator: Adobe Illustrator 16.0.0, SVG Export Plug-In . SVG Version: 6.00 Build 0)  -->
<!DOCTYPE svg PUBLIC "-//W3C//DTD SVG 1.1//EN" "http://www.w3.org/Graphics/SVG/1.1/DTD/svg11.dtd">
<svg version="1.1" id="Calque_1" xmlns="http://www.w3.org/2000/svg" xmlns:xlink="http://www.w3.org/1999/xlink" x="0px" y="0px"
	 width="360px" height="640px" viewBox="0 0 360 640" enable-background="new 0 0 360 640" xml:space="preserve">
<g>
	<rect x="-170.137" y="-121.481" fill="#B71C1C" width="676.688" height="1062.543"/>
	<rect x="-175.187" y="557.207" fill="#212121" width="739.221" height="409.613"/>
</g>
<ellipse opacity="0.5" enable-background="new    " cx="175.742" cy="593.152" rx="109.333" ry="13.614"/>
<path d="M263.126,483.938c1.58-6.087,2.439-12.426,2.439-18.951c0-45.357-40.366-82.127-90.161-82.127
	c-49.796,0-90.161,36.77-90.161,82.127c0,6.525,0.859,12.864,2.438,18.951c-9.476,12.168-14.937,26.46-14.937,41.752
	c0,21.514,10.806,41.053,28.401,55.474c7.162,5.871,26.052,16.237,45.388,16.925c61.276,4.854,83.895-5.035,85.205-5.896
	c26.033-17.094,46.324-38.521,46.324-66.502C278.063,510.398,272.601,496.106,263.126,483.938z"/>
<ellipse transform="matrix(0.83 0.5578 -0.5578 0.83 293.4113 45.0945)" cx="72.731" cy="503.867" rx="13.747" ry="32.499"/>
<ellipse transform="matrix(-0.5352 -0.8448 0.8448 -0.5352 -348.888 988.2889)" cx="97.472" cy="590.137" rx="7.737" ry="16.665"/>
<ellipse transform="matrix(-0.5127 0.8586 -0.8586 -0.5127 877.6725 682.5154)" cx="245.144" cy="590.334" rx="7.737" ry="16.664"/>
<path d="M295.888,519.249c5.473-5.261-0.164-20.017-12.597-32.964c-12.438-12.947-26.953-19.178-32.428-13.917
	c-5.479,5.259,0.162,20.017,12.594,32.962C275.894,518.277,290.409,524.508,295.888,519.249z"/>
<ellipse fill="#FFFFFF" cx="178.082" cy="526.9" rx="95.292" ry="72.166"/>
<ellipse fill="#FFFFFF" cx="149.075" cy="454.734" rx="36.677" ry="40.171"/>
<ellipse fill="#FFFFFF" cx="201.215" cy="459.589" rx="36.676" ry="40.171"/>
<polygon points="176.531,386.633 172.154,377.202 176.531,381.919 176.531,368.095 180.079,380.129 184.011,375.575 180.776,381.43 
	184.011,382.079 182.06,386.633 "/>
<path fill="#FFFFFF" stroke="#000000" stroke-width="0.25" stroke-miterlimit="10" d="M163.021,450.274
	c1.199,9.37-5.224,17.517-14.344,18.193c-9.121,0.68-17.486-6.369-18.686-15.741c-0.352-2.736-0.05-5.367,0.776-7.74
	c0.467-1.341,1.625-2.955,1.989-3.816C132.786,441.105,159.743,449.283,163.021,450.274z"/>
<ellipse stroke="#FFFFFF" stroke-width="0.5" stroke-miterlimit="10" cx="146.602" cy="451.836" rx="3.997" ry="4.973"/>
<path d="M173.911,485.018l10.758-4.906c0,0-12.827-2.907-19.526-0.034C166.063,481.256,173.911,485.018,173.911,485.018z"/>
<line fill="none" stroke="#000000" stroke-width="0.25" stroke-miterlimit="10" x1="163.021" y1="450.274" x2="127.712" y2="439.651"/>
<path fill="#FFFFFF" stroke="#000000" stroke-width="0.25" stroke-miterlimit="10" d="M183.855,451.037
	c-1.2,9.371,5.223,17.516,14.343,18.193c9.121,0.68,17.486-6.369,18.687-15.74c0.35-2.738,0.051-5.369-0.776-7.742
	c-0.467-1.34-1.626-2.955-1.991-3.816C214.09,441.868,187.134,450.045,183.855,451.037z"/>
<ellipse stroke="#FFFFFF" stroke-width="0.5" stroke-miterlimit="10" cx="200.274" cy="452.836" rx="3.997" ry="4.973"/>
<line fill="none" stroke="#000000" stroke-width="0.25" stroke-miterlimit="10" x1="183.855" y1="451.037" x2="219.165" y2="440.413"/>
<polygon points="171.411,266.684 157.009,313.398 180.573,304.453 156.013,348.684 171.411,311.907 153.14,314.889 161.59,276.622 
	"/>
<polygon points="204.891,261.212 190.487,307.928 214.054,298.982 189.491,343.212 204.891,306.436 186.618,309.418 
	195.069,271.151 "/>
</svg>
