<?xml version="1.0" encoding="utf-8"?>
<!-- Generator: Adobe Illustrator 16.0.0, SVG Export Plug-In . SVG Version: 6.00 Build 0)  -->
<!DOCTYPE svg PUBLIC "-//W3C//DTD SVG 1.1//EN" "http://www.w3.org/Graphics/SVG/1.1/DTD/svg11.dtd">
<svg version="1.1" id="hp" xmlns="http://www.w3.org/2000/svg" xmlns:xlink="http://www.w3.org/1999/xlink" x="0px" y="0px"
	 width="1200px" height="650px" viewBox="0 0 1200 650" enable-background="new 0 0 1200 650" xml:space="preserve">
<g>
	<rect x="-111.5" y="-228.235" fill="#8E24AA" width="1448" height="885.235"/>
	<rect x="-111.5" y="529.561" fill="#E0E0E0" width="1448" height="210.637"/>
</g>
<ellipse opacity="0.5" fill="#BDBDBD" cx="611.343" cy="560.461" rx="192.74" ry="9.539"/>
<g>
	<path d="M697.627,442.218c1.646-6.349,2.545-12.959,2.545-19.766c0-47.313-42.104-85.661-94.041-85.661
		c-51.937,0-94.043,38.352-94.043,85.661c0,6.807,0.898,13.417,2.545,19.766c-9.883,12.692-15.58,27.6-15.58,43.55
		c0,22.438,11.271,42.819,29.623,57.86c7.476,6.124,27.174,16.938,47.345,17.65c63.909,5.063,87.506-5.252,88.87-6.147
		c27.152-17.829,48.316-40.178,48.316-69.363C713.207,469.817,707.51,454.91,697.627,442.218z"/>
	
		<ellipse transform="matrix(0.7779 -0.6284 0.6284 0.7779 -156.0667 407.9585)" cx="499.076" cy="424.755" rx="14.338" ry="33.898"/>
	<ellipse transform="matrix(0.6918 0.7221 -0.7221 0.6918 562.2582 -215.5011)" cx="533.572" cy="550.892" rx="8.068" ry="17.381"/>
	<path d="M666.623,538.586c3.164-3.143,11.209-0.16,17.971,6.649c6.765,6.815,9.683,14.886,6.519,18.021
		c-3.166,3.142-11.211,0.162-17.976-6.651C666.377,549.793,663.459,541.725,666.623,538.586z"/>
	<ellipse transform="matrix(0.5983 0.8013 -0.8013 0.5983 625.7335 -394.9392)" cx="706.756" cy="426.6" rx="14.339" ry="33.901"/>
	<ellipse fill="#FFFFFF" cx="581.346" cy="396.86" rx="38.256" ry="41.9"/>
	<ellipse fill="#FFFFFF" cx="640.005" cy="396.86" rx="38.255" ry="41.9"/>
	<path fill="#FFFFFF" d="M686.445,442.218c-51.451-59.072-131.525-44.174-157.437,0c-5.838,10.255-13.4,27.6-13.4,43.55
		c0,22.438,9.693,42.819,25.482,57.86c6.429,6.124,23.379,16.938,40.73,17.65c54.983,5.063,75.279-5.252,76.459-6.147
		c23.356-17.829,41.563-40.178,41.563-69.363C699.848,469.817,699.725,459.856,686.445,442.218z"/>
	<polygon points="603.92,337.682 600.107,329.471 603.92,333.577 603.92,321.542 607.008,332.019 610.43,328.055 607.615,333.151 
		610.43,333.718 608.729,337.682 	"/>
	
		<ellipse transform="matrix(0.0803 0.9968 -0.9968 0.0803 923.3698 -220.4695)" fill="#FFFFFF" stroke="#000000" stroke-width="0.25" stroke-miterlimit="10" cx="581.155" cy="390.131" rx="21.859" ry="18.059"/>
	<path d="M605.66,427.845l12.381-5.648c0,0-14.764-3.346-22.475-0.036C596.629,423.516,605.66,427.845,605.66,427.845z"/>
	<ellipse stroke="#FFFFFF" stroke-width="0.5" stroke-miterlimit="10" cx="581.346" cy="390.452" rx="3.816" ry="4.748"/>
	
		<ellipse transform="matrix(-0.1235 0.9923 -0.9923 -0.1235 1105.9658 -190.1568)" fill="#FFFFFF" stroke="#000000" stroke-width="0.25" stroke-miterlimit="10" cx="636.962" cy="393.353" rx="22.952" ry="18.06"/>
	
		<ellipse transform="matrix(-0.2026 0.9793 -0.9793 -0.2026 1151.823 -150.8035)" stroke="#FFFFFF" stroke-width="0.5" stroke-miterlimit="10" cx="637.308" cy="393.536" rx="4.747" ry="3.814"/>
</g>
<g>
	<g>
		<g enable-background="new    ">
			<g enable-background="new    ">
				<g>
					<g>
						<g>
							<defs>
								<path id="SVGID_1_" d="M492.598,440.096c-0.643-0.311-1.282-0.621-1.927-0.932c-0.875-0.423-1.553-1.17-1.825-2.142
									l1.93,0.935C491.045,438.926,491.723,439.673,492.598,440.096z"/>
							</defs>
							<clipPath id="SVGID_2_">
								<use xlink:href="#SVGID_1_"  overflow="visible"/>
							</clipPath>
							<g clip-path="url(#SVGID_2_)" enable-background="new    ">
								<path fill="#291B18" d="M492.598,440.096l-1.927-0.932c-0.875-0.423-1.553-1.17-1.825-2.142l1.93,0.935
									C491.045,438.926,491.723,439.673,492.598,440.096"/>
							</g>
						</g>
					</g>
				</g>
			</g>
			<g>
				<polygon fill="#466225" points="547.618,296.052 545.691,295.12 519.618,201.927 521.545,202.858 				"/>
			</g>
			<g>
				<polygon fill="#271A17" points="490.773,437.957 488.846,437.025 457.352,324.479 459.278,325.411 				"/>
			</g>
			<g>
				<polygon fill="#2C1D1A" points="459.278,325.411 457.352,324.479 464.949,322.222 466.876,323.153 				"/>
			</g>
			<g>
				<path fill="#452E29" d="M466.876,323.153l31.496,112.551c0.537,1.92-0.725,3.98-2.825,4.604
					c-0.272,0.082-0.552,0.134-0.825,0.16c-1.808,0.17-3.479-0.841-3.946-2.509l-31.498-112.546L466.876,323.153z"/>
			</g>
			<g>
				<polygon fill="#4F6E2A" points="381.361,345.451 379.434,344.521 545.691,295.12 547.618,296.052 				"/>
			</g>
			<g>
				<polygon fill="#909090" points="355.288,252.268 353.361,251.337 519.618,201.927 521.545,202.858 				"/>
			</g>
			<g>
				<polygon fill="#808080" points="381.361,345.451 379.434,344.521 353.361,251.337 355.288,252.268 				"/>
			</g>
			<g>
				<path fill="#7BAC41" d="M523.594,199.146l27.687,98.931l-84.401,25.077l-7.598,2.261l-79.966,23.762l-27.685-98.929
					L523.594,199.146z M381.361,345.451l166.257-49.399l-26.073-93.193l-166.257,49.409L381.361,345.451"/>
			</g>
			<g>
				<polygon fill="#E1E1E1" points="521.545,202.858 547.619,296.052 381.361,345.451 355.288,252.268 				"/>
			</g>
			<g>
				<polygon fill="#4F6E2A" points="351.629,250.245 349.702,249.313 521.667,198.215 523.594,199.146 				"/>
			</g>
			<g>
				<polygon fill="#466225" points="379.313,349.173 377.385,348.241 349.702,249.313 351.629,250.245 				"/>
			</g>
		</g>
	</g>
</g>
<text transform="matrix(0.9616 -0.2743 0.2743 0.9616 392.4229 280.7744)" font-family="'Roboto-Medium'" font-size="26.9967">PLUS DE</text>
<text transform="matrix(0.9616 -0.2743 0.2743 0.9616 386.605 316.127)" font-family="'Roboto-Medium'" font-size="26.9967">LICENCES !</text>
<ellipse cx="485.13" cy="409.751" rx="8.766" ry="9.81"/>
<g>
	<g>
		<g enable-background="new    ">
			<g>
				<polygon fill="#805A00" points="826.438,350.735 824.51,349.804 845.549,254.732 847.477,255.664 				"/>
			</g>
			<g enable-background="new    ">
				<g>
					<g>
						<g>
							<defs>
								<path id="SVGID_3_" d="M712.098,453.215c-0.643-0.31-1.281-0.621-1.927-0.931c-1.559-0.756-2.463-2.402-2.093-4.045
									l1.928,0.932C709.636,450.813,710.539,452.462,712.098,453.215z"/>
							</defs>
							<clipPath id="SVGID_4_">
								<use xlink:href="#SVGID_3_"  overflow="visible"/>
							</clipPath>
							<g clip-path="url(#SVGID_4_)" enable-background="new    ">
								<path fill="#291B18" d="M712.098,453.215l-1.927-0.931c-1.559-0.756-2.463-2.402-2.093-4.045l1.928,0.932
									C709.636,450.813,710.539,452.462,712.098,453.215"/>
							</g>
						</g>
					</g>
				</g>
			</g>
			<g>
				<polygon fill="#271A17" points="710.006,449.171 708.078,448.239 733.49,333.425 735.418,334.356 				"/>
			</g>
			<g>
				<polygon fill="#2F201C" points="735.418,334.356 733.49,333.425 741.188,335.07 743.115,336.001 				"/>
			</g>
			<g>
				<path fill="#452E29" d="M735.418,334.356l7.697,1.646l-25.413,114.816c-0.344,1.561-1.729,2.649-3.347,2.805
					c-0.419,0.039-0.854,0.016-1.288-0.078c-2.136-0.446-3.503-2.414-3.063-4.373L735.418,334.356z"/>
			</g>
			<g>
				<polygon fill="#9B6D00" points="657.896,314.716 655.969,313.785 824.51,349.804 826.438,350.735 				"/>
			</g>
			<g>
				<polygon fill="#808080" points="657.896,314.717 655.969,313.786 677.008,218.714 678.936,219.645 				"/>
			</g>
			<g>
				<polygon fill="#E1E1E1" points="678.936,219.645 847.477,255.664 826.438,350.735 657.896,314.717 				"/>
			</g>
			<g>
				<polygon fill="#9B9B9B" points="678.936,219.645 677.008,218.714 845.549,254.732 847.477,255.664 				"/>
			</g>
			<g>
				<polygon fill="#805A00" points="654.352,317.03 652.425,316.1 674.771,215.171 676.698,216.103 				"/>
			</g>
			<g>
				<polygon fill="#9B6D00" points="676.698,216.103 674.771,215.171 849.084,252.428 851.012,253.358 				"/>
			</g>
			<g>
				<path fill="#E19E00" d="M676.698,216.103l174.313,37.256l-22.337,100.929l-85.56-18.285l-7.697-1.646l-81.066-17.325
					L676.698,216.103z M826.438,350.735l21.036-95.069l-168.541-36.021l-21.036,95.071L826.438,350.735"/>
			</g>
		</g>
	</g>
</g>
<text transform="matrix(0.9765 0.2155 -0.2155 0.9765 702.3398 263.9385)" font-family="'Roboto-Medium'" font-size="27">PLUS DE</text>
<text transform="matrix(0.9765 0.2155 -0.2155 0.9765 680.4238 292.2813)" font-family="'Roboto-Medium'" font-size="27">LICENCES !</text>
<ellipse cx="723.342" cy="414.95" rx="10.135" ry="8.227"/>
<g id="deco">
</g>
<g id="Calque_1_-_copie_2">
</g>
</svg>
