<?xml version="1.0" encoding="utf-8"?>
<!-- Generator: Adobe Illustrator 16.0.0, SVG Export Plug-In . SVG Version: 6.00 Build 0)  -->
<!DOCTYPE svg PUBLIC "-//W3C//DTD SVG 1.1//EN" "http://www.w3.org/Graphics/SVG/1.1/DTD/svg11.dtd">
<svg version="1.1" id="hp" xmlns="http://www.w3.org/2000/svg" xmlns:xlink="http://www.w3.org/1999/xlink" x="0px" y="0px"
	 width="1200px" height="650px" viewBox="0 0 1200 650" enable-background="new 0 0 1200 650" xml:space="preserve">
<g id="fond">
	<rect x="-322.44" y="-182.1" fill="#B71C1C" width="1864.87" height="893.545"/>
	<rect x="-352.867" y="521.196" fill="#212121" width="2037.203" height="208.521"/>
</g>
<g>
	<ellipse opacity="0.5" enable-background="new    " cx="568.103" cy="545.749" rx="109.334" ry="13.614"/>
	<path d="M655.486,436.535c1.58-6.087,2.438-12.425,2.438-18.951c0-45.357-40.366-82.127-90.161-82.127
		c-49.796,0-90.161,36.77-90.161,82.127c0,6.526,0.859,12.864,2.438,18.951c-9.476,12.168-14.937,26.46-14.937,41.752
		c0,21.514,10.805,41.053,28.4,55.474c7.163,5.871,26.052,16.237,45.388,16.925c61.276,4.854,83.895-5.034,85.205-5.896
		c26.033-17.093,46.324-38.521,46.324-66.502C670.424,462.995,664.961,448.703,655.486,436.535z"/>
	<ellipse transform="matrix(0.83 0.5578 -0.5578 0.83 333.6781 -181.8122)" cx="465.089" cy="456.469" rx="13.747" ry="32.5"/>
	
		<ellipse transform="matrix(-0.5351 -0.8448 0.8448 -0.5351 293.4566 1246.9551)" cx="489.834" cy="542.731" rx="7.737" ry="16.664"/>
	
		<ellipse transform="matrix(-0.5127 0.8586 -0.8586 -0.5127 1430.4827 273.9442)" cx="637.498" cy="542.932" rx="7.737" ry="16.664"/>
	<path d="M688.248,471.846c5.473-5.261-0.164-20.017-12.596-32.964c-12.438-12.947-26.953-19.178-32.429-13.917
		c-5.479,5.259,0.162,20.018,12.595,32.962C668.254,470.874,682.771,477.104,688.248,471.846z"/>
	<ellipse fill="#FFFFFF" cx="570.443" cy="479.497" rx="95.292" ry="72.166"/>
	<ellipse fill="#FFFFFF" cx="541.436" cy="407.331" rx="36.678" ry="40.171"/>
	<ellipse fill="#FFFFFF" cx="593.575" cy="412.186" rx="36.676" ry="40.171"/>
	<polygon points="568.892,339.229 564.515,329.799 568.892,334.516 568.892,320.691 572.439,332.726 576.371,328.172 
		573.137,334.026 576.371,334.676 574.42,339.229 	"/>
	<path fill="#FFFFFF" stroke="#000000" stroke-width="0.25" stroke-miterlimit="10" d="M555.381,402.871
		c1.199,9.371-5.223,17.517-14.344,18.194c-9.12,0.679-17.486-6.369-18.686-15.741c-0.351-2.737-0.05-5.368,0.776-7.741
		c0.467-1.34,1.625-2.955,1.99-3.816C525.146,393.702,552.104,401.88,555.381,402.871z"/>
	<ellipse stroke="#FFFFFF" stroke-width="0.5" stroke-miterlimit="10" cx="538.962" cy="404.433" rx="3.997" ry="4.973"/>
	<path d="M566.271,437.614l10.759-4.907c0,0-12.828-2.907-19.527-0.034C558.424,433.853,566.271,437.614,566.271,437.614z"/>
	
		<line fill="none" stroke="#000000" stroke-width="0.25" stroke-miterlimit="10" x1="555.381" y1="402.871" x2="520.072" y2="392.248"/>
	<path fill="#FFFFFF" stroke="#000000" stroke-width="0.25" stroke-miterlimit="10" d="M576.216,403.634
		c-1.2,9.371,5.224,17.517,14.343,18.193c9.121,0.68,17.486-6.369,18.687-15.74c0.35-2.738,0.051-5.369-0.776-7.742
		c-0.467-1.34-1.626-2.955-1.991-3.815C606.45,394.465,579.494,402.642,576.216,403.634z"/>
	<ellipse stroke="#FFFFFF" stroke-width="0.5" stroke-miterlimit="10" cx="592.635" cy="405.433" rx="3.997" ry="4.973"/>
	
		<line fill="none" stroke="#000000" stroke-width="0.25" stroke-miterlimit="10" x1="576.216" y1="403.634" x2="611.525" y2="393.01"/>
	<polygon points="563.771,219.28 549.369,265.995 572.934,257.05 548.373,301.28 563.771,264.504 545.5,267.485 553.949,229.219 	
		"/>
	<polygon points="597.251,213.809 582.848,260.524 606.414,251.579 581.852,295.809 597.251,259.033 578.979,262.015 
		587.43,223.748 	"/>
</g>
</svg>
