<?xml version="1.0" encoding="utf-8"?>
<!-- Generator: Adobe Illustrator 16.0.0, SVG Export Plug-In . SVG Version: 6.00 Build 0)  -->
<!DOCTYPE svg PUBLIC "-//W3C//DTD SVG 1.1//EN" "http://www.w3.org/Graphics/SVG/1.1/DTD/svg11.dtd">
<svg version="1.1" id="hp" xmlns="http://www.w3.org/2000/svg" xmlns:xlink="http://www.w3.org/1999/xlink" x="0px" y="0px"
	 width="1200px" height="650px" viewBox="0 0 1200 650" enable-background="new 0 0 1200 650" xml:space="preserve">
<g id="fond">
	<rect x="-93" y="-104.053" fill="#4FC3F7" width="1427.715" height="833.834"/>
	<rect x="-93" y="391" fill="#E1F5FE" width="1427.715" height="338.781"/>
</g>
<g id="pingouin">
	<path opacity="0.2" fill="#EF5350" enable-background="new    " d="M386.97,455.637c0,0-116.673,44.022-117.003,59.679
		c-0.33,15.655,17.996,20.348,30.298-8.549c0,0,10.773,0.877,12.406-3.793c1.633-4.67,262.36,66.092,316.331,137.377
		c3.969,41.287,25.553,32.896,31.762,24.092c6.207-8.805-29.063-24.817-29.063-24.817s97.27-89.32,248.668-198.506
		c9.268,6.519,16.889,21.206,28.078,3.862c11.188-17.345-50.144-6.873-50.144-6.873L386.97,455.637z"/>
	<g>
		<path fill="#B71C1C" d="M625.761,633.879c0,0,13.943,46.541,29.584,36.607C670.985,660.554,652.321,648.298,625.761,633.879z"/>
		<path fill="#E53935" d="M306.522,484.313c0,0,144.917-163.068,306.867-136.57c161.951,26.499,268.931,91.725,268.931,91.725
			S634.093,553.613,630.317,620.879C528.701,482.271,306.522,484.313,306.522,484.313z"/>
		<path fill="#E53935" d="M306.522,493.647c0,0,144.917-163.068,306.867-136.569c92.464,15.129,167.005,42.881,213.953,63.911
			c35.281,15.805-193.25,141.959-197.024,209.226C528.701,491.608,306.522,493.647,306.522,493.647z"/>
		<path fill="#C62828" d="M306.522,499.225v-16.272c0,0,222.377,1.378,323.795,136.566
			c32.108-76.807,155.805-132.188,252.002-181.41c-92.148,69.271-179.123,120.91-253.875,190.749
			C529.249,533.198,306.522,499.225,306.522,499.225z"/>
		<path fill="#B71C1C" d="M312.67,496.164c0,3.001-2.434,5.435-5.436,5.435H305.7c-3.002,0-5.436-2.434-5.436-5.435v-7.875
			c0-3.002,2.433-5.437,5.436-5.437h1.535c3.002,0,5.436,2.435,5.436,5.437L312.67,496.164L312.67,496.164z"/>
		<path fill="#B71C1C" d="M306.522,488.353c0,0-45.701,16.482-34.921,31.556C282.379,534.977,293.588,515.667,306.522,488.353z"/>
		<path fill="#B71C1C" d="M637.138,634.188c0,3.004-2.436,5.438-5.438,5.438h-1.535c-3.002,0-5.436-2.434-5.436-5.438v-7.872
			c0-3.003,2.434-5.437,5.436-5.437h1.535c3.002,0,5.438,2.435,5.438,5.437V634.188z"/>
		<path fill="#B71C1C" d="M880.503,435.184c1.439,0.033,2.574,1.225,2.543,2.66l-0.02,0.734c-0.031,1.438-1.224,2.573-2.658,2.54
			l-3.767-0.087c-1.438-0.032-2.575-1.225-2.541-2.66l0.017-0.734c0.033-1.437,1.225-2.571,2.66-2.539L880.503,435.184z"/>
		<path fill="#B71C1C" d="M878.552,438.426c0,0,27.931,16.241,31.002,4.31C912.628,430.803,897.997,433.344,878.552,438.426z"/>
	</g>
	<path fill="none" stroke="#C62828" stroke-miterlimit="10" d="M489.702,498.828c74.448-19.52,179.065,11.253,179.065,11.253"/>
	<path fill="none" stroke="#C62828" stroke-miterlimit="10" d="M456.151,427.459c0,0,21.682-0.489,34.917,22.178"/>
	<path fill="none" stroke="#C62828" stroke-miterlimit="10" d="M450.304,444.932c25.332-12.628,44,4.705,44,4.705"/>
	<path fill="none" stroke="#C62828" stroke-miterlimit="10" d="M700.97,380.906c0,0-25.746-7.398-39.539,16.394"/>
	<path fill="none" stroke="#C62828" stroke-miterlimit="10" d="M715.948,431.161c-33.527-7.794-43.646,13.771-43.646,13.771"/>
	<path fill="none" stroke="#C62828" stroke-miterlimit="10" d="M715.948,471.549c-28.021-19.787-57.064-11.386-57.064-11.386"/>
	<path fill="none" stroke="#C62828" stroke-miterlimit="10" d="M484.887,375.637c12.749-0.667,16.86,11.199,16.86,11.199"/>
	<path opacity="0.9" fill="#B71C1C" enable-background="new    " d="M504.956,354.166c0,0-16.959,14.111-11.639,36.291
		c5.317,22.18-34.338,39.006-34.338,39.006s9.82,12.266,22.988,4.72c-5.332,10.954,0,22.69,0,22.69l-12.979,11.092
		c2.646,6.172,14.008,14.246,24.329,11.459c14.817,12.213,92.317,60.213,173.317-1.787c62-53,5.668-97.817,5.668-97.817
		L504.956,354.166z"/>
	<g id="pingoui">
		<path d="M674.116,400.304c1.567-5.383,2.424-10.984,2.424-16.755c0-40.101-40.121-72.607-89.616-72.607
			c-49.493,0-89.614,32.508-89.614,72.607c0,5.771,0.854,11.372,2.425,16.755c-9.418,10.757-14.848,23.393-14.848,36.913
			c0,19.021,10.739,36.295,28.229,49.043c7.119,5.19,25.895,14.356,45.114,14.964c60.903,4.291,73.683-0.024,84.688-5.214
			c11.006-5.188,46.043-34.055,46.043-58.793C688.962,423.695,683.532,411.061,674.116,400.304z"/>
		
			<ellipse transform="matrix(0.5398 0.8418 -0.8418 0.5398 568.151 -219.5544)" cx="484.883" cy="409.862" rx="13.931" ry="32.936"/>
		<ellipse transform="matrix(-0.0639 -0.998 0.998 -0.0639 48.8619 981.8234)" cx="484.894" cy="467.996" rx="7.842" ry="16.889"/>
		
			<ellipse transform="matrix(-0.1139 0.9935 -0.9935 -0.1139 1223.9518 -148.578)" cx="678.235" cy="471.537" rx="7.841" ry="16.888"/>
		<ellipse transform="matrix(0.4427 -0.8967 0.8967 0.4427 18.1088 841.234)" cx="685.791" cy="406.049" rx="13.932" ry="32.936"/>
		<ellipse fill="#FFFFFF" cx="587.639" cy="427.459" rx="96.571" ry="52.116"/>
		<ellipse fill="#FFFFFF" cx="556.427" cy="365.327" rx="37.17" ry="40.71"/>
		<ellipse fill="#FFFFFF" cx="613.421" cy="365.327" rx="37.169" ry="40.71"/>
		<path stroke="#FFFFFF" stroke-width="0.5" stroke-miterlimit="10" d="M569.989,361.803c-24.844-4.277-37.492,0.776-37.492,0.776
			s-2.086,0.48-0.07-3.374c17.097-7.679,37.493-0.776,37.493-0.776S571.738,361.767,569.989,361.803z"/>
		<path stroke="#FFFFFF" stroke-width="0.5" stroke-miterlimit="10" d="M634.013,361.803c-24.844-4.277-37.492,0.776-37.492,0.776
			s-2.085,0.48-0.068-3.374c17.095-7.679,37.491-0.776,37.491-0.776S635.763,361.767,634.013,361.803z"/>
		<path d="M584.107,377.45l8.846-4.035c0,0-10.549-2.391-16.058-0.028C577.654,374.357,584.107,377.45,584.107,377.45z"/>
		<polygon points="586.397,313.94 582.9,306.403 586.397,310.173 586.397,299.124 589.234,308.741 592.378,305.103 589.792,309.782 
			592.378,310.302 590.816,313.94 		"/>
	</g>
</g>
</svg>
