<?xml version="1.0" encoding="utf-8"?>
<!-- Generator: Adobe Illustrator 16.0.0, SVG Export Plug-In . SVG Version: 6.00 Build 0)  -->
<!DOCTYPE svg PUBLIC "-//W3C//DTD SVG 1.1//EN" "http://www.w3.org/Graphics/SVG/1.1/DTD/svg11.dtd">
<svg version="1.1" id="Calque_1" xmlns="http://www.w3.org/2000/svg" xmlns:xlink="http://www.w3.org/1999/xlink" x="0px" y="0px"
	 width="360px" height="640px" viewBox="270 163.074 360 640" enable-background="new 270 163.074 360 640" xml:space="preserve">
<g>
	<rect x="-105.968" y="138.656" fill="#FFFDE7" width="1130.153" height="654.495"/>
	<rect x="-124.187" y="738.314" fill="#5D4037" width="1144.003" height="111.833"/>
</g>
<g>
	<rect x="328.099" y="550.231" fill="#AED581" width="246.163" height="138.465"/>
	<ellipse stroke="#AED581" stroke-width="5" stroke-miterlimit="10" cx="461.731" cy="641.012" rx="43.114" ry="13.966"/>
	<path fill="#E3F2FD" d="M329.261,645.434c0,0,154.804-68.73,245.003-8.581c0.465,6.605,0,51.844,0,51.844H329.261V645.434z"/>
	<g opacity="0.1">
		<image overflow="visible" width="152" height="130" xlink:href="1FC8F52B.png"  transform="matrix(1 0 0 1 397.5 576.5742)">
		</image>
	</g>
	<line fill="none" stroke="#AD1457" stroke-miterlimit="10" x1="457.975" y1="633.175" x2="425.918" y2="610.307"/>
	<line fill="none" stroke="#AD1457" stroke-miterlimit="10" x1="483.692" y1="625.083" x2="465.039" y2="591.808"/>
	<path d="M486.141,629.993c0.287-1.188,0.443-2.421,0.443-3.692c0-8.833-7.314-15.994-16.338-15.994
		c-9.021,0-16.336,7.161-16.336,15.994c0,1.271,0.156,2.505,0.441,3.692c-1.717,2.37-2.705,5.151-2.705,8.129
		c0,4.189,1.957,7.996,5.146,10.805c1.297,1.143,4.72,3.161,8.225,3.296c11.102,0.945,15.202-0.98,15.438-1.148
		c4.718-3.329,8.395-7.503,8.395-12.952C488.849,635.145,487.858,632.363,486.141,629.993z"/>
	<ellipse transform="matrix(-0.9992 0.0411 -0.0411 -0.9992 932.7417 1243.608)" cx="453.582" cy="631.396" rx="6.33" ry="2.676"/>
	<ellipse transform="matrix(0.7223 -0.6916 0.6916 0.7223 -322.8168 501.0436)" cx="462.473" cy="652.481" rx="3.245" ry="1.506"/>
	
		<ellipse transform="matrix(-0.8868 -0.4622 0.4622 -0.8868 623.2369 1439.5173)" cx="487.935" cy="643.423" rx="3.245" ry="1.507"/>
	<ellipse transform="matrix(0.8193 -0.5734 0.5734 0.8193 -271.2122 391.7076)" cx="485.851" cy="626.141" rx="6.329" ry="2.677"/>
	<ellipse fill="#FFFFFF" cx="469.378" cy="626.141" rx="7.142" ry="7.823"/>
	<ellipse fill="#FFFFFF" cx="478.781" cy="624.703" rx="7.143" ry="7.821"/>
	<path d="M476.479,631.202l1.722-1.355c0,0-2.28-0.429-3.359,0.37C475.032,630.475,476.479,631.202,476.479,631.202z"/>
	<path fill="#FFFFFF" d="M484.272,628.708h0.29c0,0,4.815,3.729,4.204,10.795c0.025,3.243-2.003,5.517-2.553,6.176
		c-0.55,0.658-3.249,4.852-8.013,6.174c-4.765,1.322-14.032,0.892-18.293-0.979c-4.262-1.869-1.009-18.5,5.131-18.674l0.172-0.072
		l10.021-4.217l7.824,0.798l-0.87,2.494"/>
	
		<ellipse transform="matrix(0.9926 -0.121 0.121 0.9926 -72.3032 61.5172)" fill="#FFFFFF" stroke="#000000" stroke-width="0.25" stroke-miterlimit="10" cx="470.247" cy="625.946" rx="3.324" ry="4.483"/>
	
		<ellipse transform="matrix(0.953 -0.303 0.303 0.953 -167.8466 172.2418)" stroke="#FFFFFF" stroke-width="0.5" stroke-miterlimit="10" cx="471.167" cy="627.046" rx="0.899" ry="1.119"/>
	
		<ellipse transform="matrix(0.9934 0.1143 -0.1143 0.9934 74.541 -50.8079)" fill="#FFFFFF" stroke="#000000" stroke-width="0.25" stroke-miterlimit="10" cx="480.39" cy="624.703" rx="3.324" ry="4.48"/>
	
		<ellipse transform="matrix(0.9975 -0.0712 0.0712 0.9975 -43.3325 35.7974)" stroke="#FFFFFF" stroke-width="0.5" stroke-miterlimit="10" cx="480.682" cy="625.987" rx="0.899" ry="1.118"/>
	<path d="M476.002,631.115l1.721-1.354c0,0-2.281-0.429-3.357,0.37C474.556,630.39,476.002,631.115,476.002,631.115z"/>
	<g>
		<g>
			<g enable-background="new    ">
				<g enable-background="new    ">
					<defs>
						<path id="SVGID_1_" enable-background="new    " d="M499.129,579.032c0.015,0.561,0.028,1.121,0.043,1.682
							c0.004,0.136-0.193,0.313-0.578,0.488l-0.043-1.682C498.936,579.345,499.132,579.168,499.129,579.032z"/>
					</defs>
					<clipPath id="SVGID_2_">
						<use xlink:href="#SVGID_1_"  overflow="visible"/>
					</clipPath>
					<g clip-path="url(#SVGID_2_)" enable-background="new    ">
						<path fill="#530A2A" d="M499.129,579.032l0.043,1.682c0.004,0.136-0.193,0.313-0.578,0.488l-0.043-1.682
							C498.936,579.345,499.132,579.168,499.129,579.032"/>
					</g>
				</g>
				<g enable-background="new    ">
					<defs>
						<path id="SVGID_3_" enable-background="new    " d="M392.249,612.484c-0.015-0.561-0.029-1.121-0.043-1.682
							c0.002,0.106,0.127,0.188,0.379,0.227l0.043,1.682C392.376,612.673,392.251,612.591,392.249,612.484z"/>
					</defs>
					<clipPath id="SVGID_4_">
						<use xlink:href="#SVGID_3_"  overflow="visible"/>
					</clipPath>
					<g clip-path="url(#SVGID_4_)" enable-background="new    ">
						<path fill="#530A2A" d="M392.585,611.029l0.043,1.682c-0.029-0.005-0.057-0.01-0.083-0.016l-0.043-1.682
							C392.527,611.02,392.555,611.024,392.585,611.029"/>
						<path fill="#570A2C" d="M392.501,611.014l0.043,1.682c-0.081-0.018-0.146-0.04-0.193-0.068l-0.043-1.682
							C392.356,610.973,392.42,610.996,392.501,611.014"/>
						<path fill="#5B0A2E" d="M392.309,610.945l0.043,1.682c-0.067-0.039-0.102-0.087-0.103-0.143l-0.043-1.682
							C392.207,610.857,392.241,610.906,392.309,610.945"/>
					</g>
				</g>
				<g>
					<polygon fill="#500928" points="498.551,579.521 498.594,581.202 421.148,616.073 421.105,614.392 					"/>
				</g>
				<g>
					<polygon fill="#580A2C" points="418.826,614.798 418.869,616.48 392.628,612.711 392.585,611.029 					"/>
				</g>
				<g enable-background="new    ">
					<defs>
						<path id="SVGID_5_" enable-background="new    " d="M421.105,614.392l0.043,1.682c-0.444,0.202-1.039,0.35-1.558,0.403
							c-0.272,0.029-0.524,0.032-0.722,0.004l-0.043-1.683c0.198,0.028,0.449,0.025,0.721-0.003
							C420.066,614.74,420.661,614.593,421.105,614.392z"/>
					</defs>
					<clipPath id="SVGID_6_">
						<use xlink:href="#SVGID_5_"  overflow="visible"/>
					</clipPath>
					<g clip-path="url(#SVGID_6_)" enable-background="new    ">
						<path fill="#530A2A" d="M421.105,614.392l0.043,1.682c-0.444,0.202-1.039,0.35-1.558,0.403
							c-0.272,0.029-0.524,0.032-0.722,0.004l-0.043-1.683c0.198,0.028,0.449,0.025,0.721-0.003
							C420.066,614.74,420.661,614.593,421.105,614.392"/>
					</g>
				</g>
				<g>
					<path fill="#A31352" d="M471.79,575.038c0.271-0.028,0.521-0.031,0.718-0.003l26.242,3.774
						c0.574,0.082,0.485,0.397-0.199,0.711l-77.446,34.871c-0.444,0.201-1.039,0.349-1.558,0.403
						c-0.272,0.028-0.523,0.031-0.721,0.003l-26.241-3.769c-0.576-0.088-0.487-0.402,0.2-0.711l77.436-34.87
						C470.672,575.242,471.27,575.093,471.79,575.038z"/>
				</g>
			</g>
		</g>
	</g>
</g>
<g>
	<g>
		<g>
			<path d="M326.065,546.938h251.163v143.46H326.065V546.938z M572.224,685.394V551.933H331.06v133.461H572.224"/>
		</g>
	</g>
</g>
<line fill="none" stroke="#000000" stroke-miterlimit="10" x1="390.802" y1="550.231" x2="390.802" y2="523.507"/>
<line fill="none" stroke="#000000" stroke-miterlimit="10" x1="521.187" y1="550.231" x2="521.187" y2="523.507"/>
<g>
	<path fill-rule="evenodd" clip-rule="evenodd" d="M551.988,672.651c6.336,0,12.676,0,19.015,0c0.292,0,0.252-0.032,0.252,0.236
		c0.001,3.979,0.001,7.963,0,11.945c0,0.246,0.04,0.222-0.251,0.222c-12.69,0-25.378,0-38.068,0.005
		c-0.185,0-0.219-0.054-0.219-0.209c0.004-3.997,0.008-7.997-0.002-11.998c0-0.177,0.062-0.204,0.236-0.204
		C539.298,672.651,545.642,672.651,551.988,672.651z"/>
	<path fill-rule="evenodd" clip-rule="evenodd" fill="#ADADAD" d="M551.977,672.948c6.095,0,12.187,0,18.283,0
		c0.083,0,0.167-0.003,0.249,0.003c0.266,0.017,0.394,0.13,0.418,0.376c0.005,0.057,0.005,0.117,0.005,0.174
		c0,2.538,0,5.074,0,7.611c0,0.246,0,0.246-0.275,0.246c-8.636,0-17.274,0-25.91-0.005c-0.23,0-0.358,0.06-0.49,0.239
		c-1.17,1.649-2.837,2.519-4.993,2.467c-2.051-0.05-3.617-0.939-4.708-2.522c-0.096-0.136-0.19-0.19-0.365-0.184
		c-0.315,0.015-0.631-0.001-0.944,0.009c-0.146,0.003-0.203-0.035-0.203-0.178c0.003-2.594,0.002-5.191,0.003-7.787
		c0-0.336,0.146-0.449,0.553-0.449C539.723,672.948,545.849,672.948,551.977,672.948z"/>
	<path fill-rule="evenodd" clip-rule="evenodd" fill="#FDFDFD" d="M552.413,683.205c0.304,0.177,0.406,0.369,0.339,0.633
		c-0.063,0.258-0.267,0.379-0.534,0.417c-0.377,0.055-0.758,0.012-1.133,0.023c-0.08,0.003-0.1-0.034-0.1-0.098
		c0.002-0.586,0.002-1.176,0-1.762c-0.002-0.079,0.038-0.1,0.116-0.099c0.321,0.001,0.644-0.005,0.964,0.006
		c0.239,0.008,0.476,0.049,0.566,0.286C552.719,682.847,552.662,683.054,552.413,683.205z"/>
	<path fill-rule="evenodd" clip-rule="evenodd" fill="#FDFDFD" d="M560.882,684.318c-0.524-0.006-0.838-0.19-0.932-0.514
		c-0.044-0.142-0.003-0.19,0.157-0.183c0.144,0.008,0.265-0.018,0.329,0.169c0.078,0.225,0.6,0.267,0.771,0.087
		c0.1-0.103,0.07-0.231-0.069-0.309c-0.111-0.065-0.24-0.08-0.364-0.117c-0.146-0.04-0.299-0.07-0.435-0.132
		c-0.398-0.171-0.458-0.604-0.131-0.868c0.3-0.24,0.944-0.238,1.234,0.008c0.044,0.038,0.081,0.08,0.111,0.123
		c0.063,0.091,0.14,0.221,0.065,0.289c-0.091,0.085-0.255,0.03-0.388,0.027c-0.039,0-0.039-0.042-0.053-0.067
		c-0.105-0.194-0.342-0.278-0.559-0.198c-0.09,0.031-0.15,0.086-0.158,0.18c-0.008,0.102,0.049,0.157,0.144,0.187
		c0.171,0.047,0.344,0.092,0.518,0.134c0.42,0.103,0.61,0.287,0.593,0.585c-0.019,0.321-0.26,0.534-0.671,0.591
		C560.976,684.318,560.905,684.318,560.882,684.318z"/>
	<path fill-rule="evenodd" clip-rule="evenodd" fill="#FDFDFD" d="M562.823,682.321c0.187-0.039,0.259,0.041,0.317,0.194
		c0.206,0.533,0.426,1.068,0.648,1.598c0.059,0.14,0.021,0.161-0.131,0.172c-0.221,0.014-0.354-0.04-0.381-0.251
		c-0.021-0.156-0.118-0.224-0.29-0.194c-0.038,0.006-0.077,0.005-0.116,0c-0.307-0.036-0.554,0.002-0.6,0.35
		c-0.011,0.078-0.407,0.135-0.457,0.071c-0.03-0.039-0.004-0.081,0.012-0.118c0.235-0.568,0.476-1.138,0.701-1.709
		C562.59,682.273,562.721,682.337,562.823,682.321z"/>
	<path fill-rule="evenodd" clip-rule="evenodd" fill="#FCFCFC" d="M553.161,682.32c0.163-0.048,0.262,0.047,0.343,0.19
		c0.093,0.162,0.201,0.314,0.301,0.472c0.054,0.086,0.092,0.076,0.143-0.003c0.111-0.178,0.227-0.353,0.34-0.529
		c0.068-0.107,0.41-0.189,0.524-0.122c0.079,0.047,0.01,0.093-0.013,0.131c-0.188,0.295-0.368,0.594-0.576,0.874
		c-0.129,0.171-0.119,0.351-0.119,0.537c0,0.057,0,0.115,0,0.176c0,0.234,0,0.222-0.26,0.235c-0.172,0.011-0.233-0.043-0.207-0.195
		c0.064-0.399-0.065-0.743-0.323-1.064c-0.138-0.169-0.234-0.365-0.359-0.542c-0.091-0.126-0.073-0.177,0.099-0.159
		C553.078,682.321,553.104,682.32,553.161,682.32z"/>
	<path fill-rule="evenodd" clip-rule="evenodd" d="M544.438,678.409c0.076,2.731-2.477,4.646-5.014,4.649
		c-2.695,0.005-5.04-2.161-5.022-4.653c0.015-2.337,2.139-4.634,5.063-4.598C542.255,673.843,544.436,675.833,544.438,678.409z"/>
	<path fill-rule="evenodd" clip-rule="evenodd" d="M556.788,677.076c0.023,2.063-1.9,3.478-3.817,3.426
		c-2.05-0.058-3.687-1.636-3.635-3.519c0.056-1.91,1.765-3.389,3.861-3.334C555.213,673.701,556.835,675.248,556.788,677.076z"/>
	<path fill-rule="evenodd" clip-rule="evenodd" d="M565.904,677.08c0.05,1.943-1.759,3.431-3.735,3.423
		c-2.029-0.007-3.713-1.563-3.706-3.449c0.005-1.894,1.675-3.409,3.743-3.404C564.29,673.653,565.908,675.153,565.904,677.08z"/>
	<path fill-rule="evenodd" clip-rule="evenodd" fill="#030303" d="M551.783,683.939c-0.332,0.002-0.332,0.002-0.334-0.309
		c0-0.226,0-0.226,0.25-0.226c0.095,0,0.188-0.004,0.287,0.001c0.205,0.012,0.308,0.102,0.31,0.265
		c0.003,0.167-0.092,0.254-0.303,0.268C551.923,683.943,551.854,683.939,551.783,683.939z"/>
	<path fill-rule="evenodd" clip-rule="evenodd" fill="#040404" d="M551.742,683.115c-0.057,0-0.113-0.005-0.173,0
		c-0.092,0.008-0.115-0.032-0.121-0.112c-0.021-0.349-0.025-0.349,0.347-0.344c0.07,0,0.142-0.001,0.21,0.009
		c0.125,0.017,0.199,0.081,0.208,0.196c0.01,0.121-0.056,0.208-0.185,0.233c-0.093,0.018-0.188,0.017-0.283,0.023
		C551.745,683.118,551.742,683.117,551.742,683.115z"/>
	<path fill-rule="evenodd" clip-rule="evenodd" fill="#060606" d="M562.834,682.854c0.071,0.185,0.141,0.371,0.211,0.557
		c0.029,0.073,0.004,0.102-0.086,0.108c-0.428,0.039-0.438,0.028-0.296-0.34c0.043-0.108,0.087-0.218,0.129-0.327
		C562.805,682.854,562.82,682.854,562.834,682.854z"/>
	<path fill-rule="evenodd" clip-rule="evenodd" fill="#FEFEFE" d="M535.313,678.416c-0.019-1.943,1.824-3.808,4.138-3.775
		c2.304,0.029,4.088,1.683,4.1,3.812c0.014,2.246-2.134,3.786-4.119,3.761C537.167,682.182,535.305,680.486,535.313,678.416z"/>
	<path fill-rule="evenodd" clip-rule="evenodd" fill="#FEFEFE" d="M550.016,677.067c-0.057-1.371,1.311-2.834,3.078-2.804
		c1.681,0.027,3.001,1.249,3.023,2.815c0.024,1.602-1.506,2.807-3.044,2.797C551.39,679.867,550.017,678.616,550.016,677.067z"/>
	<path fill-rule="evenodd" clip-rule="evenodd" fill="#FEFEFE" d="M559.136,677.066c-0.027-1.455,1.384-2.858,3.143-2.803
		c1.675,0.053,2.991,1.313,2.962,2.891c-0.029,1.539-1.431,2.749-3.144,2.722C560.485,679.847,559.107,678.541,559.136,677.066z"/>
	<path fill-rule="evenodd" clip-rule="evenodd" d="M537.483,678.448c0.014,0.107,0.009,0.231,0.043,0.353
		c0.07,0.236,0.217,0.401,0.491,0.438c0.282,0.036,0.53-0.032,0.676-0.271c0.067-0.107,0.122-0.108,0.221-0.052
		c0.116,0.065,0.234,0.126,0.358,0.177c0.097,0.041,0.096,0.083,0.043,0.16c-0.32,0.479-0.937,0.703-1.613,0.583
		c-0.577-0.105-0.997-0.51-1.093-1.054c-0.078-0.462-0.038-0.903,0.286-1.289c0.582-0.685,1.838-0.663,2.38,0.034
		c0.088,0.112,0.081,0.17-0.063,0.219c-0.053,0.017-0.102,0.049-0.152,0.071c-0.102,0.049-0.203,0.125-0.312,0.133
		c-0.118,0.011-0.136-0.136-0.21-0.202c-0.285-0.244-0.783-0.165-0.952,0.154C537.497,678.069,537.489,678.252,537.483,678.448z"/>
	<path fill-rule="evenodd" clip-rule="evenodd" d="M539.481,678.459c-0.011-0.725,0.396-1.257,1.066-1.418
		c0.614-0.148,1.272,0.046,1.611,0.464c0.093,0.113,0.116,0.19-0.059,0.245c-0.054,0.014-0.104,0.046-0.153,0.067
		c-0.104,0.048-0.206,0.125-0.312,0.133c-0.12,0.01-0.133-0.137-0.21-0.203c-0.296-0.248-0.802-0.168-0.956,0.174
		c-0.15,0.324-0.145,0.664-0.011,0.994c0.087,0.205,0.266,0.311,0.504,0.328c0.256,0.02,0.483-0.047,0.608-0.258
		c0.081-0.139,0.152-0.118,0.266-0.055c0.087,0.049,0.176,0.1,0.271,0.131c0.154,0.053,0.173,0.114,0.071,0.241
		c-0.383,0.481-1.008,0.676-1.676,0.507c-0.584-0.147-0.955-0.579-1.008-1.179C539.49,678.567,539.485,678.504,539.481,678.459z"/>
	<path fill-rule="evenodd" clip-rule="evenodd" d="M552.486,678.452c0-0.225-0.006-0.448,0.004-0.67
		c0.005-0.118-0.03-0.164-0.171-0.163c-0.255,0.01-0.257,0-0.257-0.227c0-0.368,0-0.739,0.002-1.107
		c0.001-0.204,0.078-0.279,0.299-0.28c0.467-0.005,0.937-0.004,1.405,0.001c0.215,0,0.297,0.077,0.298,0.282
		c0.002,0.398-0.006,0.797,0.002,1.196c0.004,0.122-0.048,0.145-0.166,0.143c-0.26-0.003-0.26,0.002-0.26,0.246
		c0,0.416-0.005,0.832,0.004,1.247c0.001,0.118-0.029,0.168-0.17,0.164c-0.284-0.007-0.566-0.006-0.847,0
		c-0.106,0-0.146-0.028-0.145-0.13C552.491,678.92,552.486,678.684,552.486,678.452z"/>
	<path fill-rule="evenodd" clip-rule="evenodd" fill="#010101" d="M553.577,675.343c0,0.259-0.226,0.473-0.505,0.478
		c-0.282,0.004-0.531-0.221-0.53-0.48c0.002-0.266,0.238-0.475,0.532-0.472C553.359,674.869,553.577,675.077,553.577,675.343z"/>
	<path fill-rule="evenodd" clip-rule="evenodd" d="M561.704,676.618c-0.241,0.212-0.452,0.401-0.665,0.589
		c-0.033,0.031-0.064,0.058-0.113,0.016c-0.217-0.192-0.437-0.388-0.651-0.607c0.239,0.019,0.271-0.108,0.314-0.261
		c0.254-0.866,1.21-1.296,2.207-1c0.817,0.242,1.313,0.941,1.284,1.81c-0.03,0.896-0.6,1.562-1.49,1.746
		c-0.99,0.204-1.87-0.29-2.06-1.154c-0.026-0.12,0.006-0.144,0.123-0.142c0.22,0.005,0.437,0.004,0.656,0.003
		c0.077-0.003,0.134,0.01,0.147,0.095c0.041,0.279,0.221,0.444,0.518,0.497c0.334,0.061,0.64,0.029,0.874-0.233
		c0.354-0.395,0.383-1.301,0.057-1.719c-0.324-0.41-1.161-0.353-1.391,0.097C561.417,676.548,561.433,676.579,561.704,676.618z"/>
</g>
<ellipse fill="#3E2723" cx="452.071" cy="765.216" rx="61.657" ry="6.423"/>
<g>
	<polygon points="451.952,652.773 449.023,646.465 451.952,649.619 451.952,640.373 454.325,648.422 456.955,645.376 
		454.791,649.293 456.955,649.727 455.65,652.773 	"/>
	<path d="M509.591,697.793c-2.926-1.443-5.826-2.455-8.473-3.04c0-0.047,0.005-0.092,0.005-0.139c0-24.88-22.142-45.05-49.456-45.05
		s-49.457,20.17-49.457,45.05c0,0.698,0.032,1.389,0.068,2.079c-3.291,0.702-7.165,2.323-10.994,4.778
		c-8.288,5.314-13.185,12.465-10.937,15.972c2.097,3.269,9.667,2.211,17.399-2.258c-1.551,4.03-2.393,8.302-2.393,12.727
		c0,11.801,5.927,22.52,15.579,30.43c0.083,0.067,0.185,0.143,0.273,0.212c-0.206,0.181,6.707,5.178,7.286,4.405
		c4.832,2.342,11.036,4.442,17.337,4.666c33.614,2.663,46.02-2.763,46.738-3.234c0.794-0.521,1.576-1.051,2.349-1.587
		c0.565,0.797,7.033-4.549,6.534-4.96c9.756-8.175,16.527-17.96,16.527-29.932c0-5.654-1.366-11.058-3.846-16.025
		c8.393,3.818,16.345,4.122,18.104,0.561C524.08,708.713,518.419,702.152,509.591,697.793z"/>
</g>
</svg>
