<?xml version="1.0" encoding="utf-8"?>
<!-- Generator: Adobe Illustrator 16.0.0, SVG Export Plug-In . SVG Version: 6.00 Build 0)  -->
<!DOCTYPE svg PUBLIC "-//W3C//DTD SVG 1.1//EN" "http://www.w3.org/Graphics/SVG/1.1/DTD/svg11.dtd">
<svg version="1.1" id="hp" xmlns="http://www.w3.org/2000/svg" xmlns:xlink="http://www.w3.org/1999/xlink" x="0px" y="0px"
	 width="1200px" height="650px" viewBox="0 0 1200 650" enable-background="new 0 0 1200 650" xml:space="preserve">
<g id="fond">
	<rect x="-196.525" y="86.155" fill="#E0E0E0" width="1552.874" height="697.615"/>
	<rect x="-242.97" y="-74.059" fill="#26C6DA" width="1599.318" height="530.713"/>
</g>
<ellipse opacity="0.2" fill="#757575" cx="584.661" cy="582.604" rx="90.587" ry="78.396"/>
<ellipse opacity="0.2" fill="#757575" cx="593.4" cy="526.952" rx="179.676" ry="79.571"/>
<g>
	<path d="M582.061,407.132c-4.37-2.156-8.703-3.668-12.655-4.541c0.001-0.07,0.007-0.137,0.007-0.207
		c0-37.167-33.076-67.297-73.879-67.297s-73.879,30.13-73.879,67.297c0,1.043,0.049,2.074,0.102,3.105
		c-4.916,1.049-10.704,3.471-16.423,7.138c-12.381,7.938-19.696,18.62-16.337,23.858c3.132,4.883,14.439,3.303,25.991-3.371
		c-2.317,6.02-3.574,12.398-3.574,19.01c0,17.628,8.854,33.639,23.272,45.455c0.123,0.102,0.275,0.213,0.408,0.318
		c-0.308,0.27-0.612,0.547-0.914,0.836c-5.445,5.215-7.896,11.494-5.475,14.023c2.422,2.528,8.8,0.348,14.246-4.869
		c1.152-1.104,2.162-2.256,3.027-3.41c7.217,3.498,16.485,6.636,25.898,6.971c50.211,3.977,68.744-4.127,69.818-4.832
		c1.186-0.779,2.354-1.568,3.508-2.37c0.844,1.19,1.834,2.383,2.973,3.53c5.31,5.354,11.631,7.693,14.117,5.226
		c2.485-2.466,0.193-8.804-5.119-14.157c-0.723-0.729-1.464-1.395-2.211-2.008c14.573-12.213,24.69-26.829,24.69-44.713
		c0-8.446-2.041-16.519-5.745-23.939c12.536,5.703,24.416,6.16,27.044,0.838C603.705,423.443,595.248,413.644,582.061,407.132z"/>
	<path fill="#FFFFFF" d="M540.447,420.789c4.816-5.838,7.752-13.573,7.752-22.063c0-18.18-13.455-32.916-30.053-32.916
		c-9.255,0-17.529,4.584-23.042,11.789c-5.513-7.205-13.786-11.789-23.042-11.789c-16.598,0-30.053,14.736-30.053,32.916
		c0,8.037,2.633,15.396,7,21.113c-20.166,9.428-33.364,25.047-33.364,42.734c0,28.797,34.959,52.144,78.083,52.144
		c43.123,0,78.083-23.347,78.083-52.144C571.812,445.474,559.486,430.298,540.447,420.789z"/>
	
		<ellipse transform="matrix(0.9932 -0.1163 0.1163 0.9932 -43.6254 57.5312)" fill="#FFFFFF" stroke="#000000" stroke-width="0.25" stroke-miterlimit="10" cx="471.143" cy="402.569" rx="13.988" ry="18.859"/>
	<path fill="#FFFFFF" stroke="#000000" stroke-width="0.25" stroke-miterlimit="10" d="M531.985,403.786
		c-0.905,10.377-7.878,18.244-15.573,17.572c-7.697-0.671-13.202-9.626-12.297-20.002c0.904-10.379,7.877-18.247,15.574-17.576
		C527.385,384.452,532.891,393.407,531.985,403.786z"/>
	<ellipse stroke="#FFFFFF" stroke-width="0.5" stroke-miterlimit="10" cx="474.998" cy="402.567" rx="3.781" ry="4.705"/>
	<ellipse stroke="#FFFFFF" stroke-width="0.5" stroke-miterlimit="10" cx="521.051" cy="402.567" rx="3.781" ry="4.705"/>
	<path d="M493.635,431.168l12.94-5.903c0,0-15.431-3.497-23.49-0.041C484.195,426.644,493.635,431.168,493.635,431.168z"/>
</g>
<polygon points="488.659,339.994 485.383,332.936 488.659,336.465 488.659,326.118 491.314,335.125 494.258,331.717 491.837,336.1 
	494.258,336.586 492.797,339.994 "/>
<g>
	<g>
		
			<ellipse transform="matrix(-0.9259 0.3777 -0.3777 -0.9259 1384.2367 564.6825)" cx="636.754" cy="418.059" rx="26.219" ry="11.09"/>
		<path d="M642.977,499.093c2.385,2.782-0.029,8.667-5.391,13.145c-5.362,4.479-11.641,5.854-14.025,3.071
			c-2.385-2.782,0.027-8.668,5.39-13.146C634.312,497.686,640.59,496.31,642.977,499.093z"/>
		<path d="M739.801,517.423c2.447-2.127,8.67,0.94,13.898,6.853c5.23,5.913,7.486,12.43,5.039,14.557
			c-2.447,2.129-8.67-0.939-13.9-6.853C739.609,526.068,737.354,519.55,739.801,517.423z"/>
		<path d="M811.131,452.696c2.711-5.161-5.615-15.83-18.6-23.836s-25.707-10.312-28.418-5.151
			c-2.713,5.159,5.613,15.831,18.598,23.834C795.695,455.549,808.42,457.855,811.131,452.696z"/>
		<ellipse cx="714.015" cy="414.896" rx="70.12" ry="61.24"/>
		<path d="M792.873,464.871c0,23.379-16.83,49.414-35.537,56.737s-33.307,2.079-63.77-2.509
			c-28.215-4.25-60.188-8.918-63.701-27.979c-4.486-8.044-7.225-16.612-7.225-26.249c0-38.545,38.107-69.792,85.117-69.792
			S792.873,426.326,792.873,464.871z"/>
		<path fill="#FFFFFF" d="M782.576,469.726c0.268,20.883-14.221,44.328-30.566,51.079c-16.348,6.754-29.227,2.23-56.035-1.526
			c-24.826-3.481-52.961-7.294-56.265-24.284c-4.031-7.136-6.534-14.758-6.642-23.367c-0.439-34.433,32.674-62.773,73.961-63.299
			C748.313,407.803,782.139,435.291,782.576,469.726z"/>
		<ellipse fill="#FFFFFF" cx="691.98" cy="406.404" rx="28.352" ry="34.725"/>
		
			<ellipse transform="matrix(0.9548 0.2974 -0.2974 0.9548 156.4987 -201.5157)" fill="#FFFFFF" cx="740.621" cy="413.645" rx="28.351" ry="34.724"/>
		<path d="M750.191,372.038c0.059-0.046,0.451,0.554,0.451,0.554c-8.83-0.792-17.889-7.692-22.863-14.128
			c0.502,5.368,5.354,10.462,11.791,14.521c12.484,7.515,25.002,8.173,33.984,3.449c13.35-8.435,10.664-26.339-0.078-40.407
			c5.748,11.063,10.553,26.442,0.768,33.401c0.549-4.917,3.078-10.273-1.508-16.11c2.201,9.105-2.715,17.73-13.813,18.872
			C754.049,372.582,750.191,372.038,750.191,372.038z"/>
	</g>
	<path fill="#FFFFFF" stroke="#000000" stroke-width="0.25" stroke-miterlimit="10" d="M703.635,405.918
		c-1.395,9.249-8.006,15.92-14.766,14.898c-6.764-1.02-11.113-9.345-9.719-18.595c1.396-9.249,8.01-15.919,14.771-14.898
		C700.686,388.342,705.033,396.668,703.635,405.918z"/>
	
		<ellipse transform="matrix(0.9886 0.1504 -0.1504 0.9886 68.6058 -99.1655)" stroke="#FFFFFF" stroke-width="0.5" stroke-miterlimit="10" cx="689.795" cy="403.907" rx="3.347" ry="4.164"/>
	
		<ellipse transform="matrix(0.9888 0.1493 -0.1493 0.9888 69.768 -105.67)" fill="#FFFFFF" stroke="#000000" stroke-width="0.25" stroke-miterlimit="10" cx="738.813" cy="411.929" rx="12.381" ry="16.936"/>
	<path stroke="#FFFFFF" stroke-width="0.5" stroke-miterlimit="10" d="M740.523,412.27c-0.346,2.273-2.107,3.892-3.934,3.613
		c-1.83-0.278-3.029-2.347-2.684-4.62c0.346-2.272,2.107-3.891,3.936-3.612C739.668,407.929,740.869,409.997,740.523,412.27z"/>
	<ellipse opacity="0.2" fill="#C5CAE9" cx="687.428" cy="401.741" rx="23.369" ry="22.366"/>
	<path d="M708.207,431.477l7.775-2.468c0,0-7.762-4.101-12.574-2.712C703.801,427.373,708.207,431.477,708.207,431.477z"/>
	
		<ellipse opacity="0.2" fill="#C5CAE9" stroke="#FDD835" stroke-miterlimit="10" cx="741.621" cy="411.929" rx="23.369" ry="22.367"/>
	
		<ellipse fill="none" stroke="#FB8C00" stroke-width="3" stroke-miterlimit="10" cx="741.596" cy="411.742" rx="23.344" ry="22.342"/>
	
		<ellipse fill="none" stroke="#FB8C00" stroke-width="3" stroke-miterlimit="10" cx="687.428" cy="401.997" rx="23.344" ry="22.342"/>
	<path fill="none" stroke="#FB8C00" stroke-width="3" stroke-miterlimit="10" d="M708.857,410.405
		c5.895-3.227,9.395,1.649,9.395,1.649"/>
	<g>
		<path fill="#FB8C00" d="M665.629,399.76c0,0-0.381-0.178-0.977-0.564c-0.602-0.381-1.42-0.97-2.309-1.766
			c-1.791-1.578-3.844-4.022-5.303-6.918c-0.354-0.728-0.689-1.473-0.955-2.239c-0.273-0.767-0.492-1.544-0.635-2.329
			c-0.16-0.773-0.221-1.563-0.223-2.312c0-0.751,0.107-1.478,0.264-2.127c0.105-0.327,0.201-0.636,0.314-0.918
			c0.143-0.282,0.268-0.544,0.402-0.776c0.309-0.461,0.617-0.809,0.914-1.052c0.256-0.269,0.553-0.385,0.709-0.49
			c0.172-0.09,0.262-0.138,0.262-0.138s-0.029,0.1-0.086,0.287c-0.055,0.184-0.154,0.43-0.207,0.76
			c-0.084,0.313-0.098,0.71-0.123,1.12c0.008,0.208,0.018,0.429,0.029,0.661c0.031,0.227,0.063,0.465,0.098,0.713
			c0.104,0.496,0.225,1.016,0.41,1.567c0.182,0.552,0.389,1.127,0.646,1.726c0.238,0.599,0.537,1.212,0.818,1.845
			c0.307,0.626,0.604,1.273,0.938,1.913c0.658,1.308,1.316,2.616,1.934,3.842c0.619,1.249,1.188,2.445,1.654,3.501
			c0.467,1.055,0.826,1.973,1.064,2.634C665.512,399.357,665.629,399.76,665.629,399.76z"/>
	</g>
</g>
<g>
	<path fill="#FB8C00" d="M782.871,403.755c0,0-0.107,0.399-0.383,1.04c-0.27,0.645-0.703,1.533-1.326,2.525
		c-1.234,1.989-3.26,4.38-5.854,6.244c-1.299,0.922-2.723,1.729-4.232,2.229c-0.754,0.247-1.508,0.438-2.271,0.506
		c-0.748,0.088-1.498,0.041-2.166-0.073c-0.336-0.084-0.656-0.17-0.945-0.272c-0.289-0.139-0.557-0.252-0.789-0.394
		c-0.227-0.164-0.434-0.308-0.609-0.457c-0.168-0.161-0.303-0.327-0.426-0.464c-0.262-0.257-0.357-0.561-0.459-0.713
		c-0.084-0.171-0.127-0.262-0.127-0.262s0.098,0.031,0.281,0.09c0.182,0.053,0.416,0.166,0.74,0.218
		c0.158,0.029,0.322,0.071,0.504,0.093c0.191,0,0.381,0.018,0.576,0.026c0.195-0.015,0.404-0.031,0.623-0.048
		c0.209-0.043,0.43-0.089,0.66-0.136c0.455-0.137,0.926-0.292,1.424-0.534c0.496-0.212,1.014-0.518,1.549-0.824
		c0.268-0.163,0.539-0.329,0.813-0.498c0.271-0.188,0.549-0.364,0.832-0.548c0.553-0.389,1.133-0.767,1.695-1.189
		c0.578-0.394,1.143-0.829,1.717-1.236c0.574-0.416,1.141-0.825,1.689-1.222c1.107-0.796,2.176-1.534,3.125-2.148
		c0.947-0.616,1.781-1.108,2.387-1.439C782.498,403.93,782.871,403.755,782.871,403.755z"/>
</g>
<ellipse transform="matrix(0.8712 -0.4909 0.4909 0.8712 -191.4583 313.7028)" cx="502.132" cy="521.736" rx="28.556" ry="12.078"/>
<path d="M689.455,522.407c-0.035-6.672-12.844-12.017-28.613-11.94c-15.773,0.077-28.531,5.548-28.498,12.218
	c0.031,6.672,12.844,12.018,28.613,11.941C676.729,534.549,689.486,529.078,689.455,522.407z"/>
<ellipse cx="585.873" cy="502.865" rx="75.026" ry="64.664"/>
<path d="M674.492,551.981c0,30.266-35.812,67.469-56.238,66.842c-20.428-0.627-52.486-1.149-75.791-3.222
	c-23.304-2.072-47.633-36.063-47.633-63.62c0-39.791,40.219-72.048,89.832-72.048S674.492,512.19,674.492,551.981z"/>
</svg>
