<?xml version="1.0" encoding="utf-8"?>
<!-- Generator: Adobe Illustrator 16.0.0, SVG Export Plug-In . SVG Version: 6.00 Build 0)  -->
<!DOCTYPE svg PUBLIC "-//W3C//DTD SVG 1.1//EN" "http://www.w3.org/Graphics/SVG/1.1/DTD/svg11.dtd">
<svg version="1.1" id="Calque_1" xmlns="http://www.w3.org/2000/svg" xmlns:xlink="http://www.w3.org/1999/xlink" x="0px" y="0px"
	 width="360px" height="640px" viewBox="270 163.074 360 640" enable-background="new 270 163.074 360 640" xml:space="preserve">
<g>
	<rect x="137.716" y="96.02" fill="#4FC3F7" width="628.866" height="816.127"/>
	<rect x="135.079" y="589.99" fill="#E1F5FE" width="641.478" height="391.721"/>
</g>
<g opacity="0.2">
</g>
<g opacity="0.2">
</g>
<path opacity="0.2" fill="#BF360C" enable-background="new    " d="M682.354,1118.631c0,0-3.063,41.955,9.752,47.021
	c12.813,5.064,21.146-9.432,21.146-9.432L682.354,1118.631z"/>
<g id="ombre" opacity="0.4">
</g>
<path opacity="0.2" fill="#EF5350" d="M276.634,633.981c0,0-94.147,35.523-94.414,48.156c-0.266,12.633,14.521,16.419,24.449-6.897
	c0,0,8.693,0.708,10.011-3.061c1.317-3.769,211.706,53.33,255.256,110.854c3.203,33.315,20.619,26.543,25.63,19.439
	c5.009-7.104-23.451-20.025-23.451-20.025s78.489-72.076,200.657-160.181c7.479,5.26,13.628,17.111,22.657,3.116
	s-40.462-5.546-40.462-5.546L276.634,633.981z"/>
<g>
	<path fill="#B71C1C" d="M469.322,777.811c0,0,11.251,37.556,23.872,29.54C505.815,799.336,490.755,789.446,469.322,777.811z"/>
	<path fill="#E53935" d="M211.719,657.12c0,0,116.938-131.584,247.621-110.202c130.683,21.383,217.007,74.015,217.007,74.015
		S476.045,713.042,472.999,767.32C391.002,655.475,211.719,657.12,211.719,657.12z"/>
	<path fill="#E53935" d="M211.719,664.654c0,0,116.938-131.585,247.621-110.202c74.61,12.208,134.76,34.602,172.645,51.571
		c28.47,12.754-155.939,114.552-158.985,168.831C391.002,663.009,211.719,664.654,211.719,664.654z"/>
	<path fill="#C62828" d="M211.719,669.154v-13.132c0,0,179.442,1.112,261.28,110.2c25.91-61.978,125.724-106.667,203.348-146.386
		c-74.357,55.897-144.54,97.567-204.859,153.921C391.444,696.568,211.719,669.154,211.719,669.154z"/>
	<path fill="#B71C1C" d="M216.68,666.685c0,2.422-1.964,4.386-4.386,4.386h-1.238c-2.423,0-4.386-1.964-4.386-4.386v-6.354
		c0-2.423,1.963-4.386,4.386-4.386h1.238c2.422,0,4.386,1.963,4.386,4.386V666.685z"/>
	<path fill="#B71C1C" d="M211.719,660.381c0,0-36.877,13.301-28.179,25.463C192.237,698.004,201.282,682.422,211.719,660.381z"/>
	<path fill="#B71C1C" d="M478.502,778.06c0,2.424-1.965,4.388-4.387,4.388h-1.239c-2.422,0-4.386-1.964-4.386-4.388v-6.353
		c0-2.423,1.964-4.387,4.386-4.387h1.239c2.422,0,4.387,1.964,4.387,4.387V778.06z"/>
	<path fill="#B71C1C" d="M674.881,617.478c1.162,0.027,2.077,0.987,2.053,2.146l-0.016,0.593c-0.025,1.16-0.987,2.076-2.146,2.05
		l-3.038-0.07c-1.16-0.026-2.079-0.987-2.051-2.146l0.013-0.593c0.026-1.159,0.988-2.075,2.146-2.049L674.881,617.478z"/>
	<path fill="#B71C1C" d="M673.307,620.094c0,0,22.537,13.105,25.017,3.477C700.804,613.942,688.998,615.993,673.307,620.094z"/>
</g>
<path fill="none" stroke="#C62828" stroke-miterlimit="10" d="M359.532,668.834c60.074-15.75,144.494,9.081,144.494,9.081"/>
<path fill="none" stroke="#C62828" stroke-miterlimit="10" d="M332.459,611.244c0,0,17.496-0.395,28.175,17.896"/>
<path fill="none" stroke="#C62828" stroke-miterlimit="10" d="M327.74,625.344c20.441-10.19,35.505,3.797,35.505,3.797"/>
<path fill="none" stroke="#C62828" stroke-miterlimit="10" d="M530.011,573.68c0,0-20.775-5.97-31.905,13.229"/>
<path fill="none" stroke="#C62828" stroke-miterlimit="10" d="M542.097,614.231c-27.054-6.289-35.218,11.112-35.218,11.112"/>
<path fill="none" stroke="#C62828" stroke-miterlimit="10" d="M542.097,646.822c-22.609-15.967-46.047-9.188-46.047-9.188"/>
<path fill="none" stroke="#C62828" stroke-miterlimit="10" d="M355.646,569.428c10.288-0.538,13.605,9.037,13.605,9.037"/>
<path opacity="0.9" fill="#B71C1C" d="M371.841,552.103c0,0-13.685,11.387-9.392,29.284c4.292,17.897-27.708,31.475-27.708,31.475
	s7.924,9.897,18.55,3.809c-4.302,8.839,0,18.31,0,18.31l-10.473,8.95c2.136,4.98,11.303,11.496,19.631,9.247
	c11.957,9.854,74.495,48.587,139.856-1.442c50.029-42.768,4.573-78.933,4.573-78.933L371.841,552.103z"/>
<g id="pingoui">
	<path d="M508.342,589.332c1.266-4.344,1.956-8.864,1.956-13.521c0-32.358-32.375-58.59-72.314-58.59
		c-39.938,0-72.313,26.231-72.313,58.59c0,4.656,0.69,9.177,1.957,13.521c-7.6,8.68-11.98,18.875-11.98,29.786
		c0,15.348,8.666,29.288,22.779,39.574c5.745,4.188,20.895,11.585,36.404,12.075c49.146,3.462,59.456-0.021,68.338-4.207
		c8.881-4.187,37.153-27.48,37.153-47.442C520.321,608.207,515.939,598.012,508.342,589.332z"/>
	
		<ellipse transform="matrix(-0.8418 0.5398 -0.5398 -0.8418 977.3143 907.6481)" cx="355.646" cy="597.044" rx="26.577" ry="11.241"/>
	<ellipse transform="matrix(0.998 -0.0639 0.0639 0.998 -40.4339 24.0505)" cx="355.646" cy="643.93" rx="13.627" ry="6.327"/>
	
		<ellipse transform="matrix(-0.9935 -0.1139 0.1139 -0.9935 946.3461 1347.6975)" cx="511.663" cy="646.821" rx="13.628" ry="6.326"/>
	
		<ellipse transform="matrix(0.8967 0.4427 -0.4427 0.8967 316.4471 -167.8332)" cx="517.747" cy="593.959" rx="26.577" ry="11.242"/>
	<ellipse fill="#FFFFFF" cx="438.56" cy="611.244" rx="77.926" ry="42.055"/>
	<ellipse fill="#FFFFFF" cx="413.375" cy="561.108" rx="29.994" ry="32.85"/>
	<ellipse fill="#FFFFFF" cx="459.365" cy="561.108" rx="29.993" ry="32.85"/>
	<path stroke="#FFFFFF" stroke-width="0.5" stroke-miterlimit="10" d="M424.318,558.265c-20.047-3.452-30.253,0.626-30.253,0.626
		s-1.684,0.389-0.057-2.723c13.795-6.196,30.255-0.626,30.255-0.626S425.729,558.235,424.318,558.265z"/>
	<path stroke="#FFFFFF" stroke-width="0.5" stroke-miterlimit="10" d="M475.98,558.265c-20.047-3.452-30.253,0.626-30.253,0.626
		s-1.683,0.389-0.057-2.723c13.795-6.196,30.253-0.626,30.253-0.626S477.393,558.235,475.98,558.265z"/>
	<path d="M435.711,570.891l7.138-3.256c0,0-8.513-1.929-12.957-0.022C430.504,568.396,435.711,570.891,435.711,570.891z"/>
	<polygon points="437.559,519.643 434.736,513.561 437.559,516.603 437.559,507.688 439.848,515.447 442.385,512.512 
		440.298,516.287 442.385,516.707 441.124,519.643 	"/>
</g>
</svg>
