<?xml version="1.0" encoding="utf-8"?>
<!-- Generator: Adobe Illustrator 16.0.0, SVG Export Plug-In . SVG Version: 6.00 Build 0)  -->
<!DOCTYPE svg PUBLIC "-//W3C//DTD SVG 1.1//EN" "http://www.w3.org/Graphics/SVG/1.1/DTD/svg11.dtd">
<svg version="1.1" id="Calque_1" xmlns="http://www.w3.org/2000/svg" xmlns:xlink="http://www.w3.org/1999/xlink" x="0px" y="0px"
	 width="360px" height="640px" viewBox="0 0 360 640" enable-background="new 0 0 360 640" xml:space="preserve">
<g>
	<rect x="-99.342" y="23.902" fill="#FDD835" width="593.487" height="715.792"/>
	<rect x="-99.144" y="-52.128" fill="#D81B60" width="593.29" height="524.758"/>
</g>
<g opacity="0.3">
</g>
<g opacity="0.1">
</g>
<g opacity="0.1">
</g>
<g opacity="0.3">
</g>
<g opacity="0.3">
</g>
<g opacity="0.1">
</g>
<g opacity="0.1">
</g>
<g opacity="0.1">
</g>
<ellipse opacity="0.5" fill="#FFA726" cx="181.649" cy="498.947" rx="92.338" ry="11.466"/>
<ellipse opacity="0.5" fill="#FFA726" cx="66.739" cy="501.018" rx="29.042" ry="0.469"/>
<ellipse opacity="0.5" fill="#FFA726" cx="288.872" cy="498.946" rx="29.042" ry="0.469"/>
<rect x="71.145" y="526.317" transform="matrix(0.9148 0.4038 -0.4038 0.9148 233.7571 8.8416)" opacity="0.5" fill="#FFA726" width="49.543" height="64.63"/>
<rect x="75.107" y="532.343" transform="matrix(0.9148 0.4039 -0.4039 0.9148 236.5479 7.7592)" opacity="0.5" fill="#FFA726" width="49.544" height="64.628"/>
<rect x="78.101" y="535.336" transform="matrix(0.9148 0.4038 -0.4038 0.9148 237.9991 6.8022)" opacity="0.5" fill="#FFA726" width="49.544" height="64.628"/>
<rect x="78.672" y="540.769" transform="matrix(0.9695 0.2452 -0.2452 0.9695 143.7447 -8.2585)" opacity="0.5" fill="#FFA726" width="52.725" height="64.63"/>
<rect x="93.175" y="541.287" transform="matrix(0.9986 0.0533 -0.0533 0.9986 30.7249 -5.5532)" opacity="0.5" fill="#FFA726" width="52.725" height="64.629"/>
<rect x="162.541" y="541.308" transform="matrix(0.9969 0.0787 -0.0787 0.9969 46.211 -13.4348)" opacity="0.5" fill="#FFA726" width="61.913" height="76.128"/>
<rect x="167.382" y="538.697" transform="matrix(0.9869 -0.1614 0.1614 0.9869 -90.4689 39.566)" opacity="0.5" fill="#FFA726" width="61.913" height="76.041"/>
<rect x="251.096" y="532.687" transform="matrix(0.9391 -0.3437 0.3437 0.9391 -177.6284 129.6806)" opacity="0.5" fill="#FFA726" width="51.879" height="66.542"/>
<rect x="263.879" y="516.245" transform="matrix(0.8153 -0.579 0.579 0.8153 -264.6547 269.2983)" opacity="0.5" fill="#FFA726" width="51.879" height="66.541"/>
<rect x="251.095" y="517.042" transform="matrix(0.8153 -0.579 0.579 0.8153 -267.4849 262.0578)" opacity="0.5" fill="#FFA726" width="51.879" height="66.542"/>
<rect x="251.895" y="526.683" transform="matrix(0.784 -0.6208 0.6208 0.784 -287.5833 293.4152)" opacity="0.5" fill="#FFA726" width="51.877" height="66.54"/>
<rect x="166.724" y="538.905" transform="matrix(0.9838 -0.1794 0.1794 0.9838 -100.278 44.8115)" opacity="0.5" fill="#FFA726" width="61.913" height="76.128"/>
<rect x="172.411" y="540.033" transform="matrix(0.9995 -0.0325 0.0325 0.9995 -18.6767 6.8205)" opacity="0.5" fill="#FFA726" width="56.237" height="76.13"/>
<g>
	<path fill="#FFFFFF" stroke="#000000" stroke-width="0.25" stroke-miterlimit="10" d="M103.493,468.229l-37.989-51.808
		l-30.898,46.13c0,0,54.705,39.473,54.705,37.955C89.311,498.985,103.493,468.229,103.493,468.229z"/>
	
		<line fill="none" stroke="#000000" stroke-width="0.25" stroke-miterlimit="10" x1="48.117" y1="466.578" x2="69.897" y2="434.157"/>
	
		<line fill="none" stroke="#000000" stroke-width="0.25" stroke-miterlimit="10" x1="55.045" y1="472.205" x2="75.839" y2="437.688"/>
	
		<line fill="none" stroke="#000000" stroke-width="0.25" stroke-miterlimit="10" x1="57.246" y1="473.521" x2="77.75" y2="440.316"/>
	
		<line fill="none" stroke="#000000" stroke-width="0.25" stroke-miterlimit="10" x1="59.406" y1="475.206" x2="79.676" y2="443.559"/>
	
		<line fill="none" stroke="#000000" stroke-width="0.25" stroke-miterlimit="10" x1="61.957" y1="477.033" x2="82.105" y2="446.291"/>
	
		<line fill="none" stroke="#000000" stroke-width="0.25" stroke-miterlimit="10" x1="64.387" y1="478.649" x2="83.739" y2="448.487"/>
	
		<line fill="none" stroke="#000000" stroke-width="0.25" stroke-miterlimit="10" x1="66.938" y1="480.48" x2="86.087" y2="451.648"/>
	
		<line fill="none" stroke="#000000" stroke-width="0.25" stroke-miterlimit="10" x1="69.542" y1="482.331" x2="88.362" y2="454.71"/>
	
		<line fill="none" stroke="#000000" stroke-width="0.25" stroke-miterlimit="10" x1="72.093" y1="484.159" x2="89.812" y2="456.979"/>
	
		<line fill="none" stroke="#000000" stroke-width="0.25" stroke-miterlimit="10" x1="73.883" y1="485.789" x2="91.611" y2="459.079"/>
	
		<line fill="none" stroke="#000000" stroke-width="0.25" stroke-miterlimit="10" x1="76.342" y1="487.479" x2="94.074" y2="462.396"/>
</g>
<g>
	<polygon fill="#FFFFFF" stroke="#000000" stroke-width="0.25" stroke-miterlimit="10" points="265.514,461.761 285.633,400.749 
		329.276,435.073 294.885,481.157 	"/>
	
		<line fill="none" stroke="#000000" stroke-width="0.25" stroke-miterlimit="10" x1="317.67" y1="441.109" x2="286.938" y2="419.695"/>
	
		<line fill="none" stroke="#000000" stroke-width="0.25" stroke-miterlimit="10" x1="312.82" y1="449.025" x2="282.376" y2="425.289"/>
	
		<line fill="none" stroke="#000000" stroke-width="0.25" stroke-miterlimit="10" x1="311.134" y1="451.105" x2="281.374" y2="428.467"/>
	
		<line fill="none" stroke="#000000" stroke-width="0.25" stroke-miterlimit="10" x1="309.599" y1="453.51" x2="280.543" y2="432.216"/>
	
		<line fill="none" stroke="#000000" stroke-width="0.25" stroke-miterlimit="10" x1="307.738" y1="456.2" x2="279.075" y2="435.696"/>
	
		<line fill="none" stroke="#000000" stroke-width="0.25" stroke-miterlimit="10" x1="305.926" y1="458.645" x2="278.203" y2="438.365"/>
	
		<line fill="none" stroke="#000000" stroke-width="0.25" stroke-miterlimit="10" x1="304.066" y1="461.336" x2="276.945" y2="442.206"/>
	
		<line fill="none" stroke="#000000" stroke-width="0.25" stroke-miterlimit="10" x1="302.164" y1="464.068" x2="275.726" y2="445.93"/>
	
		<line fill="none" stroke="#000000" stroke-width="0.25" stroke-miterlimit="10" x1="300.302" y1="466.759" x2="275.051" y2="448.593"/>
	
		<line fill="none" stroke="#000000" stroke-width="0.25" stroke-miterlimit="10" x1="299.103" y1="468.967" x2="273.987" y2="451.24"/>
	
		<line fill="none" stroke="#000000" stroke-width="0.25" stroke-miterlimit="10" x1="297.286" y1="471.493" x2="272.671" y2="455.271"/>
</g>
<g>
	<path d="M79.106,464.767c5.684,4.173,18.29-3.332,28.16-16.766c9.871-13.433,13.267-27.708,7.584-31.882
		c-5.684-4.176-18.291,3.33-28.161,16.762C76.818,446.314,73.423,460.588,79.106,464.767z"/>
	<ellipse transform="matrix(0.8665 -0.4991 0.4991 0.8665 -231.3724 117.9776)" cx="104.905" cy="491.602" rx="15.476" ry="7.185"/>
	<path d="M244.058,489.395c0.566-3.927,7.88-6.125,16.341-4.907c8.46,1.221,14.86,5.392,14.292,9.317
		c-0.565,3.932-7.879,6.126-16.338,4.908C249.891,497.494,243.49,493.322,244.058,489.395z"/>
	<path d="M282.317,455.216c4.089-4.521-1.251-16.023-11.938-25.699c-10.684-9.675-22.657-13.854-26.749-9.334
		c-4.094,4.52,1.248,16.026,11.931,25.698C266.247,455.557,278.223,459.736,282.317,455.216z"/>
	<ellipse cx="178.86" cy="424.137" rx="73.445" ry="59.104"/>
	<path d="M260.751,450.529c3.354,44.25-15.895,49.223-34.326,51.561c-25.259,2.559-2.971-1.825-47.155-1.005
		c-44.183,0.819-49.942,2.247-49.942,2.247s-38.501,5.102-36.629-52.803c0-35.31,37.621-63.936,84.027-63.936
		C223.133,386.594,260.224,417.858,260.751,450.529z"/>
	<ellipse fill="#FFFFFF" cx="153.39" cy="428.281" rx="34.062" ry="37.309"/>
	<ellipse fill="#FFFFFF" cx="205.621" cy="428.281" rx="34.062" ry="37.309"/>
	<path fill="#FFFFFF" d="M227.589,503.042c-24.251,1.781-2.853-1.269-45.269-0.699c-42.416,0.571-47.944,1.563-47.944,1.563
		s-41.676-1.961-25.91-43.861c2.505-6.659,3.969-11.88,12.266-23.154c8.296-11.275,35.777-14.242,59.144-14.242
		c21.236,0,46.797,6.016,54.778,12.584c7.983,6.568,11.6,18.441,14.271,25.913C259.142,489.714,241.613,501.753,227.589,503.042z"/>
	<path fill="#FFFFFF" stroke="#000000" stroke-width="0.25" stroke-miterlimit="10" d="M168.527,421.591
		c1.501,10.341-3.504,19.629-11.176,20.739c-7.671,1.112-15.104-6.37-16.604-16.714c-1.501-10.345,3.503-19.631,11.176-20.742
		C159.593,403.761,167.027,411.244,168.527,421.591z"/>
	<path stroke="#FFFFFF" stroke-width="0.5" stroke-miterlimit="10" d="M160.289,429.396c0.575,2.443-0.551,4.797-2.514,5.259
		c-1.963,0.462-4.023-1.143-4.598-3.586c-0.574-2.445,0.555-4.8,2.519-5.26C157.657,425.348,159.714,426.954,160.289,429.396z"/>
	<path d="M179.788,445.356l6.422-2.93c0,0-7.656-1.736-11.655-0.02C175.105,443.109,179.788,445.356,179.788,445.356z"/>
	<ellipse transform="matrix(0.6771 0.7359 -0.7359 0.6771 355.4476 79.6183)" cx="87.006" cy="444.809" rx="7.144" ry="4.903"/>
	<path d="M264.722,452.605c-2.904-1.728-2.813-7.233,0.192-12.293c3.014-5.062,7.807-7.763,10.714-6.037
		c2.905,1.729,2.816,7.234-0.194,12.294C272.422,451.628,267.627,454.331,264.722,452.605z"/>
	<polygon points="178.027,366.812 175.679,361.753 178.027,364.283 178.027,356.868 179.932,363.322 182.04,360.881 
		180.305,364.021 182.04,364.37 180.992,366.812 	"/>
	
		<ellipse transform="matrix(0.986 0.1669 -0.1669 0.986 73.8931 -28.3203)" fill="#FFFFFF" stroke="#000000" stroke-width="0.25" stroke-miterlimit="10" cx="205.405" cy="425.379" rx="11.393" ry="15.09"/>
	
		<ellipse transform="matrix(0.9967 0.0806 -0.0806 0.9967 35.3861 -15.1345)" stroke="#FFFFFF" stroke-width="0.5" stroke-miterlimit="10" cx="205.069" cy="430.537" rx="2.973" ry="3.57"/>
</g>
<g>
	<g>
		
			<rect x="252.147" y="534.397" transform="matrix(-0.9162 0.4008 -0.4008 -0.9162 759.493 974.4935)" fill="#FFFFFF" stroke="#000000" stroke-width="0.25" stroke-miterlimit="10" width="51.38" height="64.55"/>
		
			<line fill="none" stroke="#000000" stroke-width="0.25" stroke-miterlimit="10" x1="269.027" y1="601.071" x2="286.469" y2="593.233"/>
		
			<line fill="none" stroke="#000000" stroke-width="0.25" stroke-miterlimit="10" x1="266.863" y1="597.407" x2="284.305" y2="589.568"/>
		
			<line fill="none" stroke="#000000" stroke-width="0.25" stroke-miterlimit="10" x1="266.062" y1="595.893" x2="283.5" y2="588.053"/>
	</g>
	<polygon fill="#FFFFFF" stroke="#000000" stroke-width="0.25" stroke-miterlimit="10" points="276.446,598.363 319.961,561.12 
		280.016,510.411 236.501,547.657 	"/>
	<polygon fill="#FFFFFF" stroke="#000000" stroke-width="0.25" stroke-miterlimit="10" points="234.949,607.74 174.356,616.346 
		161.499,542.588 222.092,533.982 	"/>
	<polygon fill="#FFFFFF" stroke="#000000" stroke-width="0.25" stroke-miterlimit="10" points="221.857,617.633 160.68,613.635 
		166.652,539.166 227.832,543.163 	"/>
	
		<rect x="166.1" y="538.777" fill="#FFFFFF" stroke="#000000" stroke-width="0.25" stroke-miterlimit="10" width="61.339" height="74.664"/>
	
		<rect x="93.848" y="539.336" transform="matrix(0.9952 0.098 -0.098 0.9952 56.6167 -8.9656)" fill="#FFFFFF" stroke="#000000" stroke-width="0.25" stroke-miterlimit="10" width="51.378" height="64.548"/>
	
		<line fill="none" stroke="#000000" stroke-width="0.25" stroke-miterlimit="10" x1="138.545" y1="601.602" x2="119.537" y2="599.538"/>
	
		<line fill="none" stroke="#000000" stroke-width="0.25" stroke-miterlimit="10" x1="139.47" y1="597.449" x2="120.462" y2="595.384"/>
	
		<line fill="none" stroke="#000000" stroke-width="0.25" stroke-miterlimit="10" x1="139.767" y1="595.76" x2="120.76" y2="593.695"/>
	
		<line fill="none" stroke="#000000" stroke-width="0.25" stroke-miterlimit="10" x1="140.31" y1="594.025" x2="121.301" y2="591.961"/>
	
		<line fill="none" stroke="#000000" stroke-width="0.25" stroke-miterlimit="10" x1="140.653" y1="590.437" x2="121.646" y2="588.372"/>
	
		<line fill="none" stroke="#000000" stroke-width="0.25" stroke-miterlimit="10" x1="140.736" y1="588.748" x2="121.729" y2="586.686"/>
	
		<line fill="none" stroke="#000000" stroke-width="0.25" stroke-miterlimit="10" x1="140.632" y1="585.701" x2="121.624" y2="583.637"/>
	
		<line fill="none" stroke="#000000" stroke-width="0.25" stroke-miterlimit="10" x1="140.729" y1="583.696" x2="121.722" y2="581.633"/>
	
		<line fill="none" stroke="#000000" stroke-width="0.25" stroke-miterlimit="10" x1="141.618" y1="578.693" x2="122.61" y2="576.629"/>
	
		<line fill="none" stroke="#000000" stroke-width="0.25" stroke-miterlimit="10" x1="141.674" y1="576.969" x2="122.667" y2="574.903"/>
	
		<line fill="none" stroke="#000000" stroke-width="0.25" stroke-miterlimit="10" x1="141.826" y1="571.374" x2="122.818" y2="569.309"/>
	
		<line fill="none" stroke="#000000" stroke-width="0.25" stroke-miterlimit="10" x1="142.139" y1="566.304" x2="123.13" y2="564.239"/>
	
		<rect x="78.365" y="539.525" transform="matrix(0.9654 0.2608 -0.2608 0.9654 152.7507 -7.3469)" fill="#FFFFFF" stroke="#000000" stroke-width="0.25" stroke-miterlimit="10" width="51.378" height="64.551"/>
	
		<line fill="none" stroke="#000000" stroke-width="0.25" stroke-miterlimit="10" x1="79.873" y1="591.961" x2="110.306" y2="599.538"/>
	
		<rect x="77.591" y="532.708" transform="matrix(0.9383 0.3458 -0.3458 0.9383 201.7213 -0.8632)" fill="#FFFFFF" stroke="#000000" stroke-width="0.25" stroke-miterlimit="10" width="51.378" height="64.551"/>
	
		<rect x="75.364" y="530.16" transform="matrix(0.9383 0.3458 -0.3458 0.9383 200.7145 -0.2482)" fill="#FFFFFF" stroke="#000000" stroke-width="0.25" stroke-miterlimit="10" width="51.378" height="64.55"/>
	
		<rect x="72.529" y="524.986" transform="matrix(0.9169 0.399 -0.399 0.9169 230.5089 7.0923)" fill="#FFFFFF" stroke="#000000" stroke-width="0.25" stroke-miterlimit="10" width="51.377" height="64.55"/>
	
		<line fill="none" stroke="#000000" stroke-width="0.25" stroke-miterlimit="10" x1="68.532" y1="571.631" x2="109.06" y2="590.07"/>
	
		<line fill="none" stroke="#000000" stroke-width="0.25" stroke-miterlimit="10" x1="70.44" y1="563.16" x2="113.838" y2="583.459"/>
	
		<line fill="none" stroke="#000000" stroke-width="0.25" stroke-miterlimit="10" x1="71.436" y1="559.317" x2="114.834" y2="579.616"/>
	
		<line fill="none" stroke="#000000" stroke-width="0.25" stroke-miterlimit="10" x1="73.077" y1="557.092" x2="116.474" y2="577.393"/>
	
		<line fill="none" stroke="#000000" stroke-width="0.25" stroke-miterlimit="10" x1="74.081" y1="553.113" x2="117.479" y2="573.412"/>
	
		<line fill="none" stroke="#000000" stroke-width="0.25" stroke-miterlimit="10" x1="75.157" y1="550.91" x2="118.555" y2="571.208"/>
	
		<line fill="none" stroke="#000000" stroke-width="0.25" stroke-miterlimit="10" x1="76.411" y1="547.809" x2="119.809" y2="568.107"/>
	
		<line fill="none" stroke="#000000" stroke-width="0.25" stroke-miterlimit="10" x1="78.312" y1="544.476" x2="121.708" y2="564.773"/>
	
		<line fill="none" stroke="#000000" stroke-width="0.25" stroke-miterlimit="10" x1="79.354" y1="542.136" x2="122.752" y2="562.435"/>
	
		<line fill="none" stroke="#000000" stroke-width="0.25" stroke-miterlimit="10" x1="79.944" y1="540.25" x2="123.342" y2="560.549"/>
	
		<line fill="none" stroke="#000000" stroke-width="0.25" stroke-miterlimit="10" x1="82.086" y1="535.604" x2="125.485" y2="555.904"/>
	
		<line fill="none" stroke="#000000" stroke-width="0.25" stroke-miterlimit="10" x1="82.355" y1="533.941" x2="125.754" y2="554.239"/>
	
		<rect x="249.654" y="516.229" transform="matrix(-0.8376 0.5464 -0.5464 -0.8376 805.633 857.474)" fill="#FFFFFF" stroke="#000000" stroke-width="0.25" stroke-miterlimit="10" width="51.376" height="64.551"/>
	<g>
		
			<rect x="167.396" y="539.421" fill="#FFFFFF" stroke="#000000" stroke-width="0.25" stroke-miterlimit="10" width="61.341" height="74.665"/>
		<g>
			
				<line fill="none" stroke="#000000" stroke-width="0.25" stroke-miterlimit="10" x1="173.95" y1="605.917" x2="221.411" y2="606.558"/>
			
				<line fill="none" stroke="#000000" stroke-width="0.25" stroke-miterlimit="10" x1="174" y1="602.164" x2="221.462" y2="602.805"/>
			
				<line fill="none" stroke="#000000" stroke-width="0.25" stroke-miterlimit="10" x1="174.051" y1="598.41" x2="221.513" y2="599.051"/>
			
				<line fill="none" stroke="#000000" stroke-width="0.25" stroke-miterlimit="10" x1="174.102" y1="594.657" x2="221.563" y2="595.298"/>
			
				<line fill="none" stroke="#000000" stroke-width="0.25" stroke-miterlimit="10" x1="174.153" y1="590.903" x2="221.614" y2="591.545"/>
			
				<line fill="none" stroke="#000000" stroke-width="0.25" stroke-miterlimit="10" x1="174.203" y1="587.15" x2="221.665" y2="587.792"/>
			
				<line fill="none" stroke="#000000" stroke-width="0.25" stroke-miterlimit="10" x1="174.254" y1="583.397" x2="221.715" y2="584.039"/>
			
				<line fill="none" stroke="#000000" stroke-width="0.25" stroke-miterlimit="10" x1="174.305" y1="579.644" x2="221.767" y2="580.285"/>
			
				<line fill="none" stroke="#000000" stroke-width="0.25" stroke-miterlimit="10" x1="174.355" y1="575.891" x2="221.816" y2="576.532"/>
			
				<line fill="none" stroke="#000000" stroke-width="0.25" stroke-miterlimit="10" x1="174.406" y1="572.138" x2="221.867" y2="572.779"/>
			
				<line fill="none" stroke="#000000" stroke-width="0.25" stroke-miterlimit="10" x1="174.457" y1="568.384" x2="221.918" y2="569.025"/>
			
				<line fill="none" stroke="#000000" stroke-width="0.25" stroke-miterlimit="10" x1="174.508" y1="564.631" x2="221.969" y2="565.273"/>
			
				<line fill="none" stroke="#000000" stroke-width="0.25" stroke-miterlimit="10" x1="174.558" y1="560.878" x2="222.02" y2="561.52"/>
			
				<line fill="none" stroke="#000000" stroke-width="0.25" stroke-miterlimit="10" x1="174.609" y1="557.124" x2="222.07" y2="557.766"/>
			
				<line fill="none" stroke="#000000" stroke-width="0.25" stroke-miterlimit="10" x1="174.66" y1="553.371" x2="222.121" y2="554.013"/>
			
				<line fill="none" stroke="#000000" stroke-width="0.25" stroke-miterlimit="10" x1="174.711" y1="549.617" x2="222.172" y2="550.26"/>
			
				<line fill="none" stroke="#000000" stroke-width="0.25" stroke-miterlimit="10" x1="174.761" y1="545.864" x2="222.223" y2="546.507"/>
		</g>
	</g>
	
		<line fill="none" stroke="#000000" stroke-width="0.25" stroke-miterlimit="10" x1="308.438" y1="572.694" x2="281.833" y2="589.304"/>
	
		<rect x="265.318" y="516.229" transform="matrix(-0.7855 0.6188 -0.6188 -0.7855 859.021 799.3069)" fill="#FFFFFF" stroke="#000000" stroke-width="0.25" stroke-miterlimit="10" width="51.379" height="64.551"/>
	
		<rect x="254.578" y="513.083" transform="matrix(-0.7488 0.6628 -0.6628 -0.7488 851.6042 767.936)" fill="#FFFFFF" stroke="#000000" stroke-width="0.25" stroke-miterlimit="10" width="51.377" height="64.552"/>
	
		<line fill="none" stroke="#000000" stroke-width="0.25" stroke-miterlimit="10" x1="312.938" y1="549.854" x2="280.094" y2="579.914"/>
	
		<line fill="none" stroke="#000000" stroke-width="0.25" stroke-miterlimit="10" x1="308.507" y1="542.387" x2="273.506" y2="575.103"/>
	
		<line fill="none" stroke="#000000" stroke-width="0.25" stroke-miterlimit="10" x1="306.372" y1="539.042" x2="271.372" y2="571.757"/>
	
		<line fill="none" stroke="#000000" stroke-width="0.25" stroke-miterlimit="10" x1="304.126" y1="537.431" x2="269.123" y2="570.146"/>
	
		<line fill="none" stroke="#000000" stroke-width="0.25" stroke-miterlimit="10" x1="301.939" y1="533.957" x2="266.939" y2="566.672"/>
	
		<line fill="none" stroke="#000000" stroke-width="0.25" stroke-miterlimit="10" x1="300.236" y1="532.192" x2="265.233" y2="564.908"/>
	
		<line fill="none" stroke="#000000" stroke-width="0.25" stroke-miterlimit="10" x1="298.083" y1="529.631" x2="263.084" y2="562.347"/>
	
		<line fill="none" stroke="#000000" stroke-width="0.25" stroke-miterlimit="10" x1="295.247" y1="527.049" x2="260.248" y2="559.766"/>
	
		<line fill="none" stroke="#000000" stroke-width="0.25" stroke-miterlimit="10" x1="293.532" y1="525.146" x2="258.531" y2="557.861"/>
	
		<line fill="none" stroke="#000000" stroke-width="0.25" stroke-miterlimit="10" x1="292.39" y1="523.535" x2="257.386" y2="556.25"/>
	
		<line fill="none" stroke="#000000" stroke-width="0.25" stroke-miterlimit="10" x1="288.916" y1="519.778" x2="253.915" y2="552.495"/>
</g>
<path opacity="0.1" fill="none" stroke="#000000" stroke-width="0.25" stroke-miterlimit="10" d="M121.971,470.864
	c0,0,49.374-26.317,117.558,1.007"/>
</svg>
