<?xml version="1.0" encoding="utf-8"?>
<!-- Generator: Adobe Illustrator 16.0.0, SVG Export Plug-In . SVG Version: 6.00 Build 0)  -->
<!DOCTYPE svg PUBLIC "-//W3C//DTD SVG 1.1//EN" "http://www.w3.org/Graphics/SVG/1.1/DTD/svg11.dtd">
<svg version="1.1" id="Calque_1" xmlns="http://www.w3.org/2000/svg" xmlns:xlink="http://www.w3.org/1999/xlink" x="0px" y="0px"
	 width="360px" height="640px" viewBox="270 163.074 360 640" enable-background="new 270 163.074 360 640" xml:space="preserve">
<g>
	<rect x="127.582" y="144.659" fill="#8E24AA" width="647.428" height="647.552"/>
	<rect x="130.379" y="735.716" fill="#E0E0E0" width="647.427" height="312.05"/>
</g>
<ellipse opacity="0.5" fill="#BDBDBD" cx="449.965" cy="783.178" rx="178.968" ry="13.617"/>
<g>
	<path d="M532.058,696.545c1.265-4.874,1.955-9.948,1.955-15.174c0-36.315-32.32-65.755-72.189-65.755
		c-39.871,0-72.189,29.439-72.189,65.755c0,5.226,0.689,10.3,1.953,15.174c-7.586,9.743-11.96,21.186-11.96,33.429
		c0,17.226,8.65,32.87,22.739,44.416c5.736,4.701,20.86,13.002,36.343,13.552c49.06,3.886,67.171-4.031,68.221-4.722
		c20.842-13.686,37.088-30.842,37.088-53.246C544.018,717.73,539.646,706.288,532.058,696.545z"/>
	
		<ellipse transform="matrix(-0.6284 -0.7779 0.7779 -0.6284 86.8288 1407.7205)" cx="379.627" cy="683.123" rx="26.021" ry="11.006"/>
	<ellipse transform="matrix(0.7221 -0.6918 0.6918 0.7221 -426.7042 497.6971)" cx="406.158" cy="779.99" rx="13.342" ry="6.194"/>
	<path d="M508.26,770.52c2.428-2.41,8.604-0.123,13.794,5.106c5.191,5.231,7.431,11.425,5.002,13.834
		c-2.431,2.411-8.605,0.124-13.797-5.105C508.071,779.122,505.83,772.929,508.26,770.52z"/>
	
		<ellipse transform="matrix(0.8013 -0.5983 0.5983 0.8013 -302.4456 458.5507)" cx="539.063" cy="684.566" rx="26.022" ry="11.006"/>
	<ellipse fill="#FFFFFF" cx="442.798" cy="661.726" rx="29.366" ry="32.164"/>
	<ellipse fill="#FFFFFF" cx="487.826" cy="661.726" rx="29.365" ry="32.164"/>
	<path fill="#FFFFFF" d="M523.475,696.545c-39.494-45.346-100.962-33.91-120.851,0c-4.481,7.872-10.288,21.186-10.288,33.429
		c0,17.226,7.443,32.87,19.563,44.416c4.934,4.701,17.946,13.002,31.267,13.552c42.208,3.886,57.787-4.031,58.691-4.722
		c17.931-13.686,31.906-30.842,31.906-53.246C533.764,717.73,533.669,710.085,523.475,696.545z"/>
	<polygon points="460.127,616.299 457.2,609.997 460.127,613.148 460.127,603.911 462.497,611.951 465.123,608.91 462.963,612.821 
		465.123,613.257 463.818,616.299 	"/>
	
		<ellipse transform="matrix(0.9968 -0.0803 0.0803 0.9968 -51.3271 37.6813)" fill="#FFFFFF" stroke="#000000" stroke-width="0.25" stroke-miterlimit="10" cx="442.797" cy="656.948" rx="13.863" ry="18.691"/>
	<path d="M460.694,687.047l9.504-4.336c0,0-11.333-2.568-17.252-0.03C453.762,683.724,460.694,687.047,460.694,687.047z"/>
	<ellipse stroke="#FFFFFF" stroke-width="0.5" stroke-miterlimit="10" cx="442.798" cy="656.807" rx="2.93" ry="3.646"/>
	<path fill="#FFFFFF" stroke="#000000" stroke-width="0.25" stroke-miterlimit="10" d="M499.106,660.959
		c-1.275,10.246-8.469,17.783-16.064,16.837c-7.598-0.942-12.726-10.016-11.449-20.26c1.274-10.244,8.466-17.781,16.065-16.836
		C495.254,641.646,500.38,650.713,499.106,660.959z"/>
	
		<ellipse transform="matrix(0.9793 0.2023 -0.2023 0.9793 143.416 -84.6677)" stroke="#FFFFFF" stroke-width="0.5" stroke-miterlimit="10" cx="485.844" cy="659.158" rx="2.93" ry="3.645"/>
</g>
<g>
	<g>
		<g enable-background="new    ">
			<g enable-background="new    ">
				<defs>
					<path id="SVGID_1_" enable-background="new    " d="M374.913,695.024c-0.643-0.311-1.285-0.621-1.927-0.932
						c-0.673-0.325-1.195-0.899-1.403-1.643l1.927,0.931C373.718,694.125,374.24,694.699,374.913,695.024z"/>
				</defs>
				<clipPath id="SVGID_2_">
					<use xlink:href="#SVGID_1_"  overflow="visible"/>
				</clipPath>
				<g clip-path="url(#SVGID_2_)" enable-background="new    ">
					<path fill="#291B18" d="M374.913,695.024l-1.927-0.932c-0.673-0.325-1.195-0.899-1.403-1.643l1.927,0.931
						C373.718,694.125,374.24,694.699,374.913,695.024"/>
				</g>
			</g>
			<g>
				<polygon fill="#6A712C" points="416.723,584.211 414.796,583.279 394.971,512.414 396.898,513.345 				"/>
			</g>
			<g>
				<polygon fill="#271A17" points="373.51,693.381 371.583,692.45 347.502,606.389 349.429,607.319 				"/>
			</g>
			<g>
				<polygon fill="#2C1D1A" points="349.429,607.319 347.502,606.389 353.333,604.656 355.26,605.587 				"/>
			</g>
			<g>
				<polygon fill="#787F31" points="289.765,621.948 287.838,621.017 414.796,583.279 416.723,584.211 				"/>
			</g>
			<g>
				<polygon fill="#909090" points="269.931,551.073 268.003,550.142 394.971,512.414 396.898,513.345 				"/>
			</g>
			<g>
				<polygon fill="#E1E1E1" points="396.898,513.345 416.723,584.211 289.765,621.947 269.931,551.073 				"/>
			</g>
			<g>
				<polygon fill="#808080" points="289.765,621.947 287.838,621.017 268.003,550.142 269.931,551.073 				"/>
			</g>
			<g>
				<path fill="#BBC74D" d="M398.947,509.632l21.435,76.602l-65.122,19.354l-5.831,1.733l-61.713,18.34l-21.436-76.61
					L398.947,509.632z M289.765,621.948l126.958-37.737l-19.824-70.866l-126.968,37.729L289.765,621.948"/>
			</g>
			<g>
				<path fill="#452E29" d="M355.26,605.587l24.089,86.056c0.413,1.482-0.558,3.06-2.17,3.544c-0.211,0.063-0.422,0.103-0.631,0.122
					c-1.39,0.132-2.678-0.646-3.037-1.928l-24.081-86.062L355.26,605.587z"/>
			</g>
			<g>
				<polygon fill="#787F31" points="266.28,549.05 264.353,548.119 397.02,508.7 398.947,509.632 				"/>
			</g>
			<g>
				<polygon fill="#6A712C" points="287.716,625.66 285.789,624.729 264.353,548.119 266.28,549.05 				"/>
			</g>
		</g>
	</g>
</g>
<text transform="matrix(0.9616 -0.2743 0.2743 0.9616 297.2041 573.876)"><tspan x="0" y="0" font-family="'Roboto-Medium'" font-size="23.0288">PLUS DE</tspan><tspan x="-13.042" y="27.634" font-family="'Roboto-Medium'" font-size="23.0288">LICENCES !</tspan></text>
<ellipse cx="368.94" cy="671.623" rx="6.729" ry="7.529"/>
<g>
	<g>
		<g enable-background="new    ">
			<g>
				<polygon fill="#805A00" points="630.917,626.021 628.99,625.09 644.994,552.788 646.921,553.72 				"/>
			</g>
			<g enable-background="new    ">
				<defs>
					<path id="SVGID_3_" enable-background="new    " d="M543.414,705.096c-0.643-0.311-1.285-0.62-1.927-0.931
						c-1.199-0.579-1.899-1.842-1.618-3.107l1.927,0.931C541.516,703.255,542.215,704.517,543.414,705.096z"/>
				</defs>
				<clipPath id="SVGID_4_">
					<use xlink:href="#SVGID_3_"  overflow="visible"/>
				</clipPath>
				<g clip-path="url(#SVGID_4_)" enable-background="new    ">
					<path fill="#291B18" d="M543.414,705.096l-1.927-0.931c-1.199-0.579-1.899-1.842-1.618-3.107l1.927,0.931
						C541.516,703.255,542.215,704.517,543.414,705.096"/>
				</g>
			</g>
			<g>
				<polygon fill="#271A17" points="541.796,701.988 539.869,701.058 559.308,613.258 561.235,614.189 				"/>
			</g>
			<g>
				<polygon fill="#2F201C" points="561.235,614.189 559.308,613.258 565.218,614.521 567.146,615.452 				"/>
			</g>
			<g>
				<path fill="#452E29" d="M561.235,614.189l5.91,1.263l-19.432,87.797c-0.266,1.199-1.329,2.041-2.575,2.159
					c-0.32,0.03-0.652,0.013-0.986-0.06c-1.634-0.35-2.69-1.852-2.356-3.36L561.235,614.189z"/>
			</g>
			<g>
				<polygon fill="#9B6D00" points="502.204,598.515 500.277,597.583 628.99,625.09 630.917,626.021 				"/>
			</g>
			<g>
				<polygon fill="#808080" points="502.204,598.515 500.277,597.583 516.281,525.281 518.208,526.212 				"/>
			</g>
			<g>
				<polygon fill="#9B9B9B" points="518.208,526.212 516.281,525.281 644.994,552.788 646.921,553.72 				"/>
			</g>
			<g>
				<path fill="#E19E00" d="M515.97,522.67l134.486,28.736l-17.302,78.157l-1.443-0.314l-64.566-13.797l-5.909-1.263l-62.566-13.371
					L515.97,522.67z M630.917,626.021l16.004-72.302l-128.713-27.508l-16.004,72.303L630.917,626.021"/>
			</g>
			<g>
				<polygon fill="#E1E1E1" points="518.208,526.212 646.921,553.72 630.917,626.021 502.204,598.515 				"/>
			</g>
			<g>
				<polygon fill="#805A00" points="498.669,600.818 496.742,599.888 514.043,521.739 515.97,522.67 				"/>
			</g>
			<g>
				<polygon fill="#9B6D00" points="515.97,522.67 514.043,521.739 648.528,550.476 650.456,551.406 				"/>
			</g>
		</g>
	</g>
</g>
<text transform="matrix(0.9765 0.2155 -0.2155 0.9765 531.1973 558.7021)"><tspan x="0" y="0" font-family="'Roboto-Medium'" font-size="23.029">PLUS DE</tspan><tspan x="-13.043" y="27.635" font-family="'Roboto-Medium'" font-size="23.029">LICENCES !</tspan></text>
<ellipse cx="551.798" cy="675.612" rx="7.78" ry="6.316"/>
</svg>
