<?xml version="1.0" encoding="utf-8"?>
<!-- Generator: Adobe Illustrator 16.0.0, SVG Export Plug-In . SVG Version: 6.00 Build 0)  -->
<!DOCTYPE svg PUBLIC "-//W3C//DTD SVG 1.1//EN" "http://www.w3.org/Graphics/SVG/1.1/DTD/svg11.dtd">
<svg version="1.1" id="Calque_1" xmlns="http://www.w3.org/2000/svg" xmlns:xlink="http://www.w3.org/1999/xlink" x="0px" y="0px"
	 width="360px" height="640px" viewBox="270 163.074 360 640" enable-background="new 270 163.074 360 640" xml:space="preserve">
<g>
	<rect x="-13.289" y="371.826" fill="#E0E0E0" width="818.535" height="847.599"/>
	<rect x="-13.5" y="-27.605" fill="#26C6DA" width="843.017" height="714.898"/>
</g>
<ellipse opacity="0.2" fill="#757575" cx="441.099" cy="756.78" rx="70.691" ry="61.179"/>
<ellipse opacity="0.2" fill="#757575" cx="447.918" cy="713.352" rx="140.215" ry="62.096"/>
<g>
	<path d="M439.069,619.847c-3.41-1.683-6.792-2.862-9.876-3.544c0.001-0.055,0.006-0.106,0.006-0.161
		c0-29.005-25.813-52.517-57.653-52.517c-31.842,0-57.653,23.512-57.653,52.517c0,0.813,0.038,1.618,0.079,2.423
		c-3.836,0.819-8.354,2.709-12.816,5.57c-9.662,6.195-15.37,14.531-12.749,18.619c2.444,3.811,11.268,2.577,20.283-2.631
		c-1.808,4.697-2.789,9.675-2.789,14.835c0,13.756,6.909,26.25,18.161,35.472c0.096,0.079,0.215,0.166,0.318,0.248
		c-0.24,0.211-0.478,0.427-0.713,0.652c-4.25,4.069-6.162,8.97-4.272,10.943s6.867,0.271,11.117-3.8
		c0.899-0.861,1.688-1.76,2.362-2.661c5.632,2.73,12.865,5.179,20.211,5.44c39.184,3.103,53.646-3.221,54.484-3.771
		c0.925-0.607,1.837-1.224,2.737-1.85c0.658,0.93,1.432,1.86,2.319,2.756c4.144,4.178,9.077,6.003,11.018,4.077
		c1.939-1.924,0.15-6.87-3.995-11.048c-0.564-0.568-1.143-1.088-1.726-1.566c11.373-9.531,19.268-20.937,19.268-34.893
		c0-6.592-1.593-12.891-4.483-18.683c9.783,4.451,19.054,4.808,21.104,0.654C455.96,632.576,449.36,624.929,439.069,619.847z"/>
	<path fill="#FFFFFF" d="M406.596,630.505c3.758-4.556,6.049-10.593,6.049-17.218c0-14.188-10.5-25.688-23.452-25.688
		c-7.223,0-13.68,3.578-17.981,9.2c-4.302-5.622-10.758-9.2-17.981-9.2c-12.952,0-23.452,11.5-23.452,25.688
		c0,6.271,2.055,12.015,5.463,16.476c-15.737,7.357-26.037,19.546-26.037,33.35c0,22.472,27.281,40.691,60.934,40.691
		s60.935-18.22,60.935-40.691C431.071,649.768,421.453,637.925,406.596,630.505z"/>
	
		<ellipse transform="matrix(0.9932 -0.1163 0.1163 0.9932 -69.3082 45.1985)" fill="#FFFFFF" stroke="#000000" stroke-width="0.25" stroke-miterlimit="10" cx="352.512" cy="616.287" rx="10.916" ry="14.717"/>
	
		<ellipse transform="matrix(0.9962 0.0869 -0.0869 0.9962 55.0073 -31.4725)" fill="#FFFFFF" stroke="#000000" stroke-width="0.25" stroke-miterlimit="10" cx="389.118" cy="616.288" rx="10.916" ry="14.717"/>
	<ellipse stroke="#FFFFFF" stroke-width="0.5" stroke-miterlimit="10" cx="355.52" cy="616.285" rx="2.951" ry="3.672"/>
	<ellipse stroke="#FFFFFF" stroke-width="0.5" stroke-miterlimit="10" cx="391.458" cy="616.285" rx="2.951" ry="3.672"/>
	<path d="M370.064,638.604l10.098-4.607c0,0-12.041-2.729-18.331-0.032C362.697,635.073,370.064,638.604,370.064,638.604z"/>
</g>
<polygon points="366.182,567.454 363.624,561.945 366.182,564.7 366.182,556.626 368.253,563.654 370.55,560.995 368.661,564.415 
	370.55,564.795 369.41,567.454 "/>
<g>
	<g>
		
			<ellipse transform="matrix(-0.9259 0.3776 -0.3776 -0.9259 1165.1316 1028.2848)" cx="481.75" cy="628.375" rx="20.461" ry="8.654"/>
		<path d="M486.606,691.61c1.861,2.172-0.022,6.764-4.207,10.258c-4.185,3.495-9.084,4.569-10.944,2.397
			c-1.861-2.172,0.021-6.765,4.206-10.259C479.845,690.513,484.744,689.438,486.606,691.61z"/>
		<path d="M562.166,705.915c1.909-1.66,6.766,0.734,10.846,5.348c4.082,4.614,5.842,9.7,3.933,11.359
			c-1.91,1.661-6.767-0.733-10.848-5.348C562.017,712.662,560.256,707.575,562.166,705.915z"/>
		<path d="M617.83,655.404c2.115-4.027-4.382-12.354-14.515-18.602c-10.133-6.247-20.062-8.046-22.177-4.02
			c-2.117,4.026,4.38,12.354,14.513,18.6C605.784,657.63,615.714,659.431,617.83,655.404z"/>
		<ellipse cx="542.043" cy="625.905" rx="54.72" ry="47.79"/>
		<path d="M603.582,664.905c0,18.244-13.134,38.562-27.732,44.276s-25.991,1.622-49.764-1.958
			c-22.019-3.316-46.969-6.959-49.711-21.835c-3.501-6.276-5.638-12.964-5.638-20.483c0-30.08,29.737-54.464,66.423-54.464
			S603.582,634.825,603.582,664.905z"/>
		<path fill="#FFFFFF" d="M595.547,668.693c0.208,16.297-11.098,34.593-23.854,39.86c-12.758,5.271-22.808,1.741-43.729-1.19
			c-19.374-2.717-41.329-5.692-43.907-18.951c-3.146-5.568-5.1-11.517-5.184-18.235c-0.343-26.87,25.498-48.986,57.718-49.396
			C568.808,620.37,595.205,641.821,595.547,668.693z"/>
		<ellipse fill="#FFFFFF" cx="524.848" cy="619.279" rx="22.125" ry="27.098"/>
		
			<ellipse transform="matrix(0.9548 0.2973 -0.2973 0.9548 211.2622 -139.076)" fill="#FFFFFF" cx="562.806" cy="624.93" rx="22.124" ry="27.097"/>
		<path d="M570.274,592.461c0.046-0.036,0.352,0.432,0.352,0.432c-6.891-0.618-13.96-6.003-17.842-11.025
			c0.392,4.189,4.178,8.164,9.201,11.332c9.743,5.864,19.512,6.378,26.521,2.691c10.418-6.582,8.322-20.555-0.061-31.533
			c4.485,8.633,8.235,20.636,0.599,26.066c0.429-3.838,2.402-8.018-1.177-12.572c1.718,7.105-2.118,13.836-10.778,14.727
			C573.284,592.885,570.274,592.461,570.274,592.461z"/>
	</g>
	
		<ellipse transform="matrix(0.9888 0.1492 -0.1492 0.9888 98.0237 -71.346)" fill="#FFFFFF" stroke="#000000" stroke-width="0.25" stroke-miterlimit="10" cx="524.389" cy="617.458" rx="9.661" ry="13.216"/>
	
		<ellipse transform="matrix(0.9886 0.1503 -0.1503 0.9886 98.7377 -71.6221)" stroke="#FFFFFF" stroke-width="0.5" stroke-miterlimit="10" cx="523.143" cy="617.33" rx="2.612" ry="3.25"/>
	
		<ellipse transform="matrix(0.9888 0.1493 -0.1493 0.9888 99.3832 -76.8197)" fill="#FFFFFF" stroke="#000000" stroke-width="0.25" stroke-miterlimit="10" cx="561.395" cy="623.591" rx="9.662" ry="13.216"/>
	
		<ellipse transform="matrix(0.9886 0.1505 -0.1505 0.9886 100.2096 -77.1998)" stroke="#FFFFFF" stroke-width="0.5" stroke-miterlimit="10" cx="560.147" cy="623.463" rx="2.612" ry="3.249"/>
	<ellipse opacity="0.2" fill="#C5CAE9" cx="521.295" cy="615.641" rx="18.236" ry="17.453"/>
	<path d="M537.511,638.845l6.067-1.926c0,0-6.057-3.2-9.813-2.116C534.072,635.643,537.511,638.845,537.511,638.845z"/>
	
		<ellipse opacity="0.2" fill="#C5CAE9" stroke="#FDD835" stroke-miterlimit="10" cx="563.586" cy="623.59" rx="18.237" ry="17.455"/>
	
		<ellipse fill="none" stroke="#FB8C00" stroke-width="3" stroke-miterlimit="10" cx="563.566" cy="623.444" rx="18.217" ry="17.436"/>
	
		<ellipse fill="none" stroke="#FB8C00" stroke-width="3" stroke-miterlimit="10" cx="521.295" cy="615.84" rx="18.217" ry="17.435"/>
	<path fill="none" stroke="#FB8C00" stroke-width="3" stroke-miterlimit="10" d="M538.019,622.401
		c4.6-2.518,7.331,1.287,7.331,1.287"/>
	<g>
		<path fill="#FB8C00" d="M504.284,614.094c0,0-0.326-0.114-0.83-0.386c-0.509-0.267-1.197-0.69-1.938-1.282
			c-1.492-1.172-3.17-3.058-4.327-5.352c-0.572-1.146-1.014-2.395-1.223-3.654c-0.114-0.623-0.146-1.262-0.127-1.869
			c0.021-0.607,0.129-1.197,0.279-1.721c0.099-0.266,0.186-0.513,0.291-0.739c0.127-0.226,0.238-0.435,0.361-0.618
			c0.272-0.365,0.545-0.631,0.8-0.813c0.222-0.203,0.476-0.278,0.608-0.353c0.145-0.066,0.224-0.092,0.224-0.092
			s-0.017,0.084-0.049,0.241c-0.031,0.151-0.088,0.358-0.106,0.622c-0.042,0.252-0.021,0.566-0.009,0.882
			c0.037,0.328,0.099,0.673,0.191,1.037c0.11,0.37,0.23,0.753,0.396,1.161c0.16,0.409,0.339,0.835,0.55,1.283
			c0.214,0.449,0.436,0.914,0.66,1.386c0.24,0.48,0.484,0.969,0.729,1.457c0.49,0.99,0.992,2.003,1.443,2.986
			s0.852,1.938,1.168,2.79c0.318,0.852,0.55,1.604,0.694,2.151C504.222,613.755,504.284,614.094,504.284,614.094z"/>
	</g>
</g>
<g>
	<path fill="#FB8C00" d="M595.776,617.211c0,0-0.056,0.336-0.234,0.869c-0.173,0.539-0.468,1.275-0.919,2.091
		c-0.889,1.637-2.435,3.572-4.493,5.053c-1.031,0.73-2.175,1.362-3.399,1.738c-0.613,0.187-1.228,0.323-1.853,0.359
		c-0.611,0.053-1.228-0.007-1.771-0.123c-0.276-0.081-0.535-0.161-0.77-0.258c-0.234-0.125-0.449-0.229-0.635-0.355
		c-0.181-0.146-0.344-0.271-0.479-0.404c-0.129-0.142-0.231-0.284-0.323-0.403c-0.197-0.222-0.257-0.48-0.328-0.61
		c-0.06-0.145-0.082-0.223-0.082-0.223s0.082,0.018,0.236,0.052c0.15,0.03,0.35,0.097,0.608,0.115
		c0.246,0.044,0.55,0.026,0.849,0.005c0.309-0.043,0.625-0.12,0.951-0.236c1.293-0.492,2.914-1.639,4.667-2.907
		c0.445-0.299,0.878-0.633,1.326-0.938c0.442-0.314,0.887-0.622,1.329-0.913c0.878-0.59,1.739-1.126,2.517-1.564
		c0.775-0.439,1.47-0.78,1.979-1.005C595.456,617.324,595.776,617.211,595.776,617.211z"/>
</g>
<ellipse transform="matrix(0.8712 -0.4909 0.4909 0.8712 -299.679 276.2718)" cx="376.695" cy="709.281" rx="22.284" ry="9.426"/>
<ellipse transform="matrix(1 -0.0049 0.0049 1 -3.4473 2.4434)" cx="500.593" cy="709.913" rx="22.284" ry="9.427"/>
<ellipse cx="442.044" cy="694.555" rx="58.548" ry="50.462"/>
<path d="M511.2,732.884c0,23.618-27.946,52.65-43.887,52.161c-15.941-0.489-40.959-0.896-59.146-2.514
	c-18.186-1.617-37.171-28.143-37.171-49.647c0-31.052,31.386-56.225,70.103-56.225S511.2,701.832,511.2,732.884z"/>
</svg>
