<?xml version="1.0" encoding="utf-8"?>
<!-- Generator: Adobe Illustrator 16.0.0, SVG Export Plug-In . SVG Version: 6.00 Build 0)  -->
<!DOCTYPE svg PUBLIC "-//W3C//DTD SVG 1.1//EN" "http://www.w3.org/Graphics/SVG/1.1/DTD/svg11.dtd">
<svg version="1.1" id="hp" xmlns="http://www.w3.org/2000/svg" xmlns:xlink="http://www.w3.org/1999/xlink" x="0px" y="0px"
	 width="1200px" height="650px" viewBox="0 0 1200 650" enable-background="new 0 0 1200 650" xml:space="preserve">
<g id="fond">
	<rect x="-149.776" y="-16.396" fill="#FDD835" width="1549.873" height="745.334"/>
	<rect x="-149.259" y="-171.422" fill="#D81B60" width="1549.355" height="543.754"/>
</g>
<g id="pingouin">
	<ellipse opacity="0.5" fill="#FFA726" cx="601.924" cy="427.023" rx="115.682" ry="14.365"/>
	<ellipse opacity="0.5" fill="#FFA726" cx="457.963" cy="429.618" rx="36.385" ry="0.588"/>
	<ellipse opacity="0.5" fill="#FFA726" cx="736.253" cy="427.022" rx="36.384" ry="0.588"/>
	
		<rect x="463.482" y="461.315" transform="matrix(0.9148 0.4038 -0.4038 0.9148 244.7701 -156.9695)" opacity="0.5" fill="#FFA726" width="62.069" height="80.967"/>
	
		<rect x="468.447" y="468.862" transform="matrix(0.9148 0.4038 -0.4038 0.9148 248.2408 -158.332)" opacity="0.5" fill="#FFA726" width="62.069" height="80.966"/>
	
		<rect x="472.197" y="472.612" transform="matrix(0.9148 0.4038 -0.4038 0.9148 250.0746 -159.527)" opacity="0.5" fill="#FFA726" width="62.069" height="80.966"/>
	
		<rect x="472.914" y="479.42" transform="matrix(0.9695 0.2453 -0.2453 0.9695 142.9634 -108.2072)" opacity="0.5" fill="#FFA726" width="66.054" height="80.967"/>
	
		<rect x="491.082" y="480.068" transform="matrix(0.9986 0.0533 -0.0533 0.9986 28.481 -27.1865)" opacity="0.5" fill="#FFA726" width="66.054" height="80.968"/>
	
		<rect x="577.985" y="480.094" transform="matrix(0.9969 0.0787 -0.0787 0.9969 43.4648 -46.918)" opacity="0.5" fill="#FFA726" width="77.565" height="95.375"/>
	
		<rect x="584.049" y="476.824" transform="matrix(0.9869 -0.1614 0.1614 0.9869 -76.468 107.3788)" opacity="0.5" fill="#FFA726" width="77.565" height="95.263"/>
	
		<rect x="688.927" y="469.294" transform="matrix(0.9391 -0.3436 0.3436 0.9391 -131.6606 279.0367)" opacity="0.5" fill="#FFA726" width="64.993" height="83.364"/>
	
		<rect x="704.942" y="448.695" transform="matrix(0.8153 -0.579 0.579 0.8153 -147.743 517.5594)" opacity="0.5" fill="#FFA726" width="64.994" height="83.363"/>
	
		<rect x="688.927" y="449.694" transform="matrix(0.8153 -0.579 0.579 0.8153 -151.2791 508.4857)" opacity="0.5" fill="#FFA726" width="64.992" height="83.364"/>
	
		<rect x="689.928" y="461.771" transform="matrix(0.784 -0.6208 0.6208 0.784 -156.4785 557.2159)" opacity="0.5" fill="#FFA726" width="64.992" height="83.362"/>
	
		<rect x="583.225" y="477.083" transform="matrix(0.9838 -0.1793 0.1793 0.9838 -84.0308 120.0642)" opacity="0.5" fill="#FFA726" width="77.565" height="95.375"/>
	
		<rect x="590.351" y="478.497" transform="matrix(0.9995 -0.0325 0.0325 0.9995 -16.7728 20.612)" opacity="0.5" fill="#FFA726" width="70.453" height="95.376"/>
	<g>
		<path fill="#FFFFFF" stroke="#000000" stroke-width="0.25" stroke-miterlimit="10" d="M504.01,388.54l-47.594-64.905
			l-38.709,57.792c0,0,68.535,49.452,68.535,47.55C486.242,427.072,504.01,388.54,504.01,388.54z"/>
		
			<line fill="none" stroke="#000000" stroke-width="0.25" stroke-miterlimit="10" x1="434.634" y1="386.472" x2="461.92" y2="345.855"/>
		
			<line fill="none" stroke="#000000" stroke-width="0.25" stroke-miterlimit="10" x1="443.313" y1="393.521" x2="469.364" y2="350.278"/>
		
			<line fill="none" stroke="#000000" stroke-width="0.25" stroke-miterlimit="10" x1="446.07" y1="395.17" x2="471.758" y2="353.571"/>
		
			<line fill="none" stroke="#000000" stroke-width="0.25" stroke-miterlimit="10" x1="448.776" y1="397.28" x2="474.172" y2="357.632"/>
		
			<line fill="none" stroke="#000000" stroke-width="0.25" stroke-miterlimit="10" x1="451.973" y1="399.571" x2="477.215" y2="361.057"/>
		
			<line fill="none" stroke="#000000" stroke-width="0.25" stroke-miterlimit="10" x1="455.017" y1="401.594" x2="479.262" y2="363.808"/>
		
			<line fill="none" stroke="#000000" stroke-width="0.25" stroke-miterlimit="10" x1="458.213" y1="403.889" x2="482.203" y2="367.768"/>
		
			<line fill="none" stroke="#000000" stroke-width="0.25" stroke-miterlimit="10" x1="461.475" y1="406.206" x2="485.054" y2="371.604"/>
		
			<line fill="none" stroke="#000000" stroke-width="0.25" stroke-miterlimit="10" x1="464.67" y1="408.498" x2="486.869" y2="374.445"/>
		
			<line fill="none" stroke="#000000" stroke-width="0.25" stroke-miterlimit="10" x1="466.913" y1="410.539" x2="489.123" y2="377.077"/>
		
			<line fill="none" stroke="#000000" stroke-width="0.25" stroke-miterlimit="10" x1="469.993" y1="412.657" x2="492.209" y2="381.23"/>
	</g>
	<g>
		<polygon fill="#FFFFFF" stroke="#000000" stroke-width="0.25" stroke-miterlimit="10" points="706.99,380.437 732.195,304.001 
			786.871,347.002 743.787,404.736 		"/>
		
			<line fill="none" stroke="#000000" stroke-width="0.25" stroke-miterlimit="10" x1="772.332" y1="354.564" x2="733.83" y2="327.737"/>
		
			<line fill="none" stroke="#000000" stroke-width="0.25" stroke-miterlimit="10" x1="766.256" y1="364.482" x2="728.115" y2="334.743"/>
		
			<line fill="none" stroke="#000000" stroke-width="0.25" stroke-miterlimit="10" x1="764.143" y1="367.088" x2="726.859" y2="338.725"/>
		
			<line fill="none" stroke="#000000" stroke-width="0.25" stroke-miterlimit="10" x1="762.221" y1="370.099" x2="725.818" y2="343.423"/>
		
			<line fill="none" stroke="#000000" stroke-width="0.25" stroke-miterlimit="10" x1="759.889" y1="373.471" x2="723.98" y2="347.782"/>
		
			<line fill="none" stroke="#000000" stroke-width="0.25" stroke-miterlimit="10" x1="757.619" y1="376.533" x2="722.887" y2="351.127"/>
		
			<line fill="none" stroke="#000000" stroke-width="0.25" stroke-miterlimit="10" x1="755.289" y1="379.905" x2="721.311" y2="355.938"/>
		
			<line fill="none" stroke="#000000" stroke-width="0.25" stroke-miterlimit="10" x1="752.904" y1="383.328" x2="719.783" y2="360.603"/>
		
			<line fill="none" stroke="#000000" stroke-width="0.25" stroke-miterlimit="10" x1="750.572" y1="386.699" x2="718.938" y2="363.939"/>
		
			<line fill="none" stroke="#000000" stroke-width="0.25" stroke-miterlimit="10" x1="749.07" y1="389.464" x2="717.605" y2="367.256"/>
		
			<line fill="none" stroke="#000000" stroke-width="0.25" stroke-miterlimit="10" x1="746.795" y1="392.63" x2="715.957" y2="372.305"/>
	</g>
	<g>
		<path d="M473.457,384.203c7.119,5.227,22.914-4.176,35.278-21.004c12.366-16.83,16.621-34.713,9.501-39.943
			c-7.119-5.231-22.914,4.172-35.279,21C470.592,361.085,466.338,378.968,473.457,384.203z"/>
		<ellipse transform="matrix(0.8665 -0.4991 0.4991 0.8665 -141.041 308.2247)" cx="505.777" cy="417.821" rx="19.389" ry="9.002"/>
		<path d="M680.108,415.057c0.71-4.92,9.874-7.674,20.474-6.146c10.598,1.527,18.617,6.754,17.904,11.672
			c-0.707,4.926-9.871,7.675-20.469,6.148C687.418,425.204,679.398,419.977,680.108,415.057z"/>
		<path d="M728.041,372.237c5.123-5.663-1.566-20.075-14.955-32.196c-13.385-12.121-28.387-17.355-33.513-11.693
			c-5.129,5.662,1.565,20.077,14.948,32.195C707.908,372.664,722.912,377.9,728.041,372.237z"/>
		<ellipse cx="598.429" cy="333.301" rx="92.012" ry="74.047"/>
		<path d="M701.023,366.367c4.201,55.437-19.912,61.666-43.004,64.593c-31.646,3.207-3.723-2.284-59.076-1.259
			c-55.354,1.027-62.568,2.815-62.568,2.815s-48.236,6.393-45.89-66.149c0-44.237,47.132-80.1,105.271-80.1
			S700.363,325.436,701.023,366.367z"/>
		<ellipse fill="#FFFFFF" cx="566.52" cy="338.494" rx="42.673" ry="46.739"/>
		<ellipse fill="#FFFFFF" cx="631.955" cy="338.494" rx="42.673" ry="46.739"/>
		<path fill="#FFFFFF" d="M659.477,432.154c-30.381,2.232-3.573-1.59-56.713-0.876c-53.139,0.715-60.064,1.959-60.064,1.959
			s-52.211-2.457-32.459-54.95c3.138-8.342,4.971-14.883,15.367-29.008c10.393-14.127,44.821-17.842,74.096-17.842
			c26.604,0,58.627,7.536,68.627,15.765c10,8.228,14.531,23.103,17.879,32.464C699.008,415.456,677.047,430.539,659.477,432.154z"/>
		<path fill="#FFFFFF" stroke="#000000" stroke-width="0.25" stroke-miterlimit="10" d="M585.484,330.111
			c1.879,12.955-4.391,24.59-14.002,25.982c-9.61,1.394-18.923-7.981-20.802-20.939c-1.88-12.96,4.388-24.594,14.001-25.986
			C574.291,307.773,583.605,317.148,585.484,330.111z"/>
		
			<ellipse transform="matrix(0.9735 -0.2289 0.2289 0.9735 -62.8842 139.6733)" stroke="#FFFFFF" stroke-width="0.5" stroke-miterlimit="10" cx="570.708" cy="340.939" rx="4.576" ry="5.692"/>
		<path d="M599.593,359.885l8.046-3.67c0,0-9.594-2.176-14.604-0.025C593.725,357.07,599.593,359.885,599.593,359.885z"/>
		<path d="M489.414,365.785c-2.496,2.296-7.234,1.207-10.579-2.427c-3.347-3.64-4.036-8.449-1.54-10.747
			c2.496-2.297,7.232-1.208,10.579,2.429C491.219,358.677,491.909,363.486,489.414,365.785z"/>
		<path d="M705.998,368.967c-3.639-2.165-3.525-9.063,0.24-15.401c3.775-6.34,9.781-9.726,13.424-7.563
			c3.639,2.165,3.527,9.063-0.244,15.402C715.645,367.742,709.637,371.129,705.998,368.967z"/>
		<polygon points="597.387,261.484 594.445,255.146 597.387,258.316 597.387,249.026 599.771,257.113 602.414,254.053 
			600.24,257.987 602.414,258.425 601.102,261.484 		"/>
		
			<ellipse transform="matrix(0.986 0.1669 -0.1669 0.986 64.7676 -100.7572)" fill="#FFFFFF" stroke="#000000" stroke-width="0.25" stroke-miterlimit="10" cx="631.685" cy="334.857" rx="14.273" ry="18.905"/>
		
			<ellipse transform="matrix(0.9967 0.0806 -0.0806 0.9967 29.5743 -49.785)" stroke="#FFFFFF" stroke-width="0.5" stroke-miterlimit="10" cx="631.264" cy="341.32" rx="3.725" ry="4.47"/>
	</g>
	<g>
		<g>
			
				<rect x="690.244" y="471.436" transform="matrix(-0.9162 0.4008 -0.4008 -0.9162 1589.4474 691.2937)" fill="#FFFFFF" stroke="#000000" stroke-width="0.25" stroke-miterlimit="10" width="64.368" height="80.868"/>
			
				<line fill="none" stroke="#000000" stroke-width="0.25" stroke-miterlimit="10" x1="711.393" y1="554.966" x2="733.242" y2="545.147"/>
			
				<line fill="none" stroke="#000000" stroke-width="0.25" stroke-miterlimit="10" x1="708.682" y1="550.375" x2="730.531" y2="540.556"/>
			
				<line fill="none" stroke="#000000" stroke-width="0.25" stroke-miterlimit="10" x1="707.676" y1="548.478" x2="729.523" y2="538.657"/>
		</g>
		<polygon fill="#FFFFFF" stroke="#000000" stroke-width="0.25" stroke-miterlimit="10" points="720.686,551.574 775.201,504.914 
			725.158,441.387 670.643,488.048 		"/>
		<polygon fill="#FFFFFF" stroke="#000000" stroke-width="0.25" stroke-miterlimit="10" points="668.698,563.32 592.787,574.103 
			576.68,481.697 652.591,470.917 		"/>
		<polygon fill="#FFFFFF" stroke="#000000" stroke-width="0.25" stroke-miterlimit="10" points="652.297,575.715 575.652,570.705 
			583.137,477.411 659.782,482.419 		"/>
		
			<rect x="582.443" y="476.924" fill="#FFFFFF" stroke="#000000" stroke-width="0.25" stroke-miterlimit="10" width="76.847" height="93.54"/>
		
			<rect x="491.925" y="477.622" transform="matrix(0.9952 0.0981 -0.0981 0.9952 53.324 -48.8952)" fill="#FFFFFF" stroke="#000000" stroke-width="0.25" stroke-miterlimit="10" width="64.367" height="80.868"/>
		
			<line fill="none" stroke="#000000" stroke-width="0.25" stroke-miterlimit="10" x1="547.923" y1="555.631" x2="524.109" y2="553.046"/>
		
			<line fill="none" stroke="#000000" stroke-width="0.25" stroke-miterlimit="10" x1="549.082" y1="550.429" x2="525.269" y2="547.841"/>
		
			<line fill="none" stroke="#000000" stroke-width="0.25" stroke-miterlimit="10" x1="549.453" y1="548.312" x2="525.641" y2="545.726"/>
		
			<line fill="none" stroke="#000000" stroke-width="0.25" stroke-miterlimit="10" x1="550.133" y1="546.139" x2="526.32" y2="543.553"/>
		
			<line fill="none" stroke="#000000" stroke-width="0.25" stroke-miterlimit="10" x1="550.564" y1="541.643" x2="526.751" y2="539.057"/>
		
			<line fill="none" stroke="#000000" stroke-width="0.25" stroke-miterlimit="10" x1="550.668" y1="539.528" x2="526.855" y2="536.942"/>
		
			<line fill="none" stroke="#000000" stroke-width="0.25" stroke-miterlimit="10" x1="550.537" y1="535.71" x2="526.724" y2="533.124"/>
		
			<line fill="none" stroke="#000000" stroke-width="0.25" stroke-miterlimit="10" x1="550.66" y1="533.198" x2="526.846" y2="530.612"/>
		
			<line fill="none" stroke="#000000" stroke-width="0.25" stroke-miterlimit="10" x1="551.771" y1="526.931" x2="527.959" y2="524.344"/>
		
			<line fill="none" stroke="#000000" stroke-width="0.25" stroke-miterlimit="10" x1="551.844" y1="524.77" x2="528.029" y2="522.183"/>
		
			<line fill="none" stroke="#000000" stroke-width="0.25" stroke-miterlimit="10" x1="552.033" y1="517.761" x2="528.22" y2="515.173"/>
		
			<line fill="none" stroke="#000000" stroke-width="0.25" stroke-miterlimit="10" x1="552.424" y1="511.407" x2="528.611" y2="508.823"/>
		
			<rect x="472.529" y="477.861" transform="matrix(0.9654 0.2608 -0.2608 0.9654 152.6512 -113.6995)" fill="#FFFFFF" stroke="#000000" stroke-width="0.25" stroke-miterlimit="10" width="64.367" height="80.869"/>
		
			<line fill="none" stroke="#000000" stroke-width="0.25" stroke-miterlimit="10" x1="474.418" y1="543.553" x2="512.544" y2="553.046"/>
		
			<rect x="471.559" y="469.32" transform="matrix(0.9383 0.3458 -0.3458 0.9383 207.3458 -142.7444)" fill="#FFFFFF" stroke="#000000" stroke-width="0.25" stroke-miterlimit="10" width="64.367" height="80.869"/>
		
			<rect x="468.768" y="466.128" transform="matrix(0.9383 0.3458 -0.3458 0.9383 206.0637 -141.9736)" fill="#FFFFFF" stroke="#000000" stroke-width="0.25" stroke-miterlimit="10" width="64.366" height="80.869"/>
		
			<rect x="465.217" y="459.647" transform="matrix(0.9169 0.399 -0.399 0.9169 240.8514 -156.9355)" fill="#FFFFFF" stroke="#000000" stroke-width="0.25" stroke-miterlimit="10" width="64.368" height="80.869"/>
		
			<line fill="none" stroke="#000000" stroke-width="0.25" stroke-miterlimit="10" x1="460.21" y1="518.083" x2="510.982" y2="541.184"/>
		
			<line fill="none" stroke="#000000" stroke-width="0.25" stroke-miterlimit="10" x1="462.6" y1="507.471" x2="516.969" y2="532.901"/>
		
			<line fill="none" stroke="#000000" stroke-width="0.25" stroke-miterlimit="10" x1="463.848" y1="502.657" x2="518.218" y2="528.088"/>
		
			<line fill="none" stroke="#000000" stroke-width="0.25" stroke-miterlimit="10" x1="465.902" y1="499.869" x2="520.272" y2="525.3"/>
		
			<line fill="none" stroke="#000000" stroke-width="0.25" stroke-miterlimit="10" x1="467.162" y1="494.884" x2="521.531" y2="520.314"/>
		
			<line fill="none" stroke="#000000" stroke-width="0.25" stroke-miterlimit="10" x1="468.51" y1="492.123" x2="522.879" y2="517.553"/>
		
			<line fill="none" stroke="#000000" stroke-width="0.25" stroke-miterlimit="10" x1="470.08" y1="488.237" x2="524.449" y2="513.668"/>
		
			<line fill="none" stroke="#000000" stroke-width="0.25" stroke-miterlimit="10" x1="472.461" y1="484.063" x2="526.83" y2="509.493"/>
		
			<line fill="none" stroke="#000000" stroke-width="0.25" stroke-miterlimit="10" x1="473.768" y1="481.132" x2="528.137" y2="506.562"/>
		
			<line fill="none" stroke="#000000" stroke-width="0.25" stroke-miterlimit="10" x1="474.507" y1="478.769" x2="528.876" y2="504.199"/>
		
			<line fill="none" stroke="#000000" stroke-width="0.25" stroke-miterlimit="10" x1="477.191" y1="472.948" x2="531.561" y2="498.38"/>
		
			<line fill="none" stroke="#000000" stroke-width="0.25" stroke-miterlimit="10" x1="477.528" y1="470.866" x2="531.897" y2="496.296"/>
		
			<rect x="687.121" y="448.676" transform="matrix(-0.8376 0.5464 -0.5464 -0.8376 1588.9874 505.7701)" fill="#FFFFFF" stroke="#000000" stroke-width="0.25" stroke-miterlimit="10" width="64.366" height="80.87"/>
		<g>
			
				<rect x="584.066" y="477.729" fill="#FFFFFF" stroke="#000000" stroke-width="0.25" stroke-miterlimit="10" width="76.848" height="93.542"/>
			<g>
				
					<line fill="none" stroke="#000000" stroke-width="0.25" stroke-miterlimit="10" x1="592.278" y1="561.036" x2="651.738" y2="561.839"/>
				
					<line fill="none" stroke="#000000" stroke-width="0.25" stroke-miterlimit="10" x1="592.342" y1="556.334" x2="651.802" y2="557.137"/>
				
					<line fill="none" stroke="#000000" stroke-width="0.25" stroke-miterlimit="10" x1="592.405" y1="551.632" x2="651.865" y2="552.435"/>
				
					<line fill="none" stroke="#000000" stroke-width="0.25" stroke-miterlimit="10" x1="592.469" y1="546.93" x2="651.929" y2="547.732"/>
				
					<line fill="none" stroke="#000000" stroke-width="0.25" stroke-miterlimit="10" x1="592.532" y1="542.228" x2="651.992" y2="543.03"/>
				
					<line fill="none" stroke="#000000" stroke-width="0.25" stroke-miterlimit="10" x1="592.596" y1="537.526" x2="652.056" y2="538.329"/>
				
					<line fill="none" stroke="#000000" stroke-width="0.25" stroke-miterlimit="10" x1="592.659" y1="532.823" x2="652.119" y2="533.627"/>
				
					<line fill="none" stroke="#000000" stroke-width="0.25" stroke-miterlimit="10" x1="592.723" y1="528.121" x2="652.183" y2="528.925"/>
				
					<line fill="none" stroke="#000000" stroke-width="0.25" stroke-miterlimit="10" x1="592.786" y1="523.419" x2="652.246" y2="524.223"/>
				
					<line fill="none" stroke="#000000" stroke-width="0.25" stroke-miterlimit="10" x1="592.85" y1="518.718" x2="652.31" y2="519.521"/>
				
					<line fill="none" stroke="#000000" stroke-width="0.25" stroke-miterlimit="10" x1="592.913" y1="514.016" x2="652.373" y2="514.818"/>
				
					<line fill="none" stroke="#000000" stroke-width="0.25" stroke-miterlimit="10" x1="592.977" y1="509.313" x2="652.437" y2="510.116"/>
				
					<line fill="none" stroke="#000000" stroke-width="0.25" stroke-miterlimit="10" x1="593.04" y1="504.61" x2="652.5" y2="505.415"/>
				
					<line fill="none" stroke="#000000" stroke-width="0.25" stroke-miterlimit="10" x1="593.104" y1="499.909" x2="652.563" y2="500.712"/>
				
					<line fill="none" stroke="#000000" stroke-width="0.25" stroke-miterlimit="10" x1="593.167" y1="495.207" x2="652.627" y2="496.011"/>
				
					<line fill="none" stroke="#000000" stroke-width="0.25" stroke-miterlimit="10" x1="593.23" y1="490.505" x2="652.69" y2="491.309"/>
				
					<line fill="none" stroke="#000000" stroke-width="0.25" stroke-miterlimit="10" x1="593.294" y1="485.803" x2="652.754" y2="486.606"/>
			</g>
		</g>
		
			<line fill="none" stroke="#000000" stroke-width="0.25" stroke-miterlimit="10" x1="760.764" y1="519.415" x2="727.436" y2="540.224"/>
		
			<rect x="706.746" y="448.675" transform="matrix(-0.7855 0.6188 -0.6188 -0.7855 1622.0535 416.0741)" fill="#FFFFFF" stroke="#000000" stroke-width="0.25" stroke-miterlimit="10" width="64.366" height="80.869"/>
		
			<rect x="693.289" y="444.736" transform="matrix(-0.7488 0.6628 -0.6628 -0.7488 1590.2688 367.5738)" fill="#FFFFFF" stroke="#000000" stroke-width="0.25" stroke-miterlimit="10" width="64.367" height="80.87"/>
		
			<line fill="none" stroke="#000000" stroke-width="0.25" stroke-miterlimit="10" x1="766.404" y1="490.801" x2="725.256" y2="528.46"/>
		
			<line fill="none" stroke="#000000" stroke-width="0.25" stroke-miterlimit="10" x1="760.852" y1="481.445" x2="717.004" y2="522.432"/>
		
			<line fill="none" stroke="#000000" stroke-width="0.25" stroke-miterlimit="10" x1="758.178" y1="477.255" x2="714.328" y2="518.24"/>
		
			<line fill="none" stroke="#000000" stroke-width="0.25" stroke-miterlimit="10" x1="755.363" y1="475.237" x2="711.512" y2="516.224"/>
		
			<line fill="none" stroke="#000000" stroke-width="0.25" stroke-miterlimit="10" x1="752.625" y1="470.884" x2="708.775" y2="511.87"/>
		
			<line fill="none" stroke="#000000" stroke-width="0.25" stroke-miterlimit="10" x1="750.49" y1="468.675" x2="706.639" y2="509.661"/>
		
			<line fill="none" stroke="#000000" stroke-width="0.25" stroke-miterlimit="10" x1="747.793" y1="465.465" x2="703.945" y2="506.451"/>
		
			<line fill="none" stroke="#000000" stroke-width="0.25" stroke-miterlimit="10" x1="744.24" y1="462.23" x2="700.393" y2="503.218"/>
		
			<line fill="none" stroke="#000000" stroke-width="0.25" stroke-miterlimit="10" x1="742.092" y1="459.847" x2="698.242" y2="500.833"/>
		
			<line fill="none" stroke="#000000" stroke-width="0.25" stroke-miterlimit="10" x1="740.66" y1="457.828" x2="696.809" y2="498.814"/>
		
			<line fill="none" stroke="#000000" stroke-width="0.25" stroke-miterlimit="10" x1="736.309" y1="453.121" x2="692.459" y2="494.109"/>
	</g>
	<path opacity="0.1" fill="none" stroke="#000000" stroke-width="0.25" stroke-miterlimit="10" d="M527.158,391.842
		c0,0,61.855-32.972,147.278,1.262"/>
</g>
</svg>
